<?xml version="1.0" encoding="utf-8" standalone="no"?>
<!DOCTYPE svg PUBLIC "-//W3C//DTD SVG 1.1//EN"
  "http://www.w3.org/Graphics/SVG/1.1/DTD/svg11.dtd">
<svg height="180pt" version="1.1" viewBox="0 0 288 180" width="288pt" xmlns="http://www.w3.org/2000/svg" xmlns:xlink="http://www.w3.org/1999/xlink">
 <metadata>
  <rdf:RDF xmlns:cc="http://creativecommons.org/ns#" xmlns:dc="http://purl.org/dc/elements/1.1/" xmlns:rdf="http://www.w3.org/1999/02/22-rdf-syntax-ns#">
   <cc:Work>
    <dc:type rdf:resource="http://purl.org/dc/dcmitype/StillImage"/>
    <dc:date>2021-08-24T22:52:05.260074</dc:date>
    <dc:format>image/svg+xml</dc:format>
    <dc:creator>
     <cc:Agent>
      <dc:title>Matplotlib v3.4.2, https://matplotlib.org/</dc:title>
     </cc:Agent>
    </dc:creator>
   </cc:Work>
  </rdf:RDF>
 </metadata>
 <defs>
  <style type="text/css">*{stroke-linecap:butt;stroke-linejoin:round;}</style>
 </defs>
 <g id="figure_1">
  <g id="patch_1">
   <path d="M 0 180 
L 288 180 
L 288 0 
L 0 0 
z
" style="fill:#ffffff;"/>
  </g>
  <g id="axes_1">
   <g id="patch_2">
    <path d="M 50.87 138.04 
L 277.2 138.04 
L 277.2 10.8 
L 50.87 10.8 
z
" style="fill:#ffffff;"/>
   </g>
   <g id="matplotlib.axis_1">
    <g id="xtick_1">
     <g id="line2d_1">
      <defs>
       <path d="M 0 0 
L 0 3.5 
" id="m8d02c1eebf" style="stroke:#000000;stroke-width:0.8;"/>
      </defs>
      <g>
       <use style="stroke:#000000;stroke-width:0.8;" x="79.413088" xlink:href="#m8d02c1eebf" y="138.04"/>
      </g>
     </g>
     <g id="text_1">
      <!-- 22200 -->
      <g transform="translate(63.506838 152.638438)scale(0.1 -0.1)">
       <defs>
        <path d="M 1228 531 
L 3431 531 
L 3431 0 
L 469 0 
L 469 531 
Q 828 903 1448 1529 
Q 2069 2156 2228 2338 
Q 2531 2678 2651 2914 
Q 2772 3150 2772 3378 
Q 2772 3750 2511 3984 
Q 2250 4219 1831 4219 
Q 1534 4219 1204 4116 
Q 875 4013 500 3803 
L 500 4441 
Q 881 4594 1212 4672 
Q 1544 4750 1819 4750 
Q 2544 4750 2975 4387 
Q 3406 4025 3406 3419 
Q 3406 3131 3298 2873 
Q 3191 2616 2906 2266 
Q 2828 2175 2409 1742 
Q 1991 1309 1228 531 
z
" id="DejaVuSans-32" transform="scale(0.015625)"/>
        <path d="M 2034 4250 
Q 1547 4250 1301 3770 
Q 1056 3291 1056 2328 
Q 1056 1369 1301 889 
Q 1547 409 2034 409 
Q 2525 409 2770 889 
Q 3016 1369 3016 2328 
Q 3016 3291 2770 3770 
Q 2525 4250 2034 4250 
z
M 2034 4750 
Q 2819 4750 3233 4129 
Q 3647 3509 3647 2328 
Q 3647 1150 3233 529 
Q 2819 -91 2034 -91 
Q 1250 -91 836 529 
Q 422 1150 422 2328 
Q 422 3509 836 4129 
Q 1250 4750 2034 4750 
z
" id="DejaVuSans-30" transform="scale(0.015625)"/>
       </defs>
       <use xlink:href="#DejaVuSans-32"/>
       <use x="63.623047" xlink:href="#DejaVuSans-32"/>
       <use x="127.246094" xlink:href="#DejaVuSans-32"/>
       <use x="190.869141" xlink:href="#DejaVuSans-30"/>
       <use x="254.492188" xlink:href="#DejaVuSans-30"/>
      </g>
     </g>
    </g>
    <g id="xtick_2">
     <g id="line2d_2">
      <g>
       <use style="stroke:#000000;stroke-width:0.8;" x="138.17326" xlink:href="#m8d02c1eebf" y="138.04"/>
      </g>
     </g>
     <g id="text_2">
      <!-- 22220 -->
      <g transform="translate(122.26701 152.638438)scale(0.1 -0.1)">
       <use xlink:href="#DejaVuSans-32"/>
       <use x="63.623047" xlink:href="#DejaVuSans-32"/>
       <use x="127.246094" xlink:href="#DejaVuSans-32"/>
       <use x="190.869141" xlink:href="#DejaVuSans-32"/>
       <use x="254.492188" xlink:href="#DejaVuSans-30"/>
      </g>
     </g>
    </g>
    <g id="xtick_3">
     <g id="line2d_3">
      <g>
       <use style="stroke:#000000;stroke-width:0.8;" x="196.933431" xlink:href="#m8d02c1eebf" y="138.04"/>
      </g>
     </g>
     <g id="text_3">
      <!-- 22240 -->
      <g transform="translate(181.027181 152.638438)scale(0.1 -0.1)">
       <defs>
        <path d="M 2419 4116 
L 825 1625 
L 2419 1625 
L 2419 4116 
z
M 2253 4666 
L 3047 4666 
L 3047 1625 
L 3713 1625 
L 3713 1100 
L 3047 1100 
L 3047 0 
L 2419 0 
L 2419 1100 
L 313 1100 
L 313 1709 
L 2253 4666 
z
" id="DejaVuSans-34" transform="scale(0.015625)"/>
       </defs>
       <use xlink:href="#DejaVuSans-32"/>
       <use x="63.623047" xlink:href="#DejaVuSans-32"/>
       <use x="127.246094" xlink:href="#DejaVuSans-32"/>
       <use x="190.869141" xlink:href="#DejaVuSans-34"/>
       <use x="254.492188" xlink:href="#DejaVuSans-30"/>
      </g>
     </g>
    </g>
    <g id="xtick_4">
     <g id="line2d_4">
      <g>
       <use style="stroke:#000000;stroke-width:0.8;" x="255.693603" xlink:href="#m8d02c1eebf" y="138.04"/>
      </g>
     </g>
     <g id="text_4">
      <!-- 22260 -->
      <g transform="translate(239.787353 152.638438)scale(0.1 -0.1)">
       <defs>
        <path d="M 2113 2584 
Q 1688 2584 1439 2293 
Q 1191 2003 1191 1497 
Q 1191 994 1439 701 
Q 1688 409 2113 409 
Q 2538 409 2786 701 
Q 3034 994 3034 1497 
Q 3034 2003 2786 2293 
Q 2538 2584 2113 2584 
z
M 3366 4563 
L 3366 3988 
Q 3128 4100 2886 4159 
Q 2644 4219 2406 4219 
Q 1781 4219 1451 3797 
Q 1122 3375 1075 2522 
Q 1259 2794 1537 2939 
Q 1816 3084 2150 3084 
Q 2853 3084 3261 2657 
Q 3669 2231 3669 1497 
Q 3669 778 3244 343 
Q 2819 -91 2113 -91 
Q 1303 -91 875 529 
Q 447 1150 447 2328 
Q 447 3434 972 4092 
Q 1497 4750 2381 4750 
Q 2619 4750 2861 4703 
Q 3103 4656 3366 4563 
z
" id="DejaVuSans-36" transform="scale(0.015625)"/>
       </defs>
       <use xlink:href="#DejaVuSans-32"/>
       <use x="63.623047" xlink:href="#DejaVuSans-32"/>
       <use x="127.246094" xlink:href="#DejaVuSans-32"/>
       <use x="190.869141" xlink:href="#DejaVuSans-36"/>
       <use x="254.492188" xlink:href="#DejaVuSans-30"/>
      </g>
     </g>
    </g>
    <g id="text_5">
     <!-- Beat Number -->
     <g transform="translate(130.82875 166.316563)scale(0.1 -0.1)">
      <defs>
       <path d="M 1259 2228 
L 1259 519 
L 2272 519 
Q 2781 519 3026 730 
Q 3272 941 3272 1375 
Q 3272 1813 3026 2020 
Q 2781 2228 2272 2228 
L 1259 2228 
z
M 1259 4147 
L 1259 2741 
L 2194 2741 
Q 2656 2741 2882 2914 
Q 3109 3088 3109 3444 
Q 3109 3797 2882 3972 
Q 2656 4147 2194 4147 
L 1259 4147 
z
M 628 4666 
L 2241 4666 
Q 2963 4666 3353 4366 
Q 3744 4066 3744 3513 
Q 3744 3084 3544 2831 
Q 3344 2578 2956 2516 
Q 3422 2416 3680 2098 
Q 3938 1781 3938 1306 
Q 3938 681 3513 340 
Q 3088 0 2303 0 
L 628 0 
L 628 4666 
z
" id="DejaVuSans-42" transform="scale(0.015625)"/>
       <path d="M 3597 1894 
L 3597 1613 
L 953 1613 
Q 991 1019 1311 708 
Q 1631 397 2203 397 
Q 2534 397 2845 478 
Q 3156 559 3463 722 
L 3463 178 
Q 3153 47 2828 -22 
Q 2503 -91 2169 -91 
Q 1331 -91 842 396 
Q 353 884 353 1716 
Q 353 2575 817 3079 
Q 1281 3584 2069 3584 
Q 2775 3584 3186 3129 
Q 3597 2675 3597 1894 
z
M 3022 2063 
Q 3016 2534 2758 2815 
Q 2500 3097 2075 3097 
Q 1594 3097 1305 2825 
Q 1016 2553 972 2059 
L 3022 2063 
z
" id="DejaVuSans-65" transform="scale(0.015625)"/>
       <path d="M 2194 1759 
Q 1497 1759 1228 1600 
Q 959 1441 959 1056 
Q 959 750 1161 570 
Q 1363 391 1709 391 
Q 2188 391 2477 730 
Q 2766 1069 2766 1631 
L 2766 1759 
L 2194 1759 
z
M 3341 1997 
L 3341 0 
L 2766 0 
L 2766 531 
Q 2569 213 2275 61 
Q 1981 -91 1556 -91 
Q 1019 -91 701 211 
Q 384 513 384 1019 
Q 384 1609 779 1909 
Q 1175 2209 1959 2209 
L 2766 2209 
L 2766 2266 
Q 2766 2663 2505 2880 
Q 2244 3097 1772 3097 
Q 1472 3097 1187 3025 
Q 903 2953 641 2809 
L 641 3341 
Q 956 3463 1253 3523 
Q 1550 3584 1831 3584 
Q 2591 3584 2966 3190 
Q 3341 2797 3341 1997 
z
" id="DejaVuSans-61" transform="scale(0.015625)"/>
       <path d="M 1172 4494 
L 1172 3500 
L 2356 3500 
L 2356 3053 
L 1172 3053 
L 1172 1153 
Q 1172 725 1289 603 
Q 1406 481 1766 481 
L 2356 481 
L 2356 0 
L 1766 0 
Q 1100 0 847 248 
Q 594 497 594 1153 
L 594 3053 
L 172 3053 
L 172 3500 
L 594 3500 
L 594 4494 
L 1172 4494 
z
" id="DejaVuSans-74" transform="scale(0.015625)"/>
       <path id="DejaVuSans-20" transform="scale(0.015625)"/>
       <path d="M 628 4666 
L 1478 4666 
L 3547 763 
L 3547 4666 
L 4159 4666 
L 4159 0 
L 3309 0 
L 1241 3903 
L 1241 0 
L 628 0 
L 628 4666 
z
" id="DejaVuSans-4e" transform="scale(0.015625)"/>
       <path d="M 544 1381 
L 544 3500 
L 1119 3500 
L 1119 1403 
Q 1119 906 1312 657 
Q 1506 409 1894 409 
Q 2359 409 2629 706 
Q 2900 1003 2900 1516 
L 2900 3500 
L 3475 3500 
L 3475 0 
L 2900 0 
L 2900 538 
Q 2691 219 2414 64 
Q 2138 -91 1772 -91 
Q 1169 -91 856 284 
Q 544 659 544 1381 
z
M 1991 3584 
L 1991 3584 
z
" id="DejaVuSans-75" transform="scale(0.015625)"/>
       <path d="M 3328 2828 
Q 3544 3216 3844 3400 
Q 4144 3584 4550 3584 
Q 5097 3584 5394 3201 
Q 5691 2819 5691 2113 
L 5691 0 
L 5113 0 
L 5113 2094 
Q 5113 2597 4934 2840 
Q 4756 3084 4391 3084 
Q 3944 3084 3684 2787 
Q 3425 2491 3425 1978 
L 3425 0 
L 2847 0 
L 2847 2094 
Q 2847 2600 2669 2842 
Q 2491 3084 2119 3084 
Q 1678 3084 1418 2786 
Q 1159 2488 1159 1978 
L 1159 0 
L 581 0 
L 581 3500 
L 1159 3500 
L 1159 2956 
Q 1356 3278 1631 3431 
Q 1906 3584 2284 3584 
Q 2666 3584 2933 3390 
Q 3200 3197 3328 2828 
z
" id="DejaVuSans-6d" transform="scale(0.015625)"/>
       <path d="M 3116 1747 
Q 3116 2381 2855 2742 
Q 2594 3103 2138 3103 
Q 1681 3103 1420 2742 
Q 1159 2381 1159 1747 
Q 1159 1113 1420 752 
Q 1681 391 2138 391 
Q 2594 391 2855 752 
Q 3116 1113 3116 1747 
z
M 1159 2969 
Q 1341 3281 1617 3432 
Q 1894 3584 2278 3584 
Q 2916 3584 3314 3078 
Q 3713 2572 3713 1747 
Q 3713 922 3314 415 
Q 2916 -91 2278 -91 
Q 1894 -91 1617 61 
Q 1341 213 1159 525 
L 1159 0 
L 581 0 
L 581 4863 
L 1159 4863 
L 1159 2969 
z
" id="DejaVuSans-62" transform="scale(0.015625)"/>
       <path d="M 2631 2963 
Q 2534 3019 2420 3045 
Q 2306 3072 2169 3072 
Q 1681 3072 1420 2755 
Q 1159 2438 1159 1844 
L 1159 0 
L 581 0 
L 581 3500 
L 1159 3500 
L 1159 2956 
Q 1341 3275 1631 3429 
Q 1922 3584 2338 3584 
Q 2397 3584 2469 3576 
Q 2541 3569 2628 3553 
L 2631 2963 
z
" id="DejaVuSans-72" transform="scale(0.015625)"/>
      </defs>
      <use xlink:href="#DejaVuSans-42"/>
      <use x="68.603516" xlink:href="#DejaVuSans-65"/>
      <use x="130.126953" xlink:href="#DejaVuSans-61"/>
      <use x="191.40625" xlink:href="#DejaVuSans-74"/>
      <use x="230.615234" xlink:href="#DejaVuSans-20"/>
      <use x="262.402344" xlink:href="#DejaVuSans-4e"/>
      <use x="337.207031" xlink:href="#DejaVuSans-75"/>
      <use x="400.585938" xlink:href="#DejaVuSans-6d"/>
      <use x="497.998047" xlink:href="#DejaVuSans-62"/>
      <use x="561.474609" xlink:href="#DejaVuSans-65"/>
      <use x="622.998047" xlink:href="#DejaVuSans-72"/>
     </g>
    </g>
   </g>
   <g id="matplotlib.axis_2">
    <g id="ytick_1">
     <g id="line2d_5">
      <defs>
       <path d="M 0 0 
L -3.5 0 
" id="mc5a089b1d0" style="stroke:#000000;stroke-width:0.8;"/>
      </defs>
      <g>
       <use style="stroke:#000000;stroke-width:0.8;" x="50.87" xlink:href="#mc5a089b1d0" y="103.69879"/>
      </g>
     </g>
     <g id="text_6">
      <!-- 40 -->
      <g transform="translate(31.145 107.498009)scale(0.1 -0.1)">
       <use xlink:href="#DejaVuSans-34"/>
       <use x="63.623047" xlink:href="#DejaVuSans-30"/>
      </g>
     </g>
    </g>
    <g id="ytick_2">
     <g id="line2d_6">
      <g>
       <use style="stroke:#000000;stroke-width:0.8;" x="50.87" xlink:href="#mc5a089b1d0" y="67.679088"/>
      </g>
     </g>
     <g id="text_7">
      <!-- 60 -->
      <g transform="translate(31.145 71.478307)scale(0.1 -0.1)">
       <use xlink:href="#DejaVuSans-36"/>
       <use x="63.623047" xlink:href="#DejaVuSans-30"/>
      </g>
     </g>
    </g>
    <g id="ytick_3">
     <g id="line2d_7">
      <g>
       <use style="stroke:#000000;stroke-width:0.8;" x="50.87" xlink:href="#mc5a089b1d0" y="31.659386"/>
      </g>
     </g>
     <g id="text_8">
      <!-- 80 -->
      <g transform="translate(31.145 35.458604)scale(0.1 -0.1)">
       <defs>
        <path d="M 2034 2216 
Q 1584 2216 1326 1975 
Q 1069 1734 1069 1313 
Q 1069 891 1326 650 
Q 1584 409 2034 409 
Q 2484 409 2743 651 
Q 3003 894 3003 1313 
Q 3003 1734 2745 1975 
Q 2488 2216 2034 2216 
z
M 1403 2484 
Q 997 2584 770 2862 
Q 544 3141 544 3541 
Q 544 4100 942 4425 
Q 1341 4750 2034 4750 
Q 2731 4750 3128 4425 
Q 3525 4100 3525 3541 
Q 3525 3141 3298 2862 
Q 3072 2584 2669 2484 
Q 3125 2378 3379 2068 
Q 3634 1759 3634 1313 
Q 3634 634 3220 271 
Q 2806 -91 2034 -91 
Q 1263 -91 848 271 
Q 434 634 434 1313 
Q 434 1759 690 2068 
Q 947 2378 1403 2484 
z
M 1172 3481 
Q 1172 3119 1398 2916 
Q 1625 2713 2034 2713 
Q 2441 2713 2670 2916 
Q 2900 3119 2900 3481 
Q 2900 3844 2670 4047 
Q 2441 4250 2034 4250 
Q 1625 4250 1398 4047 
Q 1172 3844 1172 3481 
z
" id="DejaVuSans-38" transform="scale(0.015625)"/>
       </defs>
       <use xlink:href="#DejaVuSans-38"/>
       <use x="63.623047" xlink:href="#DejaVuSans-30"/>
      </g>
     </g>
    </g>
    <g id="text_9">
     <!-- IBI derived HR (BPM) -->
     <g transform="translate(25.065312 126.368438)rotate(-90)scale(0.1 -0.1)">
      <defs>
       <path d="M 628 4666 
L 1259 4666 
L 1259 0 
L 628 0 
L 628 4666 
z
" id="DejaVuSans-49" transform="scale(0.015625)"/>
       <path d="M 2906 2969 
L 2906 4863 
L 3481 4863 
L 3481 0 
L 2906 0 
L 2906 525 
Q 2725 213 2448 61 
Q 2172 -91 1784 -91 
Q 1150 -91 751 415 
Q 353 922 353 1747 
Q 353 2572 751 3078 
Q 1150 3584 1784 3584 
Q 2172 3584 2448 3432 
Q 2725 3281 2906 2969 
z
M 947 1747 
Q 947 1113 1208 752 
Q 1469 391 1925 391 
Q 2381 391 2643 752 
Q 2906 1113 2906 1747 
Q 2906 2381 2643 2742 
Q 2381 3103 1925 3103 
Q 1469 3103 1208 2742 
Q 947 2381 947 1747 
z
" id="DejaVuSans-64" transform="scale(0.015625)"/>
       <path d="M 603 3500 
L 1178 3500 
L 1178 0 
L 603 0 
L 603 3500 
z
M 603 4863 
L 1178 4863 
L 1178 4134 
L 603 4134 
L 603 4863 
z
" id="DejaVuSans-69" transform="scale(0.015625)"/>
       <path d="M 191 3500 
L 800 3500 
L 1894 563 
L 2988 3500 
L 3597 3500 
L 2284 0 
L 1503 0 
L 191 3500 
z
" id="DejaVuSans-76" transform="scale(0.015625)"/>
       <path d="M 628 4666 
L 1259 4666 
L 1259 2753 
L 3553 2753 
L 3553 4666 
L 4184 4666 
L 4184 0 
L 3553 0 
L 3553 2222 
L 1259 2222 
L 1259 0 
L 628 0 
L 628 4666 
z
" id="DejaVuSans-48" transform="scale(0.015625)"/>
       <path d="M 2841 2188 
Q 3044 2119 3236 1894 
Q 3428 1669 3622 1275 
L 4263 0 
L 3584 0 
L 2988 1197 
Q 2756 1666 2539 1819 
Q 2322 1972 1947 1972 
L 1259 1972 
L 1259 0 
L 628 0 
L 628 4666 
L 2053 4666 
Q 2853 4666 3247 4331 
Q 3641 3997 3641 3322 
Q 3641 2881 3436 2590 
Q 3231 2300 2841 2188 
z
M 1259 4147 
L 1259 2491 
L 2053 2491 
Q 2509 2491 2742 2702 
Q 2975 2913 2975 3322 
Q 2975 3731 2742 3939 
Q 2509 4147 2053 4147 
L 1259 4147 
z
" id="DejaVuSans-52" transform="scale(0.015625)"/>
       <path d="M 1984 4856 
Q 1566 4138 1362 3434 
Q 1159 2731 1159 2009 
Q 1159 1288 1364 580 
Q 1569 -128 1984 -844 
L 1484 -844 
Q 1016 -109 783 600 
Q 550 1309 550 2009 
Q 550 2706 781 3412 
Q 1013 4119 1484 4856 
L 1984 4856 
z
" id="DejaVuSans-28" transform="scale(0.015625)"/>
       <path d="M 1259 4147 
L 1259 2394 
L 2053 2394 
Q 2494 2394 2734 2622 
Q 2975 2850 2975 3272 
Q 2975 3691 2734 3919 
Q 2494 4147 2053 4147 
L 1259 4147 
z
M 628 4666 
L 2053 4666 
Q 2838 4666 3239 4311 
Q 3641 3956 3641 3272 
Q 3641 2581 3239 2228 
Q 2838 1875 2053 1875 
L 1259 1875 
L 1259 0 
L 628 0 
L 628 4666 
z
" id="DejaVuSans-50" transform="scale(0.015625)"/>
       <path d="M 628 4666 
L 1569 4666 
L 2759 1491 
L 3956 4666 
L 4897 4666 
L 4897 0 
L 4281 0 
L 4281 4097 
L 3078 897 
L 2444 897 
L 1241 4097 
L 1241 0 
L 628 0 
L 628 4666 
z
" id="DejaVuSans-4d" transform="scale(0.015625)"/>
       <path d="M 513 4856 
L 1013 4856 
Q 1481 4119 1714 3412 
Q 1947 2706 1947 2009 
Q 1947 1309 1714 600 
Q 1481 -109 1013 -844 
L 513 -844 
Q 928 -128 1133 580 
Q 1338 1288 1338 2009 
Q 1338 2731 1133 3434 
Q 928 4138 513 4856 
z
" id="DejaVuSans-29" transform="scale(0.015625)"/>
      </defs>
      <use xlink:href="#DejaVuSans-49"/>
      <use x="29.492188" xlink:href="#DejaVuSans-42"/>
      <use x="98.095703" xlink:href="#DejaVuSans-49"/>
      <use x="127.587891" xlink:href="#DejaVuSans-20"/>
      <use x="159.375" xlink:href="#DejaVuSans-64"/>
      <use x="222.851562" xlink:href="#DejaVuSans-65"/>
      <use x="284.375" xlink:href="#DejaVuSans-72"/>
      <use x="325.488281" xlink:href="#DejaVuSans-69"/>
      <use x="353.271484" xlink:href="#DejaVuSans-76"/>
      <use x="412.451172" xlink:href="#DejaVuSans-65"/>
      <use x="473.974609" xlink:href="#DejaVuSans-64"/>
      <use x="537.451172" xlink:href="#DejaVuSans-20"/>
      <use x="569.238281" xlink:href="#DejaVuSans-48"/>
      <use x="644.433594" xlink:href="#DejaVuSans-52"/>
      <use x="713.916016" xlink:href="#DejaVuSans-20"/>
      <use x="745.703125" xlink:href="#DejaVuSans-28"/>
      <use x="784.716797" xlink:href="#DejaVuSans-42"/>
      <use x="853.320312" xlink:href="#DejaVuSans-50"/>
      <use x="913.623047" xlink:href="#DejaVuSans-4d"/>
      <use x="999.902344" xlink:href="#DejaVuSans-29"/>
     </g>
    </g>
   </g>
   <g id="line2d_8">
    <path clip-path="url(#p12d7e50d4d)" d="M 50.033003 44.041158 
L 52.971011 44.142464 
L 55.90902 44.598338 
L 58.847028 44.952907 
L 61.785037 45.358129 
L 64.723045 46.016614 
L 67.661054 46.269877 
L 70.599063 46.573794 
L 73.537071 46.928363 
L 76.47508 47.130973 
L 79.413088 47.586848 
L 82.351097 48.853166 
L 85.289105 49.055776 
L 88.227114 48.295986 
L 91.165123 48.599902 
L 94.103131 49.055776 
L 97.04114 46.067267 
L 99.979148 42.876146 
L 102.917157 40.090247 
L 105.855165 37.912181 
L 108.793174 38.013486 
L 111.731183 37.355001 
L 114.669191 36.797821 
L 117.6072 36.038031 
L 120.545208 30.567538 
L 123.483217 24.945088 
L 126.421225 26.920544 
L 129.359234 32.188425 
L 132.297243 31.884509 
L 135.235251 31.884509 
L 138.17326 34.51845 
L 141.111268 36.038031 
L 144.049277 38.216097 
L 146.987285 38.722624 
L 149.925294 43.028104 
L 152.863303 50.62601 
L 155.801311 50.119483 
L 158.73932 47.130973 
L 161.677328 51.284495 
L 164.615337 56.04585 
L 167.553345 57.312167 
L 170.491354 54.779532 
L 173.429363 53.513215 
L 176.367371 54.678227 
L 179.30538 58.679791 
L 182.243388 64.048977 
L 185.181397 66.075086 
L 188.119405 65.467253 
L 191.057414 64.352894 
L 193.995423 64.555505 
L 196.933431 64.048977 
L 199.87144 60.35133 
L 202.809448 55.286059 
L 205.747457 51.487106 
L 208.685465 49.916872 
L 211.623474 48.19468 
L 214.561483 44.345075 
L 217.499491 42.01505 
L 220.4375 41.052649 
L 223.375508 40.292858 
L 226.313517 40.191553 
L 229.251525 40.039595 
L 232.189534 39.482415 
L 235.127543 38.925235 
L 238.065551 38.671971 
L 241.00356 38.368055 
L 243.941568 38.26675 
L 246.879577 38.165444 
L 249.817585 38.013486 
L 252.755594 37.912181 
L 255.693603 38.064139 
L 258.631611 38.26675 
L 261.56962 38.114792 
L 264.507628 38.114792 
L 267.445637 38.368055 
L 270.383645 38.469361 
L 273.321654 38.671971 
L 276.259663 38.773277 
L 279.197671 38.773277 
" style="fill:none;stroke:#000000;stroke-linecap:square;stroke-width:1.5;"/>
   </g>
   <g id="line2d_9">
    <path clip-path="url(#p12d7e50d4d)" d="M 50.033003 87.940171 
L 52.971011 88.007708 
L 55.90902 88.311624 
L 58.847028 88.548003 
L 61.785037 88.818151 
L 64.723045 89.257141 
L 67.661054 89.425983 
L 70.599063 89.628594 
L 73.537071 89.864974 
L 76.47508 90.000047 
L 79.413088 90.303964 
L 82.351097 91.148175 
L 85.289105 91.283249 
L 88.227114 90.776722 
L 91.165123 90.979333 
L 94.103131 91.283249 
L 97.04114 89.29091 
L 99.979148 87.163496 
L 102.917157 85.30623 
L 105.855165 83.854186 
L 108.793174 83.921723 
L 111.731183 83.482733 
L 114.669191 83.111279 
L 117.6072 82.604752 
L 120.545208 78.957757 
L 123.483217 75.209457 
L 126.421225 76.526427 
L 129.359234 80.038348 
L 132.297243 79.835738 
L 135.235251 79.835738 
L 138.17326 81.591698 
L 141.111268 82.604752 
L 144.049277 84.056797 
L 146.987285 84.394481 
L 149.925294 87.264801 
L 152.863303 92.330072 
L 155.801311 91.992387 
L 158.73932 90.000047 
L 161.677328 92.769062 
L 164.615337 95.943298 
L 167.553345 96.78751 
L 170.491354 95.099087 
L 173.429363 94.254875 
L 176.367371 95.03155 
L 179.30538 97.699259 
L 182.243388 101.278717 
L 185.181397 102.629456 
L 188.119405 102.224234 
L 191.057414 101.481328 
L 193.995423 101.616401 
L 196.933431 101.278717 
L 199.87144 98.813618 
L 202.809448 95.436771 
L 205.747457 92.904136 
L 208.685465 91.857313 
L 211.623474 90.709185 
L 214.561483 88.142782 
L 217.499491 86.589432 
L 220.4375 85.947831 
L 223.375508 85.441304 
L 226.313517 85.373767 
L 229.251525 85.272461 
L 232.189534 84.901008 
L 235.127543 84.529555 
L 238.065551 84.360713 
L 241.00356 84.158102 
L 243.941568 84.090565 
L 246.879577 84.023028 
L 249.817585 83.921723 
L 252.755594 83.854186 
L 255.693603 83.955491 
L 258.631611 84.090565 
L 261.56962 83.98926 
L 264.507628 83.98926 
L 267.445637 84.158102 
L 270.383645 84.225639 
L 273.321654 84.360713 
L 276.259663 84.42825 
L 279.197671 84.42825 
" style="fill:none;stroke:#000000;stroke-linecap:square;stroke-width:1.5;"/>
   </g>
   <g id="line2d_10">
    <defs>
     <path d="M -3 3 
L 3 -3 
M -3 -3 
L 3 3 
" id="m85f254b090" style="stroke:#1f77b4;"/>
    </defs>
    <g clip-path="url(#p12d7e50d4d)">
     <use style="fill:#1f77b4;stroke:#1f77b4;" x="50.033003" xlink:href="#m85f254b090" y="67.679088"/>
     <use style="fill:#1f77b4;stroke:#1f77b4;" x="52.971011" xlink:href="#m85f254b090" y="65.990665"/>
     <use style="fill:#1f77b4;stroke:#1f77b4;" x="55.90902" xlink:href="#m85f254b090" y="65.990665"/>
     <use style="fill:#1f77b4;stroke:#1f77b4;" x="58.847028" xlink:href="#m85f254b090" y="67.679088"/>
     <use style="fill:#1f77b4;stroke:#1f77b4;" x="61.785037" xlink:href="#m85f254b090" y="65.990665"/>
     <use style="fill:#1f77b4;stroke:#1f77b4;" x="64.723045" xlink:href="#m85f254b090" y="66.834876"/>
     <use style="fill:#1f77b4;stroke:#1f77b4;" x="67.661054" xlink:href="#m85f254b090" y="69.367512"/>
     <use style="fill:#1f77b4;stroke:#1f77b4;" x="70.599063" xlink:href="#m85f254b090" y="66.834876"/>
     <use style="fill:#1f77b4;stroke:#1f77b4;" x="73.537071" xlink:href="#m85f254b090" y="66.834876"/>
     <use style="fill:#1f77b4;stroke:#1f77b4;" x="76.47508" xlink:href="#m85f254b090" y="70.211723"/>
     <use style="fill:#1f77b4;stroke:#1f77b4;" x="79.413088" xlink:href="#m85f254b090" y="70.211723"/>
     <use style="fill:#1f77b4;stroke:#1f77b4;" x="82.351097" xlink:href="#m85f254b090" y="69.367512"/>
     <use style="fill:#1f77b4;stroke:#1f77b4;" x="85.289105" xlink:href="#m85f254b090" y="71.055935"/>
     <use style="fill:#1f77b4;stroke:#1f77b4;" x="88.227114" xlink:href="#m85f254b090" y="71.055935"/>
     <use style="fill:#1f77b4;stroke:#1f77b4;" x="91.165123" xlink:href="#m85f254b090" y="71.900147"/>
     <use style="fill:#1f77b4;stroke:#1f77b4;" x="94.103131" xlink:href="#m85f254b090" y="71.900147"/>
     <use style="fill:#1f77b4;stroke:#1f77b4;" x="97.04114" xlink:href="#m85f254b090" y="68.5233"/>
     <use style="fill:#1f77b4;stroke:#1f77b4;" x="99.979148" xlink:href="#m85f254b090" y="70.211723"/>
     <use style="fill:#1f77b4;stroke:#1f77b4;" x="102.917157" xlink:href="#m85f254b090" y="68.5233"/>
     <use style="fill:#1f77b4;stroke:#1f77b4;" x="105.855165" xlink:href="#m85f254b090" y="67.679088"/>
     <use style="fill:#1f77b4;stroke:#1f77b4;" x="108.793174" xlink:href="#m85f254b090" y="75.276994"/>
     <use style="fill:#1f77b4;stroke:#1f77b4;" x="111.731183" xlink:href="#m85f254b090" y="88.784382"/>
     <use style="fill:#1f77b4;stroke:#1f77b4;" x="114.669191" xlink:href="#m85f254b090" y="68.5233"/>
     <use style="fill:#1f77b4;stroke:#1f77b4;" x="117.6072" xlink:href="#m85f254b090" y="55.015911"/>
     <use style="fill:#1f77b4;stroke:#1f77b4;" x="120.545208" xlink:href="#m85f254b090" y="72.744359"/>
     <use style="fill:#1f77b4;stroke:#1f77b4;" x="123.483217" xlink:href="#m85f254b090" y="74.432782"/>
     <use style="fill:#1f77b4;stroke:#1f77b4;" x="126.421225" xlink:href="#m85f254b090" y="17.026382"/>
     <use style="fill:#1f77b4;stroke:#1f77b4;" x="129.359234" xlink:href="#m85f254b090" y="12.805323"/>
     <use style="fill:#1f77b4;stroke:#1f77b4;" x="132.297243" xlink:href="#m85f254b090" y="22.091652"/>
     <use style="fill:#1f77b4;stroke:#1f77b4;" x="135.235251" xlink:href="#m85f254b090" y="28.845346"/>
     <use style="fill:#1f77b4;stroke:#1f77b4;" x="138.17326" xlink:href="#m85f254b090" y="71.055935"/>
     <use style="fill:#1f77b4;stroke:#1f77b4;" x="141.111268" xlink:href="#m85f254b090" y="66.834876"/>
     <use style="fill:#1f77b4;stroke:#1f77b4;" x="144.049277" xlink:href="#m85f254b090" y="73.588571"/>
     <use style="fill:#1f77b4;stroke:#1f77b4;" x="146.987285" xlink:href="#m85f254b090" y="38.131676"/>
     <use style="fill:#1f77b4;stroke:#1f77b4;" x="148.589465" xlink:href="#m85f254b090" y="-1"/>
     <use style="fill:#1f77b4;stroke:#1f77b4;" x="152.945098" xlink:href="#m85f254b090" y="-1"/>
     <use style="fill:#1f77b4;stroke:#1f77b4;" x="155.801311" xlink:href="#m85f254b090" y="106.51283"/>
     <use style="fill:#1f77b4;stroke:#1f77b4;" x="158.73932" xlink:href="#m85f254b090" y="98.914924"/>
     <use style="fill:#1f77b4;stroke:#1f77b4;" x="161.677328" xlink:href="#m85f254b090" y="60.925394"/>
     <use style="fill:#1f77b4;stroke:#1f77b4;" x="164.615337" xlink:href="#m85f254b090" y="77.809629"/>
     <use style="fill:#1f77b4;stroke:#1f77b4;" x="167.553345" xlink:href="#m85f254b090" y="118.331795"/>
     <use style="fill:#1f77b4;stroke:#1f77b4;" x="170.491354" xlink:href="#m85f254b090" y="142.813936"/>
     <use style="fill:#1f77b4;stroke:#1f77b4;" x="173.429363" xlink:href="#m85f254b090" y="120.86443"/>
     <use style="fill:#1f77b4;stroke:#1f77b4;" x="176.367371" xlink:href="#m85f254b090" y="83.719112"/>
     <use style="fill:#1f77b4;stroke:#1f77b4;" x="179.30538" xlink:href="#m85f254b090" y="91.317018"/>
     <use style="fill:#1f77b4;stroke:#1f77b4;" x="182.243388" xlink:href="#m85f254b090" y="127.618124"/>
     <use style="fill:#1f77b4;stroke:#1f77b4;" x="185.181397" xlink:href="#m85f254b090" y="95.538077"/>
     <use style="fill:#1f77b4;stroke:#1f77b4;" x="188.119405" xlink:href="#m85f254b090" y="77.809629"/>
     <use style="fill:#1f77b4;stroke:#1f77b4;" x="191.057414" xlink:href="#m85f254b090" y="74.432782"/>
     <use style="fill:#1f77b4;stroke:#1f77b4;" x="193.995423" xlink:href="#m85f254b090" y="63.458029"/>
     <use style="fill:#1f77b4;stroke:#1f77b4;" x="196.933431" xlink:href="#m85f254b090" y="66.834876"/>
     <use style="fill:#1f77b4;stroke:#1f77b4;" x="199.87144" xlink:href="#m85f254b090" y="69.367512"/>
     <use style="fill:#1f77b4;stroke:#1f77b4;" x="202.809448" xlink:href="#m85f254b090" y="70.211723"/>
     <use style="fill:#1f77b4;stroke:#1f77b4;" x="205.747457" xlink:href="#m85f254b090" y="71.055935"/>
     <use style="fill:#1f77b4;stroke:#1f77b4;" x="208.685465" xlink:href="#m85f254b090" y="67.679088"/>
     <use style="fill:#1f77b4;stroke:#1f77b4;" x="211.623474" xlink:href="#m85f254b090" y="63.458029"/>
     <use style="fill:#1f77b4;stroke:#1f77b4;" x="214.561483" xlink:href="#m85f254b090" y="65.990665"/>
     <use style="fill:#1f77b4;stroke:#1f77b4;" x="217.499491" xlink:href="#m85f254b090" y="64.302241"/>
     <use style="fill:#1f77b4;stroke:#1f77b4;" x="220.4375" xlink:href="#m85f254b090" y="62.613817"/>
     <use style="fill:#1f77b4;stroke:#1f77b4;" x="223.375508" xlink:href="#m85f254b090" y="60.925394"/>
     <use style="fill:#1f77b4;stroke:#1f77b4;" x="226.313517" xlink:href="#m85f254b090" y="58.392759"/>
     <use style="fill:#1f77b4;stroke:#1f77b4;" x="229.251525" xlink:href="#m85f254b090" y="60.081182"/>
     <use style="fill:#1f77b4;stroke:#1f77b4;" x="232.189534" xlink:href="#m85f254b090" y="60.925394"/>
     <use style="fill:#1f77b4;stroke:#1f77b4;" x="235.127543" xlink:href="#m85f254b090" y="58.392759"/>
     <use style="fill:#1f77b4;stroke:#1f77b4;" x="238.065551" xlink:href="#m85f254b090" y="58.392759"/>
     <use style="fill:#1f77b4;stroke:#1f77b4;" x="241.00356" xlink:href="#m85f254b090" y="59.23697"/>
     <use style="fill:#1f77b4;stroke:#1f77b4;" x="243.941568" xlink:href="#m85f254b090" y="59.23697"/>
     <use style="fill:#1f77b4;stroke:#1f77b4;" x="246.879577" xlink:href="#m85f254b090" y="59.23697"/>
     <use style="fill:#1f77b4;stroke:#1f77b4;" x="249.817585" xlink:href="#m85f254b090" y="60.081182"/>
     <use style="fill:#1f77b4;stroke:#1f77b4;" x="252.755594" xlink:href="#m85f254b090" y="60.081182"/>
     <use style="fill:#1f77b4;stroke:#1f77b4;" x="255.693603" xlink:href="#m85f254b090" y="60.081182"/>
     <use style="fill:#1f77b4;stroke:#1f77b4;" x="258.631611" xlink:href="#m85f254b090" y="61.769606"/>
     <use style="fill:#1f77b4;stroke:#1f77b4;" x="261.56962" xlink:href="#m85f254b090" y="61.769606"/>
     <use style="fill:#1f77b4;stroke:#1f77b4;" x="264.507628" xlink:href="#m85f254b090" y="61.769606"/>
     <use style="fill:#1f77b4;stroke:#1f77b4;" x="267.445637" xlink:href="#m85f254b090" y="64.302241"/>
     <use style="fill:#1f77b4;stroke:#1f77b4;" x="270.383645" xlink:href="#m85f254b090" y="62.613817"/>
     <use style="fill:#1f77b4;stroke:#1f77b4;" x="273.321654" xlink:href="#m85f254b090" y="62.613817"/>
     <use style="fill:#1f77b4;stroke:#1f77b4;" x="276.259663" xlink:href="#m85f254b090" y="64.302241"/>
     <use style="fill:#1f77b4;stroke:#1f77b4;" x="279.197671" xlink:href="#m85f254b090" y="61.769606"/>
    </g>
   </g>
   <g id="patch_3">
    <path d="M 50.87 138.04 
L 50.87 10.8 
" style="fill:none;stroke:#000000;stroke-linecap:square;stroke-linejoin:miter;stroke-width:0.8;"/>
   </g>
   <g id="patch_4">
    <path d="M 50.87 138.04 
L 277.2 138.04 
" style="fill:none;stroke:#000000;stroke-linecap:square;stroke-linejoin:miter;stroke-width:0.8;"/>
   </g>
  </g>
 </g>
 <defs>
  <clipPath id="p12d7e50d4d">
   <rect height="127.24" width="226.33" x="50.87" y="10.8"/>
  </clipPath>
 </defs>
</svg>
