<?xml version="1.0" encoding="utf-8" standalone="no"?>
<!DOCTYPE svg PUBLIC "-//W3C//DTD SVG 1.1//EN"
  "http://www.w3.org/Graphics/SVG/1.1/DTD/svg11.dtd">
<!-- Created with matplotlib (https://matplotlib.org/) -->
<svg height="141.732283pt" version="1.1" viewBox="0 0 223.937008 141.732283" width="223.937008pt" xmlns="http://www.w3.org/2000/svg" xmlns:xlink="http://www.w3.org/1999/xlink">
 <metadata>
  <rdf:RDF xmlns:cc="http://creativecommons.org/ns#" xmlns:dc="http://purl.org/dc/elements/1.1/" xmlns:rdf="http://www.w3.org/1999/02/22-rdf-syntax-ns#">
   <cc:Work>
    <dc:type rdf:resource="http://purl.org/dc/dcmitype/StillImage"/>
    <dc:date>2021-04-12T09:19:07.138719</dc:date>
    <dc:format>image/svg+xml</dc:format>
    <dc:creator>
     <cc:Agent>
      <dc:title>Matplotlib v3.3.2, https://matplotlib.org/</dc:title>
     </cc:Agent>
    </dc:creator>
   </cc:Work>
  </rdf:RDF>
 </metadata>
 <defs>
  <style type="text/css">*{stroke-linecap:butt;stroke-linejoin:round;}</style>
 </defs>
 <g id="figure_1">
  <g id="patch_1">
   <path d="M 0 141.732283 
L 223.937008 141.732283 
L 223.937008 0 
L 0 0 
z
" style="fill:#ffffff;"/>
  </g>
  <g id="axes_1">
   <g id="patch_2">
    <path d="M 54.56 112.732283 
L 213.137008 112.732283 
L 213.137008 10.8 
L 54.56 10.8 
z
" style="fill:#ffffff;"/>
   </g>
   <g id="matplotlib.axis_1">
    <g id="xtick_1">
     <g id="line2d_1">
      <defs>
       <path d="M 0 0 
L 0 3.5 
" id="ma3113c65f6" style="stroke:#000000;stroke-width:0.8;"/>
      </defs>
      <g>
       <use style="stroke:#000000;stroke-width:0.8;" x="69.096825" xlink:href="#ma3113c65f6" y="112.732283"/>
      </g>
     </g>
    </g>
    <g id="xtick_2">
     <g id="line2d_2">
      <g>
       <use style="stroke:#000000;stroke-width:0.8;" x="104.300244" xlink:href="#ma3113c65f6" y="112.732283"/>
      </g>
     </g>
    </g>
    <g id="xtick_3">
     <g id="line2d_3">
      <g>
       <use style="stroke:#000000;stroke-width:0.8;" x="139.503662" xlink:href="#ma3113c65f6" y="112.732283"/>
      </g>
     </g>
    </g>
    <g id="xtick_4">
     <g id="line2d_4">
      <g>
       <use style="stroke:#000000;stroke-width:0.8;" x="174.707081" xlink:href="#ma3113c65f6" y="112.732283"/>
      </g>
     </g>
    </g>
    <g id="xtick_5">
     <g id="line2d_5">
      <g>
       <use style="stroke:#000000;stroke-width:0.8;" x="209.910499" xlink:href="#ma3113c65f6" y="112.732283"/>
      </g>
     </g>
    </g>
    <g id="text_1">
     <!-- Time (Seconds) -->
     <g transform="translate(102.863504 129.811033)scale(0.08 -0.08)">
      <defs>
       <path d="M -0.296875 72.90625 
L 61.375 72.90625 
L 61.375 64.59375 
L 35.5 64.59375 
L 35.5 0 
L 25.59375 0 
L 25.59375 64.59375 
L -0.296875 64.59375 
z
" id="DejaVuSans-84"/>
       <path d="M 9.421875 54.6875 
L 18.40625 54.6875 
L 18.40625 0 
L 9.421875 0 
z
M 9.421875 75.984375 
L 18.40625 75.984375 
L 18.40625 64.59375 
L 9.421875 64.59375 
z
" id="DejaVuSans-105"/>
       <path d="M 52 44.1875 
Q 55.375 50.25 60.0625 53.125 
Q 64.75 56 71.09375 56 
Q 79.640625 56 84.28125 50.015625 
Q 88.921875 44.046875 88.921875 33.015625 
L 88.921875 0 
L 79.890625 0 
L 79.890625 32.71875 
Q 79.890625 40.578125 77.09375 44.375 
Q 74.3125 48.1875 68.609375 48.1875 
Q 61.625 48.1875 57.5625 43.546875 
Q 53.515625 38.921875 53.515625 30.90625 
L 53.515625 0 
L 44.484375 0 
L 44.484375 32.71875 
Q 44.484375 40.625 41.703125 44.40625 
Q 38.921875 48.1875 33.109375 48.1875 
Q 26.21875 48.1875 22.15625 43.53125 
Q 18.109375 38.875 18.109375 30.90625 
L 18.109375 0 
L 9.078125 0 
L 9.078125 54.6875 
L 18.109375 54.6875 
L 18.109375 46.1875 
Q 21.1875 51.21875 25.484375 53.609375 
Q 29.78125 56 35.6875 56 
Q 41.65625 56 45.828125 52.96875 
Q 50 49.953125 52 44.1875 
z
" id="DejaVuSans-109"/>
       <path d="M 56.203125 29.59375 
L 56.203125 25.203125 
L 14.890625 25.203125 
Q 15.484375 15.921875 20.484375 11.0625 
Q 25.484375 6.203125 34.421875 6.203125 
Q 39.59375 6.203125 44.453125 7.46875 
Q 49.3125 8.734375 54.109375 11.28125 
L 54.109375 2.78125 
Q 49.265625 0.734375 44.1875 -0.34375 
Q 39.109375 -1.421875 33.890625 -1.421875 
Q 20.796875 -1.421875 13.15625 6.1875 
Q 5.515625 13.8125 5.515625 26.8125 
Q 5.515625 40.234375 12.765625 48.109375 
Q 20.015625 56 32.328125 56 
Q 43.359375 56 49.78125 48.890625 
Q 56.203125 41.796875 56.203125 29.59375 
z
M 47.21875 32.234375 
Q 47.125 39.59375 43.09375 43.984375 
Q 39.0625 48.390625 32.421875 48.390625 
Q 24.90625 48.390625 20.390625 44.140625 
Q 15.875 39.890625 15.1875 32.171875 
z
" id="DejaVuSans-101"/>
       <path id="DejaVuSans-32"/>
       <path d="M 31 75.875 
Q 24.46875 64.65625 21.28125 53.65625 
Q 18.109375 42.671875 18.109375 31.390625 
Q 18.109375 20.125 21.3125 9.0625 
Q 24.515625 -2 31 -13.1875 
L 23.1875 -13.1875 
Q 15.875 -1.703125 12.234375 9.375 
Q 8.59375 20.453125 8.59375 31.390625 
Q 8.59375 42.28125 12.203125 53.3125 
Q 15.828125 64.359375 23.1875 75.875 
z
" id="DejaVuSans-40"/>
       <path d="M 53.515625 70.515625 
L 53.515625 60.890625 
Q 47.90625 63.578125 42.921875 64.890625 
Q 37.9375 66.21875 33.296875 66.21875 
Q 25.25 66.21875 20.875 63.09375 
Q 16.5 59.96875 16.5 54.203125 
Q 16.5 49.359375 19.40625 46.890625 
Q 22.3125 44.4375 30.421875 42.921875 
L 36.375 41.703125 
Q 47.40625 39.59375 52.65625 34.296875 
Q 57.90625 29 57.90625 20.125 
Q 57.90625 9.515625 50.796875 4.046875 
Q 43.703125 -1.421875 29.984375 -1.421875 
Q 24.8125 -1.421875 18.96875 -0.25 
Q 13.140625 0.921875 6.890625 3.21875 
L 6.890625 13.375 
Q 12.890625 10.015625 18.65625 8.296875 
Q 24.421875 6.59375 29.984375 6.59375 
Q 38.421875 6.59375 43.015625 9.90625 
Q 47.609375 13.234375 47.609375 19.390625 
Q 47.609375 24.75 44.3125 27.78125 
Q 41.015625 30.8125 33.5 32.328125 
L 27.484375 33.5 
Q 16.453125 35.6875 11.515625 40.375 
Q 6.59375 45.0625 6.59375 53.421875 
Q 6.59375 63.09375 13.40625 68.65625 
Q 20.21875 74.21875 32.171875 74.21875 
Q 37.3125 74.21875 42.625 73.28125 
Q 47.953125 72.359375 53.515625 70.515625 
z
" id="DejaVuSans-83"/>
       <path d="M 48.78125 52.59375 
L 48.78125 44.1875 
Q 44.96875 46.296875 41.140625 47.34375 
Q 37.3125 48.390625 33.40625 48.390625 
Q 24.65625 48.390625 19.8125 42.84375 
Q 14.984375 37.3125 14.984375 27.296875 
Q 14.984375 17.28125 19.8125 11.734375 
Q 24.65625 6.203125 33.40625 6.203125 
Q 37.3125 6.203125 41.140625 7.25 
Q 44.96875 8.296875 48.78125 10.40625 
L 48.78125 2.09375 
Q 45.015625 0.34375 40.984375 -0.53125 
Q 36.96875 -1.421875 32.421875 -1.421875 
Q 20.0625 -1.421875 12.78125 6.34375 
Q 5.515625 14.109375 5.515625 27.296875 
Q 5.515625 40.671875 12.859375 48.328125 
Q 20.21875 56 33.015625 56 
Q 37.15625 56 41.109375 55.140625 
Q 45.0625 54.296875 48.78125 52.59375 
z
" id="DejaVuSans-99"/>
       <path d="M 30.609375 48.390625 
Q 23.390625 48.390625 19.1875 42.75 
Q 14.984375 37.109375 14.984375 27.296875 
Q 14.984375 17.484375 19.15625 11.84375 
Q 23.34375 6.203125 30.609375 6.203125 
Q 37.796875 6.203125 41.984375 11.859375 
Q 46.1875 17.53125 46.1875 27.296875 
Q 46.1875 37.015625 41.984375 42.703125 
Q 37.796875 48.390625 30.609375 48.390625 
z
M 30.609375 56 
Q 42.328125 56 49.015625 48.375 
Q 55.71875 40.765625 55.71875 27.296875 
Q 55.71875 13.875 49.015625 6.21875 
Q 42.328125 -1.421875 30.609375 -1.421875 
Q 18.84375 -1.421875 12.171875 6.21875 
Q 5.515625 13.875 5.515625 27.296875 
Q 5.515625 40.765625 12.171875 48.375 
Q 18.84375 56 30.609375 56 
z
" id="DejaVuSans-111"/>
       <path d="M 54.890625 33.015625 
L 54.890625 0 
L 45.90625 0 
L 45.90625 32.71875 
Q 45.90625 40.484375 42.875 44.328125 
Q 39.84375 48.1875 33.796875 48.1875 
Q 26.515625 48.1875 22.3125 43.546875 
Q 18.109375 38.921875 18.109375 30.90625 
L 18.109375 0 
L 9.078125 0 
L 9.078125 54.6875 
L 18.109375 54.6875 
L 18.109375 46.1875 
Q 21.34375 51.125 25.703125 53.5625 
Q 30.078125 56 35.796875 56 
Q 45.21875 56 50.046875 50.171875 
Q 54.890625 44.34375 54.890625 33.015625 
z
" id="DejaVuSans-110"/>
       <path d="M 45.40625 46.390625 
L 45.40625 75.984375 
L 54.390625 75.984375 
L 54.390625 0 
L 45.40625 0 
L 45.40625 8.203125 
Q 42.578125 3.328125 38.25 0.953125 
Q 33.9375 -1.421875 27.875 -1.421875 
Q 17.96875 -1.421875 11.734375 6.484375 
Q 5.515625 14.40625 5.515625 27.296875 
Q 5.515625 40.1875 11.734375 48.09375 
Q 17.96875 56 27.875 56 
Q 33.9375 56 38.25 53.625 
Q 42.578125 51.265625 45.40625 46.390625 
z
M 14.796875 27.296875 
Q 14.796875 17.390625 18.875 11.75 
Q 22.953125 6.109375 30.078125 6.109375 
Q 37.203125 6.109375 41.296875 11.75 
Q 45.40625 17.390625 45.40625 27.296875 
Q 45.40625 37.203125 41.296875 42.84375 
Q 37.203125 48.484375 30.078125 48.484375 
Q 22.953125 48.484375 18.875 42.84375 
Q 14.796875 37.203125 14.796875 27.296875 
z
" id="DejaVuSans-100"/>
       <path d="M 44.28125 53.078125 
L 44.28125 44.578125 
Q 40.484375 46.53125 36.375 47.5 
Q 32.28125 48.484375 27.875 48.484375 
Q 21.1875 48.484375 17.84375 46.4375 
Q 14.5 44.390625 14.5 40.28125 
Q 14.5 37.15625 16.890625 35.375 
Q 19.28125 33.59375 26.515625 31.984375 
L 29.59375 31.296875 
Q 39.15625 29.25 43.1875 25.515625 
Q 47.21875 21.78125 47.21875 15.09375 
Q 47.21875 7.46875 41.1875 3.015625 
Q 35.15625 -1.421875 24.609375 -1.421875 
Q 20.21875 -1.421875 15.453125 -0.5625 
Q 10.6875 0.296875 5.421875 2 
L 5.421875 11.28125 
Q 10.40625 8.6875 15.234375 7.390625 
Q 20.0625 6.109375 24.8125 6.109375 
Q 31.15625 6.109375 34.5625 8.28125 
Q 37.984375 10.453125 37.984375 14.40625 
Q 37.984375 18.0625 35.515625 20.015625 
Q 33.0625 21.96875 24.703125 23.78125 
L 21.578125 24.515625 
Q 13.234375 26.265625 9.515625 29.90625 
Q 5.8125 33.546875 5.8125 39.890625 
Q 5.8125 47.609375 11.28125 51.796875 
Q 16.75 56 26.8125 56 
Q 31.78125 56 36.171875 55.265625 
Q 40.578125 54.546875 44.28125 53.078125 
z
" id="DejaVuSans-115"/>
       <path d="M 8.015625 75.875 
L 15.828125 75.875 
Q 23.140625 64.359375 26.78125 53.3125 
Q 30.421875 42.28125 30.421875 31.390625 
Q 30.421875 20.453125 26.78125 9.375 
Q 23.140625 -1.703125 15.828125 -13.1875 
L 8.015625 -13.1875 
Q 14.5 -2 17.703125 9.0625 
Q 20.90625 20.125 20.90625 31.390625 
Q 20.90625 42.671875 17.703125 53.65625 
Q 14.5 64.65625 8.015625 75.875 
z
" id="DejaVuSans-41"/>
      </defs>
      <use xlink:href="#DejaVuSans-84"/>
      <use x="57.958984" xlink:href="#DejaVuSans-105"/>
      <use x="85.742188" xlink:href="#DejaVuSans-109"/>
      <use x="183.154297" xlink:href="#DejaVuSans-101"/>
      <use x="244.677734" xlink:href="#DejaVuSans-32"/>
      <use x="276.464844" xlink:href="#DejaVuSans-40"/>
      <use x="315.478516" xlink:href="#DejaVuSans-83"/>
      <use x="378.955078" xlink:href="#DejaVuSans-101"/>
      <use x="440.478516" xlink:href="#DejaVuSans-99"/>
      <use x="495.458984" xlink:href="#DejaVuSans-111"/>
      <use x="556.640625" xlink:href="#DejaVuSans-110"/>
      <use x="620.019531" xlink:href="#DejaVuSans-100"/>
      <use x="683.496094" xlink:href="#DejaVuSans-115"/>
      <use x="735.595703" xlink:href="#DejaVuSans-41"/>
     </g>
    </g>
   </g>
   <g id="matplotlib.axis_2">
    <g id="ytick_1">
     <g id="line2d_6">
      <defs>
       <path d="M 0 0 
L -3.5 0 
" id="mdcad3c0d2d" style="stroke:#000000;stroke-width:0.8;"/>
      </defs>
      <g>
       <use style="stroke:#000000;stroke-width:0.8;" x="54.56" xlink:href="#mdcad3c0d2d" y="105.848813"/>
      </g>
     </g>
     <g id="text_2">
      <!-- 40 -->
      <g transform="translate(34.835 109.648031)scale(0.1 -0.1)">
       <defs>
        <path d="M 37.796875 64.3125 
L 12.890625 25.390625 
L 37.796875 25.390625 
z
M 35.203125 72.90625 
L 47.609375 72.90625 
L 47.609375 25.390625 
L 58.015625 25.390625 
L 58.015625 17.1875 
L 47.609375 17.1875 
L 47.609375 0 
L 37.796875 0 
L 37.796875 17.1875 
L 4.890625 17.1875 
L 4.890625 26.703125 
z
" id="DejaVuSans-52"/>
        <path d="M 31.78125 66.40625 
Q 24.171875 66.40625 20.328125 58.90625 
Q 16.5 51.421875 16.5 36.375 
Q 16.5 21.390625 20.328125 13.890625 
Q 24.171875 6.390625 31.78125 6.390625 
Q 39.453125 6.390625 43.28125 13.890625 
Q 47.125 21.390625 47.125 36.375 
Q 47.125 51.421875 43.28125 58.90625 
Q 39.453125 66.40625 31.78125 66.40625 
z
M 31.78125 74.21875 
Q 44.046875 74.21875 50.515625 64.515625 
Q 56.984375 54.828125 56.984375 36.375 
Q 56.984375 17.96875 50.515625 8.265625 
Q 44.046875 -1.421875 31.78125 -1.421875 
Q 19.53125 -1.421875 13.0625 8.265625 
Q 6.59375 17.96875 6.59375 36.375 
Q 6.59375 54.828125 13.0625 64.515625 
Q 19.53125 74.21875 31.78125 74.21875 
z
" id="DejaVuSans-48"/>
       </defs>
       <use xlink:href="#DejaVuSans-52"/>
       <use x="63.623047" xlink:href="#DejaVuSans-48"/>
      </g>
     </g>
    </g>
    <g id="ytick_2">
     <g id="line2d_7">
      <g>
       <use style="stroke:#000000;stroke-width:0.8;" x="54.56" xlink:href="#mdcad3c0d2d" y="76.209305"/>
      </g>
     </g>
     <g id="text_3">
      <!-- 60 -->
      <g transform="translate(34.835 80.008523)scale(0.1 -0.1)">
       <defs>
        <path d="M 33.015625 40.375 
Q 26.375 40.375 22.484375 35.828125 
Q 18.609375 31.296875 18.609375 23.390625 
Q 18.609375 15.53125 22.484375 10.953125 
Q 26.375 6.390625 33.015625 6.390625 
Q 39.65625 6.390625 43.53125 10.953125 
Q 47.40625 15.53125 47.40625 23.390625 
Q 47.40625 31.296875 43.53125 35.828125 
Q 39.65625 40.375 33.015625 40.375 
z
M 52.59375 71.296875 
L 52.59375 62.3125 
Q 48.875 64.0625 45.09375 64.984375 
Q 41.3125 65.921875 37.59375 65.921875 
Q 27.828125 65.921875 22.671875 59.328125 
Q 17.53125 52.734375 16.796875 39.40625 
Q 19.671875 43.65625 24.015625 45.921875 
Q 28.375 48.1875 33.59375 48.1875 
Q 44.578125 48.1875 50.953125 41.515625 
Q 57.328125 34.859375 57.328125 23.390625 
Q 57.328125 12.15625 50.6875 5.359375 
Q 44.046875 -1.421875 33.015625 -1.421875 
Q 20.359375 -1.421875 13.671875 8.265625 
Q 6.984375 17.96875 6.984375 36.375 
Q 6.984375 53.65625 15.1875 63.9375 
Q 23.390625 74.21875 37.203125 74.21875 
Q 40.921875 74.21875 44.703125 73.484375 
Q 48.484375 72.75 52.59375 71.296875 
z
" id="DejaVuSans-54"/>
       </defs>
       <use xlink:href="#DejaVuSans-54"/>
       <use x="63.623047" xlink:href="#DejaVuSans-48"/>
      </g>
     </g>
    </g>
    <g id="ytick_3">
     <g id="line2d_8">
      <g>
       <use style="stroke:#000000;stroke-width:0.8;" x="54.56" xlink:href="#mdcad3c0d2d" y="46.569797"/>
      </g>
     </g>
     <g id="text_4">
      <!-- 80 -->
      <g transform="translate(34.835 50.369016)scale(0.1 -0.1)">
       <defs>
        <path d="M 31.78125 34.625 
Q 24.75 34.625 20.71875 30.859375 
Q 16.703125 27.09375 16.703125 20.515625 
Q 16.703125 13.921875 20.71875 10.15625 
Q 24.75 6.390625 31.78125 6.390625 
Q 38.8125 6.390625 42.859375 10.171875 
Q 46.921875 13.96875 46.921875 20.515625 
Q 46.921875 27.09375 42.890625 30.859375 
Q 38.875 34.625 31.78125 34.625 
z
M 21.921875 38.8125 
Q 15.578125 40.375 12.03125 44.71875 
Q 8.5 49.078125 8.5 55.328125 
Q 8.5 64.0625 14.71875 69.140625 
Q 20.953125 74.21875 31.78125 74.21875 
Q 42.671875 74.21875 48.875 69.140625 
Q 55.078125 64.0625 55.078125 55.328125 
Q 55.078125 49.078125 51.53125 44.71875 
Q 48 40.375 41.703125 38.8125 
Q 48.828125 37.15625 52.796875 32.3125 
Q 56.78125 27.484375 56.78125 20.515625 
Q 56.78125 9.90625 50.3125 4.234375 
Q 43.84375 -1.421875 31.78125 -1.421875 
Q 19.734375 -1.421875 13.25 4.234375 
Q 6.78125 9.90625 6.78125 20.515625 
Q 6.78125 27.484375 10.78125 32.3125 
Q 14.796875 37.15625 21.921875 38.8125 
z
M 18.3125 54.390625 
Q 18.3125 48.734375 21.84375 45.5625 
Q 25.390625 42.390625 31.78125 42.390625 
Q 38.140625 42.390625 41.71875 45.5625 
Q 45.3125 48.734375 45.3125 54.390625 
Q 45.3125 60.0625 41.71875 63.234375 
Q 38.140625 66.40625 31.78125 66.40625 
Q 25.390625 66.40625 21.84375 63.234375 
Q 18.3125 60.0625 18.3125 54.390625 
z
" id="DejaVuSans-56"/>
       </defs>
       <use xlink:href="#DejaVuSans-56"/>
       <use x="63.623047" xlink:href="#DejaVuSans-48"/>
      </g>
     </g>
    </g>
    <g id="ytick_4">
     <g id="line2d_9">
      <g>
       <use style="stroke:#000000;stroke-width:0.8;" x="54.56" xlink:href="#mdcad3c0d2d" y="16.930289"/>
      </g>
     </g>
     <g id="text_5">
      <!-- 100 -->
      <g transform="translate(28.4725 20.729508)scale(0.1 -0.1)">
       <defs>
        <path d="M 12.40625 8.296875 
L 28.515625 8.296875 
L 28.515625 63.921875 
L 10.984375 60.40625 
L 10.984375 69.390625 
L 28.421875 72.90625 
L 38.28125 72.90625 
L 38.28125 8.296875 
L 54.390625 8.296875 
L 54.390625 0 
L 12.40625 0 
z
" id="DejaVuSans-49"/>
       </defs>
       <use xlink:href="#DejaVuSans-49"/>
       <use x="63.623047" xlink:href="#DejaVuSans-48"/>
       <use x="127.246094" xlink:href="#DejaVuSans-48"/>
      </g>
     </g>
    </g>
    <g id="text_6">
     <!-- Rate (BPM) -->
     <g transform="translate(22.80875 83.936142)rotate(-90)scale(0.08 -0.08)">
      <defs>
       <path d="M 44.390625 34.1875 
Q 47.5625 33.109375 50.5625 29.59375 
Q 53.5625 26.078125 56.59375 19.921875 
L 66.609375 0 
L 56 0 
L 46.6875 18.703125 
Q 43.0625 26.03125 39.671875 28.421875 
Q 36.28125 30.8125 30.421875 30.8125 
L 19.671875 30.8125 
L 19.671875 0 
L 9.8125 0 
L 9.8125 72.90625 
L 32.078125 72.90625 
Q 44.578125 72.90625 50.734375 67.671875 
Q 56.890625 62.453125 56.890625 51.90625 
Q 56.890625 45.015625 53.6875 40.46875 
Q 50.484375 35.9375 44.390625 34.1875 
z
M 19.671875 64.796875 
L 19.671875 38.921875 
L 32.078125 38.921875 
Q 39.203125 38.921875 42.84375 42.21875 
Q 46.484375 45.515625 46.484375 51.90625 
Q 46.484375 58.296875 42.84375 61.546875 
Q 39.203125 64.796875 32.078125 64.796875 
z
" id="DejaVuSans-82"/>
       <path d="M 34.28125 27.484375 
Q 23.390625 27.484375 19.1875 25 
Q 14.984375 22.515625 14.984375 16.5 
Q 14.984375 11.71875 18.140625 8.90625 
Q 21.296875 6.109375 26.703125 6.109375 
Q 34.1875 6.109375 38.703125 11.40625 
Q 43.21875 16.703125 43.21875 25.484375 
L 43.21875 27.484375 
z
M 52.203125 31.203125 
L 52.203125 0 
L 43.21875 0 
L 43.21875 8.296875 
Q 40.140625 3.328125 35.546875 0.953125 
Q 30.953125 -1.421875 24.3125 -1.421875 
Q 15.921875 -1.421875 10.953125 3.296875 
Q 6 8.015625 6 15.921875 
Q 6 25.140625 12.171875 29.828125 
Q 18.359375 34.515625 30.609375 34.515625 
L 43.21875 34.515625 
L 43.21875 35.40625 
Q 43.21875 41.609375 39.140625 45 
Q 35.0625 48.390625 27.6875 48.390625 
Q 23 48.390625 18.546875 47.265625 
Q 14.109375 46.140625 10.015625 43.890625 
L 10.015625 52.203125 
Q 14.9375 54.109375 19.578125 55.046875 
Q 24.21875 56 28.609375 56 
Q 40.484375 56 46.34375 49.84375 
Q 52.203125 43.703125 52.203125 31.203125 
z
" id="DejaVuSans-97"/>
       <path d="M 18.3125 70.21875 
L 18.3125 54.6875 
L 36.8125 54.6875 
L 36.8125 47.703125 
L 18.3125 47.703125 
L 18.3125 18.015625 
Q 18.3125 11.328125 20.140625 9.421875 
Q 21.96875 7.515625 27.59375 7.515625 
L 36.8125 7.515625 
L 36.8125 0 
L 27.59375 0 
Q 17.1875 0 13.234375 3.875 
Q 9.28125 7.765625 9.28125 18.015625 
L 9.28125 47.703125 
L 2.6875 47.703125 
L 2.6875 54.6875 
L 9.28125 54.6875 
L 9.28125 70.21875 
z
" id="DejaVuSans-116"/>
       <path d="M 19.671875 34.8125 
L 19.671875 8.109375 
L 35.5 8.109375 
Q 43.453125 8.109375 47.28125 11.40625 
Q 51.125 14.703125 51.125 21.484375 
Q 51.125 28.328125 47.28125 31.5625 
Q 43.453125 34.8125 35.5 34.8125 
z
M 19.671875 64.796875 
L 19.671875 42.828125 
L 34.28125 42.828125 
Q 41.5 42.828125 45.03125 45.53125 
Q 48.578125 48.25 48.578125 53.8125 
Q 48.578125 59.328125 45.03125 62.0625 
Q 41.5 64.796875 34.28125 64.796875 
z
M 9.8125 72.90625 
L 35.015625 72.90625 
Q 46.296875 72.90625 52.390625 68.21875 
Q 58.5 63.53125 58.5 54.890625 
Q 58.5 48.1875 55.375 44.234375 
Q 52.25 40.28125 46.1875 39.3125 
Q 53.46875 37.75 57.5 32.78125 
Q 61.53125 27.828125 61.53125 20.40625 
Q 61.53125 10.640625 54.890625 5.3125 
Q 48.25 0 35.984375 0 
L 9.8125 0 
z
" id="DejaVuSans-66"/>
       <path d="M 19.671875 64.796875 
L 19.671875 37.40625 
L 32.078125 37.40625 
Q 38.96875 37.40625 42.71875 40.96875 
Q 46.484375 44.53125 46.484375 51.125 
Q 46.484375 57.671875 42.71875 61.234375 
Q 38.96875 64.796875 32.078125 64.796875 
z
M 9.8125 72.90625 
L 32.078125 72.90625 
Q 44.34375 72.90625 50.609375 67.359375 
Q 56.890625 61.8125 56.890625 51.125 
Q 56.890625 40.328125 50.609375 34.8125 
Q 44.34375 29.296875 32.078125 29.296875 
L 19.671875 29.296875 
L 19.671875 0 
L 9.8125 0 
z
" id="DejaVuSans-80"/>
       <path d="M 9.8125 72.90625 
L 24.515625 72.90625 
L 43.109375 23.296875 
L 61.8125 72.90625 
L 76.515625 72.90625 
L 76.515625 0 
L 66.890625 0 
L 66.890625 64.015625 
L 48.09375 14.015625 
L 38.1875 14.015625 
L 19.390625 64.015625 
L 19.390625 0 
L 9.8125 0 
z
" id="DejaVuSans-77"/>
      </defs>
      <use xlink:href="#DejaVuSans-82"/>
      <use x="67.232422" xlink:href="#DejaVuSans-97"/>
      <use x="128.511719" xlink:href="#DejaVuSans-116"/>
      <use x="167.720703" xlink:href="#DejaVuSans-101"/>
      <use x="229.244141" xlink:href="#DejaVuSans-32"/>
      <use x="261.03125" xlink:href="#DejaVuSans-40"/>
      <use x="300.044922" xlink:href="#DejaVuSans-66"/>
      <use x="368.648438" xlink:href="#DejaVuSans-80"/>
      <use x="428.951172" xlink:href="#DejaVuSans-77"/>
      <use x="515.230469" xlink:href="#DejaVuSans-41"/>
     </g>
    </g>
   </g>
   <g id="line2d_10">
    <path clip-path="url(#pb27ac8f06e)" d="M 54.487407 80.043522 
L 54.663424 80.624734 
L 54.839441 80.194797 
L 55.191475 78.766327 
L 55.543509 79.144302 
L 55.895543 77.680409 
L 56.247577 77.330689 
L 56.423595 77.831665 
L 56.599612 78.709816 
L 56.775629 78.817397 
L 57.30368 76.238065 
L 57.479697 75.576711 
L 57.831731 76.070082 
L 58.183766 75.15982 
L 58.711817 72.984344 
L 59.063851 73.721117 
L 59.415885 73.613559 
L 59.767919 72.761862 
L 60.119954 72.48159 
L 60.471988 73.688126 
L 60.824022 73.435273 
L 61.176056 72.031398 
L 61.352073 72.042684 
L 61.704107 72.757211 
L 61.880124 73.211337 
L 62.056142 72.985827 
L 62.232159 72.23171 
L 62.408176 72.167459 
L 62.76021 73.410018 
L 62.936227 73.410018 
L 63.112244 73.530115 
L 63.464278 74.54118 
L 63.816312 76.99759 
L 64.520381 76.99759 
L 65.048432 78.246228 
L 65.400466 77.588819 
L 65.928518 78.08749 
L 66.104535 78.337467 
L 66.632586 77.408477 
L 66.98462 77.775978 
L 67.336654 77.30369 
L 68.040723 78.582635 
L 68.21674 78.067655 
L 68.392757 77.063989 
L 68.568774 76.74677 
L 68.920808 78.274049 
L 69.448859 76.340123 
L 69.624877 75.941918 
L 69.800894 76.228864 
L 69.976911 76.76363 
L 70.152928 76.775982 
L 70.504962 75.783442 
L 70.856996 74.029929 
L 71.20903 74.00591 
L 71.737082 72.956924 
L 72.265133 72.503096 
L 72.617167 73.250364 
L 72.793184 73.02029 
L 73.145218 71.974061 
L 73.321235 71.662097 
L 73.497253 71.781537 
L 73.849287 72.900583 
L 74.201321 73.364747 
L 74.377338 73.216167 
L 74.553355 73.323737 
L 74.905389 75.527645 
L 75.257423 75.252473 
L 75.609458 75.773801 
L 75.961492 75.35165 
L 76.137509 75.652218 
L 76.489543 76.710328 
L 77.193611 76.695863 
L 77.721663 76.013918 
L 77.89768 75.879274 
L 78.425731 74.942889 
L 78.777765 74.892357 
L 79.129799 74.580596 
L 79.481834 74.050141 
L 80.185902 75.187871 
L 80.537936 73.708841 
L 80.713953 73.788367 
L 80.88997 74.371844 
L 81.065987 74.172412 
L 81.242005 73.303537 
L 81.418022 73.076887 
L 81.770056 74.159354 
L 82.298107 72.743148 
L 82.474124 72.494669 
L 82.826158 73.402922 
L 83.178193 71.913567 
L 83.530227 72.976105 
L 84.058278 71.71494 
L 84.234295 72.029268 
L 84.410312 72.04268 
L 84.586329 71.887287 
L 85.114381 70.567672 
L 85.290398 71.380914 
L 85.466415 71.526205 
L 85.818449 70.438587 
L 85.994466 70.274078 
L 86.170483 70.509202 
L 86.522517 71.889543 
L 86.874552 70.659208 
L 87.226586 71.755212 
L 87.57862 71.270457 
L 87.930654 72.744975 
L 88.282688 71.826478 
L 88.634722 72.436029 
L 89.338791 70.57598 
L 89.690825 72.484102 
L 89.866842 71.981852 
L 90.218876 70.291258 
L 90.394893 69.960971 
L 90.57091 70.128559 
L 90.746928 70.62591 
L 90.922945 70.260591 
L 91.098962 69.265756 
L 91.274979 69.073007 
L 91.450996 69.587979 
L 91.627013 69.739934 
L 91.80303 69.57158 
L 92.331081 68.450728 
L 92.507098 68.450728 
L 92.683116 68.711243 
L 92.859133 69.232274 
L 93.03515 69.138667 
L 93.563201 67.021035 
L 93.739218 66.946099 
L 93.915235 67.498892 
L 94.091252 67.339447 
L 94.443287 66.19016 
L 94.619304 66.000668 
L 94.795321 66.2894 
L 94.971338 66.855622 
L 95.147355 66.507382 
L 95.323372 65.758424 
L 95.499389 65.841188 
L 96.02744 66.975485 
L 96.555492 66.29971 
L 96.731509 66.29971 
L 97.083543 66.66392 
L 97.435577 66.29971 
L 97.787611 66.32027 
L 98.139645 66.572487 
L 98.49168 65.559482 
L 98.843714 65.613643 
L 99.195748 65.86366 
L 99.371765 65.671863 
L 99.547782 65.79678 
L 99.723799 66.369879 
L 99.899816 66.298212 
L 100.075833 65.540181 
L 100.251851 65.288409 
L 100.427868 65.483338 
L 100.603885 65.201662 
L 101.131936 63.747017 
L 101.48397 64.735776 
L 102.188039 62.920315 
L 102.540073 64.001053 
L 102.892107 63.529057 
L 103.068124 63.114456 
L 103.244141 63.044627 
L 103.596175 63.655381 
L 103.772192 63.655381 
L 104.124227 62.277007 
L 104.300244 62.718807 
L 104.476261 63.56903 
L 104.828295 63.266699 
L 105.180329 63.781272 
L 105.532363 65.559482 
L 105.70838 65.559482 
L 105.884398 65.67636 
L 106.236432 66.578331 
L 106.412449 67.321321 
L 106.588466 67.510346 
L 106.9405 66.749543 
L 107.468551 67.303429 
L 107.644568 67.289484 
L 107.820586 67.106688 
L 107.996603 67.339669 
L 108.348637 68.207206 
L 108.524654 68.384313 
L 108.700671 68.004426 
L 108.876688 67.290344 
L 109.052705 67.932125 
L 109.404739 70.163529 
L 109.932791 71.365806 
L 110.108808 71.301954 
L 110.284825 70.982827 
L 110.460842 71.757683 
L 110.812876 74.265736 
L 111.16491 74.081772 
L 111.340927 74.226031 
L 111.516944 74.165531 
L 111.868979 72.900277 
L 112.221013 75.241712 
L 112.573047 74.963535 
L 112.925081 75.457958 
L 113.101098 75.248205 
L 113.277115 74.832435 
L 113.453132 74.792391 
L 113.981184 75.627614 
L 114.157201 75.702851 
L 114.861269 73.751326 
L 115.213303 74.834688 
L 115.38932 74.828641 
L 115.565338 74.688028 
L 116.269406 71.905497 
L 116.445423 72.228372 
L 116.797457 73.554576 
L 117.149491 72.58202 
L 117.501526 71.345254 
L 117.85356 73.393767 
L 118.909662 72.492413 
L 119.437714 75.04213 
L 119.613731 74.762937 
L 120.141782 73.096605 
L 120.317799 73.096605 
L 120.493816 73.238859 
L 120.84585 74.061486 
L 121.197885 74.254116 
L 121.549919 72.497055 
L 121.901953 74.510271 
L 122.253987 74.640791 
L 122.606021 74.885557 
L 122.782038 74.69058 
L 122.958055 74.265639 
L 123.134073 74.284097 
L 123.486107 75.242799 
L 123.838141 75.150515 
L 124.190175 74.031056 
L 124.718226 74.587484 
L 124.894243 74.871808 
L 125.246278 74.44894 
L 125.598312 73.874394 
L 125.774329 73.924735 
L 125.950346 74.359119 
L 126.126363 74.489749 
L 126.654414 73.00138 
L 127.182466 71.497598 
L 127.5345 72.43705 
L 127.886534 70.634975 
L 128.062551 70.643143 
L 128.238568 70.806395 
L 128.766619 73.096605 
L 128.942637 73.096605 
L 129.294671 71.821613 
L 129.470688 72.447618 
L 129.822722 74.871484 
L 129.998739 74.730871 
L 130.174756 74.434165 
L 130.52679 73.474305 
L 130.878825 74.138002 
L 131.230859 76.11419 
L 131.582893 75.862443 
L 131.934927 74.590019 
L 132.110944 74.781435 
L 132.286961 75.484575 
L 132.462978 75.699548 
L 132.815013 74.963898 
L 133.167047 73.510303 
L 133.519081 74.631906 
L 133.871115 74.347585 
L 134.399166 73.292778 
L 134.575184 73.144198 
L 135.103235 74.614122 
L 135.455269 73.594371 
L 135.631286 73.299399 
L 135.807303 73.326224 
L 136.159337 74.580596 
L 136.511372 73.988599 
L 136.863406 72.813 
L 137.567474 73.683094 
L 138.095525 73.812279 
L 138.44756 74.175907 
L 138.623577 74.463371 
L 138.799594 74.476324 
L 139.151628 73.756443 
L 139.503662 74.065862 
L 139.855696 74.640791 
L 140.735782 73.300904 
L 140.911799 73.152323 
L 141.087816 73.555843 
L 141.263833 74.290622 
L 141.43985 74.185989 
L 141.791884 72.605048 
L 142.319936 71.412579 
L 142.847987 70.529631 
L 143.200021 70.75347 
L 143.728072 69.120028 
L 144.080107 68.614181 
L 144.256124 68.406098 
L 144.960192 65.97254 
L 145.312226 66.468351 
L 145.66426 64.470082 
L 145.840277 64.669836 
L 146.016295 64.619121 
L 146.192312 64.017371 
L 146.368329 64.134972 
L 147.072397 68.848264 
L 147.248414 68.327233 
L 147.424431 69.245314 
L 147.776465 72.407733 
L 148.1285 73.463995 
L 148.480534 74.469611 
L 148.656551 74.039982 
L 148.832568 74.049887 
L 149.184602 76.402283 
L 149.536636 76.135873 
L 149.888671 74.522863 
L 150.064688 74.986742 
L 150.240705 75.827486 
L 150.416722 75.868983 
L 150.768756 75.242799 
L 150.944773 75.242799 
L 151.12079 74.983819 
L 151.472824 73.559944 
L 151.824859 75.535169 
L 152.176893 75.259997 
L 152.528927 73.649076 
L 152.704944 74.3367 
L 152.880961 75.625997 
L 153.056978 75.881698 
L 153.585029 74.843641 
L 154.113081 74.124343 
L 154.465115 75.540543 
L 154.817149 75.540543 
L 155.169183 74.253522 
L 155.3452 74.513104 
L 155.521218 75.223981 
L 155.697235 75.464226 
L 156.049269 75.242799 
L 156.225286 75.242799 
L 156.401303 75.077399 
L 156.753337 73.809992 
L 157.105371 76.085191 
L 157.457406 76.129629 
L 157.80944 74.161383 
L 157.985457 74.153477 
L 158.337491 75.242799 
L 158.513508 75.242799 
L 158.689525 75.011239 
L 159.041559 73.795777 
L 159.393594 74.693662 
L 159.745628 76.627245 
L 160.273679 75.140637 
L 160.449696 74.584246 
L 160.625713 74.802829 
L 160.977747 76.015612 
L 161.329782 75.371485 
L 161.681816 74.063494 
L 162.209867 75.07594 
L 162.385884 75.215535 
L 162.913935 73.505652 
L 163.089952 73.653136 
L 163.618004 74.763617 
L 164.322072 72.912715 
L 164.674106 74.65617 
L 165.02614 75.218631 
L 165.378175 72.774991 
L 165.554192 73.14346 
L 165.906226 74.527509 
L 166.082243 74.811834 
L 166.25826 74.636336 
L 166.434277 74.067656 
L 166.610294 74.056805 
L 166.962329 75.540543 
L 167.314363 75.464195 
L 168.018431 72.595258 
L 168.546482 76.030749 
L 169.074534 75.624545 
L 169.250551 75.273323 
L 169.426568 74.575277 
L 169.602585 74.364786 
L 169.954619 77.29483 
L 170.48267 77.566043 
L 170.658687 77.566043 
L 171.186739 78.34879 
L 171.538773 78.126546 
L 171.890807 78.126546 
L 172.418858 76.516073 
L 172.770893 76.129629 
L 172.94691 76.129629 
L 173.122927 75.783442 
L 173.826995 72.445869 
L 174.179029 71.828942 
L 174.531063 68.947573 
L 174.707081 68.799428 
L 174.883098 68.799428 
L 175.235132 66.773753 
L 175.411149 66.832252 
L 175.587166 67.017985 
L 175.9392 65.199541 
L 176.291234 64.743963 
L 176.643269 63.054665 
L 177.347337 68.326198 
L 177.699371 67.809462 
L 177.875388 67.988674 
L 178.051405 69.123794 
L 178.40344 73.69956 
L 178.755474 74.902243 
L 179.107508 74.719318 
L 179.635559 76.762134 
L 179.811576 77.688123 
L 179.987593 77.847278 
L 180.16361 77.847278 
L 180.515645 77.029472 
L 180.691662 77.139771 
L 181.043696 79.245751 
L 181.39573 79.483864 
L 181.747764 77.150374 
L 181.923781 77.204528 
L 182.275816 78.34879 
L 182.451833 78.225106 
L 182.62785 77.945008 
L 182.979884 76.157558 
L 183.331918 76.392817 
L 183.683952 77.125849 
L 183.859969 77.048336 
L 184.916072 74.618248 
L 185.268106 73.175505 
L 185.62014 73.37856 
L 185.972174 74.453896 
L 186.148192 74.446831 
L 186.324209 74.161465 
L 186.500226 74.18489 
L 186.676243 74.472355 
L 186.85226 75.041103 
L 187.204294 76.52754 
L 187.908362 73.776251 
L 188.436414 75.242799 
L 188.788448 75.332338 
L 188.964465 75.470422 
L 189.140482 75.196974 
L 189.316499 74.498928 
L 189.492516 74.263186 
L 189.84455 75.540543 
L 190.196585 75.535169 
L 190.548619 75.259997 
L 191.428704 75.76065 
L 191.604721 75.624545 
L 191.780739 75.273323 
L 192.132773 74.215863 
L 192.484807 75.823386 
L 192.836841 75.551176 
L 193.188875 74.47123 
L 193.364892 74.764297 
L 193.892944 76.201692 
L 194.068961 76.359616 
L 194.420995 76.055729 
L 194.773029 75.616021 
L 195.125063 77.226212 
L 195.477097 76.530644 
L 195.829132 75.495274 
L 196.005149 75.745413 
L 196.357183 77.185719 
L 196.709217 76.555665 
L 197.061251 74.67025 
L 197.413285 76.278078 
L 197.76532 76.421016 
L 198.117354 75.982363 
L 198.469388 75.439158 
L 198.645405 75.434216 
L 198.997439 76.660553 
L 199.701508 75.308964 
L 200.229559 75.671801 
L 200.581593 75.062192 
L 200.933627 74.375493 
L 201.285661 74.600661 
L 201.813713 73.590718 
L 202.341764 72.245118 
L 202.517781 72.379913 
L 202.869815 72.780854 
L 203.045832 72.780854 
L 203.22185 72.126352 
L 203.397867 71.038349 
L 203.573884 71.226856 
L 203.925918 73.340371 
L 204.101935 73.19179 
L 204.277952 72.822542 
L 204.453969 72.05993 
L 204.629986 71.887286 
L 204.98202 74.528494 
L 205.334055 73.418083 
L 205.686089 73.713052 
L 206.390157 77.012359 
L 206.566174 77.28282 
L 206.742191 77.28282 
L 206.918208 77.512576 
L 207.44626 78.707954 
L 207.622277 78.952754 
L 208.150328 79.042036 
L 208.502362 79.224358 
L 208.854396 79.301956 
L 209.206431 80.011419 
L 209.558465 78.642228 
L 209.734482 78.726757 
L 210.086516 79.39364 
L 210.43855 78.880076 
L 210.790584 77.90083 
L 211.142619 79.016588 
L 211.318636 78.7383 
L 212.022704 75.811689 
L 212.374738 75.54161 
L 212.726772 75.814802 
L 213.078807 74.040654 
L 213.254824 74.204013 
L 213.254824 74.204013 
" style="fill:none;stroke:#1f77b4;stroke-linecap:square;stroke-width:1.5;"/>
   </g>
   <g id="line2d_11">
    <path clip-path="url(#pb27ac8f06e)" d="M 54.487407 94.863276 
L 54.663424 95.444488 
L 54.839441 95.014551 
L 55.191475 93.586081 
L 55.543509 93.964055 
L 55.895543 92.500163 
L 56.247577 92.150443 
L 56.423595 92.651419 
L 56.599612 93.52957 
L 56.775629 93.637151 
L 57.30368 91.057819 
L 57.479697 90.396465 
L 57.831731 90.889836 
L 58.183766 89.979574 
L 58.711817 87.804098 
L 59.063851 88.540871 
L 59.415885 88.433313 
L 59.767919 87.581616 
L 60.119954 87.301344 
L 60.471988 88.50788 
L 60.824022 88.255027 
L 61.176056 86.851152 
L 61.352073 86.862438 
L 61.704107 87.576965 
L 61.880124 88.031091 
L 62.056142 87.805581 
L 62.232159 87.051464 
L 62.408176 86.987213 
L 62.76021 88.229772 
L 62.936227 88.229772 
L 63.112244 88.349869 
L 63.464278 89.360933 
L 63.816312 91.817343 
L 64.520381 91.817343 
L 65.048432 93.065982 
L 65.400466 92.408573 
L 65.928518 92.907244 
L 66.104535 93.157221 
L 66.632586 92.228231 
L 66.98462 92.595732 
L 67.336654 92.123444 
L 68.040723 93.402389 
L 68.21674 92.887409 
L 68.392757 91.883743 
L 68.568774 91.566524 
L 68.920808 93.093803 
L 69.448859 91.159877 
L 69.624877 90.761672 
L 69.800894 91.048618 
L 69.976911 91.583384 
L 70.152928 91.595736 
L 70.504962 90.603196 
L 70.856996 88.849683 
L 71.20903 88.825664 
L 71.737082 87.776678 
L 72.265133 87.32285 
L 72.617167 88.070118 
L 72.793184 87.840044 
L 73.145218 86.793815 
L 73.321235 86.481851 
L 73.497253 86.601291 
L 73.849287 87.720337 
L 74.201321 88.184501 
L 74.377338 88.03592 
L 74.553355 88.143491 
L 74.905389 90.347399 
L 75.257423 90.072227 
L 75.609458 90.593555 
L 75.961492 90.171404 
L 76.137509 90.471972 
L 76.489543 91.530082 
L 77.193611 91.515617 
L 77.721663 90.833672 
L 77.89768 90.699028 
L 78.425731 89.762643 
L 78.777765 89.71211 
L 79.129799 89.40035 
L 79.481834 88.869895 
L 80.185902 90.007625 
L 80.537936 88.528595 
L 80.713953 88.608121 
L 80.88997 89.191598 
L 81.065987 88.992166 
L 81.242005 88.123291 
L 81.418022 87.896641 
L 81.770056 88.979108 
L 82.298107 87.562902 
L 82.474124 87.314422 
L 82.826158 88.222676 
L 83.178193 86.733321 
L 83.530227 87.795859 
L 84.058278 86.534694 
L 84.234295 86.849022 
L 84.410312 86.862434 
L 84.586329 86.707041 
L 85.114381 85.387426 
L 85.290398 86.200668 
L 85.466415 86.345959 
L 85.818449 85.258341 
L 85.994466 85.093832 
L 86.170483 85.328956 
L 86.522517 86.709297 
L 86.874552 85.478962 
L 87.226586 86.574966 
L 87.57862 86.090211 
L 87.930654 87.564729 
L 88.282688 86.646232 
L 88.634722 87.255783 
L 89.338791 85.395734 
L 89.690825 87.303856 
L 89.866842 86.801606 
L 90.218876 85.111012 
L 90.394893 84.780725 
L 90.57091 84.948313 
L 90.746928 85.445664 
L 90.922945 85.080345 
L 91.098962 84.08551 
L 91.274979 83.892761 
L 91.450996 84.407733 
L 91.627013 84.559688 
L 91.80303 84.391334 
L 92.331081 83.270482 
L 92.507098 83.270482 
L 92.683116 83.530997 
L 92.859133 84.052028 
L 93.03515 83.958421 
L 93.563201 81.840789 
L 93.739218 81.765853 
L 93.915235 82.318646 
L 94.091252 82.1592 
L 94.443287 81.009914 
L 94.619304 80.820421 
L 94.795321 81.109154 
L 94.971338 81.675376 
L 95.147355 81.327136 
L 95.323372 80.578178 
L 95.499389 80.660942 
L 96.02744 81.795239 
L 96.555492 81.119464 
L 96.731509 81.119464 
L 97.083543 81.483674 
L 97.435577 81.119464 
L 97.787611 81.140024 
L 98.139645 81.392241 
L 98.49168 80.379236 
L 98.843714 80.433397 
L 99.195748 80.683414 
L 99.371765 80.491617 
L 99.547782 80.616534 
L 99.723799 81.189633 
L 99.899816 81.117966 
L 100.075833 80.359935 
L 100.251851 80.108163 
L 100.427868 80.303092 
L 100.603885 80.021416 
L 101.131936 78.566771 
L 101.48397 79.55553 
L 102.188039 77.740069 
L 102.540073 78.820807 
L 102.892107 78.348811 
L 103.068124 77.93421 
L 103.244141 77.864381 
L 103.596175 78.475135 
L 103.772192 78.475135 
L 104.124227 77.096761 
L 104.300244 77.538561 
L 104.476261 78.388784 
L 104.828295 78.086453 
L 105.180329 78.601026 
L 105.532363 80.379236 
L 105.70838 80.379236 
L 105.884398 80.496114 
L 106.236432 81.398085 
L 106.412449 82.141075 
L 106.588466 82.3301 
L 106.9405 81.569297 
L 107.468551 82.123183 
L 107.644568 82.109238 
L 107.820586 81.926442 
L 107.996603 82.159423 
L 108.348637 83.02696 
L 108.524654 83.204067 
L 108.700671 82.82418 
L 108.876688 82.110098 
L 109.052705 82.751879 
L 109.404739 84.983283 
L 109.932791 86.18556 
L 110.108808 86.121708 
L 110.284825 85.802581 
L 110.460842 86.577437 
L 110.812876 89.08549 
L 111.16491 88.901526 
L 111.340927 89.045785 
L 111.516944 88.985285 
L 111.868979 87.720031 
L 112.221013 90.061466 
L 112.573047 89.783289 
L 112.925081 90.277712 
L 113.101098 90.067959 
L 113.277115 89.652189 
L 113.453132 89.612145 
L 113.981184 90.447368 
L 114.157201 90.522604 
L 114.861269 88.571079 
L 115.213303 89.654442 
L 115.38932 89.648395 
L 115.565338 89.507782 
L 116.269406 86.725251 
L 116.445423 87.048126 
L 116.797457 88.37433 
L 117.149491 87.401774 
L 117.501526 86.165008 
L 117.85356 88.213521 
L 118.909662 87.312167 
L 119.437714 89.861884 
L 119.613731 89.582691 
L 120.141782 87.916359 
L 120.317799 87.916359 
L 120.493816 88.058613 
L 120.84585 88.88124 
L 121.197885 89.07387 
L 121.549919 87.316809 
L 121.901953 89.330025 
L 122.253987 89.460545 
L 122.606021 89.705311 
L 122.782038 89.510334 
L 122.958055 89.085393 
L 123.134073 89.103851 
L 123.486107 90.062553 
L 123.838141 89.970269 
L 124.190175 88.85081 
L 124.718226 89.407238 
L 124.894243 89.691562 
L 125.246278 89.268694 
L 125.598312 88.694148 
L 125.774329 88.744489 
L 125.950346 89.178873 
L 126.126363 89.309503 
L 126.654414 87.821134 
L 127.182466 86.317352 
L 127.5345 87.256804 
L 127.886534 85.454729 
L 128.062551 85.462897 
L 128.238568 85.626149 
L 128.766619 87.916359 
L 128.942637 87.916359 
L 129.294671 86.641367 
L 129.470688 87.267372 
L 129.822722 89.691238 
L 129.998739 89.550625 
L 130.174756 89.253919 
L 130.52679 88.294059 
L 130.878825 88.957756 
L 131.230859 90.933944 
L 131.582893 90.682197 
L 131.934927 89.409773 
L 132.110944 89.601189 
L 132.286961 90.304329 
L 132.462978 90.519302 
L 132.815013 89.783652 
L 133.167047 88.330057 
L 133.519081 89.45166 
L 133.871115 89.167339 
L 134.399166 88.112532 
L 134.575184 87.963952 
L 135.103235 89.433876 
L 135.455269 88.414125 
L 135.631286 88.119153 
L 135.807303 88.145978 
L 136.159337 89.40035 
L 136.511372 88.808353 
L 136.863406 87.632753 
L 137.567474 88.502848 
L 138.095525 88.632033 
L 138.44756 88.995661 
L 138.623577 89.283125 
L 138.799594 89.296077 
L 139.151628 88.576197 
L 139.503662 88.885616 
L 139.855696 89.460545 
L 140.735782 88.120658 
L 140.911799 87.972077 
L 141.087816 88.375597 
L 141.263833 89.110376 
L 141.43985 89.005743 
L 141.791884 87.424802 
L 142.319936 86.232333 
L 142.847987 85.349385 
L 143.200021 85.573224 
L 143.728072 83.939782 
L 144.080107 83.433935 
L 144.256124 83.225852 
L 144.960192 80.792294 
L 145.312226 81.288105 
L 145.66426 79.289836 
L 145.840277 79.48959 
L 146.016295 79.438875 
L 146.192312 78.837125 
L 146.368329 78.954726 
L 147.072397 83.668018 
L 147.248414 83.146987 
L 147.424431 84.065068 
L 147.776465 87.227486 
L 148.1285 88.283749 
L 148.480534 89.289365 
L 148.656551 88.859736 
L 148.832568 88.869641 
L 149.184602 91.222037 
L 149.536636 90.955627 
L 149.888671 89.342617 
L 150.064688 89.806496 
L 150.240705 90.64724 
L 150.416722 90.688737 
L 150.768756 90.062553 
L 150.944773 90.062553 
L 151.12079 89.803573 
L 151.472824 88.379698 
L 151.824859 90.354923 
L 152.176893 90.079751 
L 152.528927 88.46883 
L 152.704944 89.156454 
L 152.880961 90.445751 
L 153.056978 90.701452 
L 153.585029 89.663395 
L 154.113081 88.944097 
L 154.465115 90.360297 
L 154.817149 90.360297 
L 155.169183 89.073276 
L 155.3452 89.332857 
L 155.521218 90.043735 
L 155.697235 90.28398 
L 156.049269 90.062553 
L 156.225286 90.062553 
L 156.401303 89.897153 
L 156.753337 88.629746 
L 157.105371 90.904945 
L 157.457406 90.949383 
L 157.80944 88.981137 
L 157.985457 88.973231 
L 158.337491 90.062553 
L 158.513508 90.062553 
L 158.689525 89.830993 
L 159.041559 88.615531 
L 159.393594 89.513416 
L 159.745628 91.446999 
L 160.273679 89.960391 
L 160.449696 89.404 
L 160.625713 89.622583 
L 160.977747 90.835366 
L 161.329782 90.191239 
L 161.681816 88.883248 
L 162.209867 89.895694 
L 162.385884 90.035289 
L 162.913935 88.325406 
L 163.089952 88.47289 
L 163.618004 89.583371 
L 164.322072 87.732469 
L 164.674106 89.475924 
L 165.02614 90.038385 
L 165.378175 87.594745 
L 165.554192 87.963214 
L 165.906226 89.347263 
L 166.082243 89.631588 
L 166.25826 89.45609 
L 166.434277 88.88741 
L 166.610294 88.876559 
L 166.962329 90.360297 
L 167.314363 90.283949 
L 168.018431 87.415012 
L 168.546482 90.850503 
L 169.074534 90.444299 
L 169.250551 90.093077 
L 169.426568 89.395031 
L 169.602585 89.18454 
L 169.954619 92.114584 
L 170.48267 92.385797 
L 170.658687 92.385797 
L 171.186739 93.168544 
L 171.538773 92.9463 
L 171.890807 92.9463 
L 172.418858 91.335827 
L 172.770893 90.949383 
L 172.94691 90.949383 
L 173.122927 90.603196 
L 173.826995 87.265623 
L 174.179029 86.648696 
L 174.531063 83.767327 
L 174.707081 83.619182 
L 174.883098 83.619182 
L 175.235132 81.593507 
L 175.411149 81.652006 
L 175.587166 81.837739 
L 175.9392 80.019295 
L 176.291234 79.563717 
L 176.643269 77.874419 
L 177.347337 83.145952 
L 177.699371 82.629216 
L 177.875388 82.808428 
L 178.051405 83.943548 
L 178.40344 88.519314 
L 178.755474 89.721997 
L 179.107508 89.539072 
L 179.635559 91.581888 
L 179.811576 92.507877 
L 179.987593 92.667032 
L 180.16361 92.667032 
L 180.515645 91.849226 
L 180.691662 91.959525 
L 181.043696 94.065505 
L 181.39573 94.303618 
L 181.747764 91.970128 
L 181.923781 92.024282 
L 182.275816 93.168544 
L 182.451833 93.04486 
L 182.62785 92.764762 
L 182.979884 90.977312 
L 183.331918 91.212571 
L 183.683952 91.945603 
L 183.859969 91.86809 
L 184.916072 89.438002 
L 185.268106 87.995259 
L 185.62014 88.198314 
L 185.972174 89.273649 
L 186.148192 89.266585 
L 186.324209 88.981219 
L 186.500226 89.004644 
L 186.676243 89.292109 
L 186.85226 89.860857 
L 187.204294 91.347294 
L 187.908362 88.596005 
L 188.436414 90.062553 
L 188.788448 90.152092 
L 188.964465 90.290176 
L 189.140482 90.016728 
L 189.316499 89.318682 
L 189.492516 89.08294 
L 189.84455 90.360297 
L 190.196585 90.354923 
L 190.548619 90.079751 
L 191.428704 90.580404 
L 191.604721 90.444299 
L 191.780739 90.093077 
L 192.132773 89.035617 
L 192.484807 90.64314 
L 192.836841 90.37093 
L 193.188875 89.290984 
L 193.364892 89.58405 
L 193.892944 91.021446 
L 194.068961 91.17937 
L 194.420995 90.875483 
L 194.773029 90.435775 
L 195.125063 92.045966 
L 195.477097 91.350398 
L 195.829132 90.315028 
L 196.005149 90.565167 
L 196.357183 92.005473 
L 196.709217 91.375419 
L 197.061251 89.490004 
L 197.413285 91.097832 
L 197.76532 91.240769 
L 198.117354 90.802117 
L 198.469388 90.258912 
L 198.645405 90.25397 
L 198.997439 91.480307 
L 199.701508 90.128718 
L 200.229559 90.491555 
L 200.581593 89.881946 
L 200.933627 89.195247 
L 201.285661 89.420415 
L 201.813713 88.410472 
L 202.341764 87.064871 
L 202.517781 87.199667 
L 202.869815 87.600608 
L 203.045832 87.600608 
L 203.22185 86.946106 
L 203.397867 85.858103 
L 203.573884 86.04661 
L 203.925918 88.160125 
L 204.101935 88.011544 
L 204.277952 87.642296 
L 204.453969 86.879684 
L 204.629986 86.70704 
L 204.98202 89.348248 
L 205.334055 88.237837 
L 205.686089 88.532806 
L 206.390157 91.832113 
L 206.566174 92.102574 
L 206.742191 92.102574 
L 206.918208 92.33233 
L 207.44626 93.527708 
L 207.622277 93.772508 
L 208.150328 93.86179 
L 208.502362 94.044112 
L 208.854396 94.12171 
L 209.206431 94.831173 
L 209.558465 93.461982 
L 209.734482 93.546511 
L 210.086516 94.213394 
L 210.43855 93.69983 
L 210.790584 92.720584 
L 211.142619 93.836342 
L 211.318636 93.558054 
L 212.022704 90.631443 
L 212.374738 90.361364 
L 212.726772 90.634556 
L 213.078807 88.860408 
L 213.254824 89.023767 
L 213.254824 89.023767 
" style="fill:none;stroke:#ff7f0e;stroke-linecap:square;stroke-width:1.5;"/>
   </g>
   <g id="line2d_12">
    <path clip-path="url(#pb27ac8f06e)" d="M 54.487407 87.171862 
L 54.663424 87.171862 
L 55.191475 86.385832 
L 55.543509 88.1375 
L 56.07156 84.588868 
L 56.247577 84.0728 
L 56.423595 84.379324 
L 56.775629 85.919065 
L 57.127663 84.877755 
L 57.479697 82.783563 
L 57.831731 83.677212 
L 58.007748 83.443764 
L 58.183766 82.905151 
L 58.711817 79.364896 
L 59.063851 81.439806 
L 59.415885 81.329594 
L 60.119954 78.923013 
L 60.471988 81.324533 
L 60.824022 81.439806 
L 61.176056 79.314041 
L 61.352073 79.313282 
L 61.704107 80.190731 
L 61.880124 80.190731 
L 62.056142 79.883406 
L 62.232159 79.268755 
L 62.408176 79.157291 
L 63.112244 81.439806 
L 63.288261 81.439806 
L 63.464278 81.713296 
L 63.816312 86.089141 
L 64.520381 84.0728 
L 64.696398 84.642271 
L 64.872415 86.169571 
L 65.048432 86.668429 
L 65.400466 83.895414 
L 65.7525 85.960098 
L 66.280552 84.97592 
L 66.456569 84.97592 
L 66.632586 85.179749 
L 66.98462 85.996372 
L 67.336654 85.006843 
L 67.688688 84.97592 
L 68.040723 85.838274 
L 68.21674 85.325482 
L 68.568774 83.051107 
L 68.920808 86.042757 
L 69.272842 85.053227 
L 69.624877 82.037459 
L 69.800894 82.47984 
L 69.976911 84.143893 
L 70.152928 84.717885 
L 70.504962 83.362872 
L 70.856996 80.24666 
L 71.20903 81.439806 
L 71.561065 80.264206 
L 71.913099 80.190731 
L 72.265133 79.095884 
L 72.44115 79.332781 
L 72.969201 81.160162 
L 73.145218 80.474175 
L 73.321235 78.656517 
L 73.497253 78.592361 
L 73.849287 82.224512 
L 74.377338 79.441625 
L 74.553355 79.202417 
L 74.905389 83.797229 
L 75.257423 82.720003 
L 75.609458 82.652676 
L 75.961492 82.652676 
L 76.137509 83.25874 
L 76.313526 84.336186 
L 76.489543 83.112339 
L 76.841577 76.452294 
L 77.193611 91.420745 
L 77.545646 84.579188 
L 77.89768 82.871488 
L 78.073697 82.652676 
L 78.249714 82.652676 
L 78.425731 82.406586 
L 78.601748 81.844096 
L 78.777765 81.756273 
L 79.129799 83.570881 
L 79.481834 80.242733 
L 79.833868 73.749907 
L 80.185902 90.644731 
L 80.713953 79.557018 
L 80.88997 80.786594 
L 81.065987 81.164275 
L 81.242005 80.576475 
L 81.418022 80.395803 
L 81.770056 81.439806 
L 82.12209 81.366331 
L 82.474124 80.190731 
L 82.826158 81.383877 
L 83.178193 77.974895 
L 83.35421 79.062868 
L 83.530227 80.964419 
L 83.706244 80.998956 
L 83.882261 80.411156 
L 84.234295 78.162383 
L 84.410312 78.2608 
L 84.586329 79.547421 
L 84.762346 79.566624 
L 85.114381 77.842587 
L 85.290398 78.495644 
L 85.466415 78.662619 
L 85.818449 77.577282 
L 85.994466 77.577282 
L 86.170483 77.939144 
L 86.522517 79.878678 
L 86.874552 77.679322 
L 87.226586 78.82341 
L 87.57862 77.696129 
L 87.930654 81.402512 
L 88.282688 79.015688 
L 88.81074 80.190731 
L 88.986757 80.190731 
L 89.338791 76.862972 
L 89.514808 77.925563 
L 89.690825 80.540814 
L 89.866842 79.824504 
L 90.218876 76.209305 
L 90.394893 76.209305 
L 90.57091 76.925031 
L 90.746928 78.272282 
L 90.922945 78.209767 
L 91.274979 76.209305 
L 91.450996 76.209305 
L 91.627013 76.840828 
L 91.80303 78.188079 
L 91.979047 77.970645 
L 92.331081 74.7979 
L 92.507098 74.7979 
L 92.683116 75.710323 
L 92.859133 77.795863 
L 93.03515 77.970645 
L 93.387184 74.497262 
L 93.563201 73.757232 
L 93.739218 73.66995 
L 94.091252 74.7979 
L 94.267269 74.7979 
L 94.443287 73.998728 
L 94.619304 72.494404 
L 94.795321 72.710188 
L 94.971338 74.263834 
L 95.147355 73.292401 
L 95.323372 70.998307 
L 95.499389 71.937452 
L 95.851423 75.380384 
L 96.02744 76.097288 
L 96.379475 72.177907 
L 96.731509 78.672083 
L 97.083543 73.678107 
L 97.435577 65.549211 
L 97.787611 47.225547 
L 97.963628 84.412412 
L 98.139645 88.757689 
L 98.49168 73.044879 
L 98.843714 70.281403 
L 99.019731 70.281403 
L 99.195748 80.358836 
L 99.371765 107.23199 
L 99.547782 115.282156 
L 100.075833 82.963693 
L 100.251851 87.155461 
L 100.427868 106.31182 
L 100.603885 109.924642 
L 101.131936 67.915083 
L 101.307953 72.086545 
L 101.48397 80.088496 
L 102.188039 68.673837 
L 102.540073 111.139494 
L 103.068124 125.17003 
L 103.772192 88.320456 
L 103.966067 -1 
M 104.363291 -1 
L 104.476261 83.460431 
L 104.828295 67.010837 
L 105.004312 67.010837 
L 105.081905 -1 
M 105.563575 -1 
L 105.70838 47.111158 
L 105.884398 61.70071 
L 106.077857 -1 
M 106.376427 -1 
L 106.588466 73.140331 
L 106.764483 61.308463 
L 106.9405 59.822184 
L 107.116517 78.086578 
L 107.292534 80.411503 
L 107.468551 77.423273 
L 107.644568 76.615423 
L 107.820586 77.299412 
L 107.996603 75.899138 
L 108.17262 73.07279 
L 108.348637 73.126668 
L 108.524654 75.420723 
L 108.700671 74.264212 
L 108.876688 71.300261 
L 109.052705 74.186844 
L 109.228722 80.137992 
L 109.404739 80.019761 
L 109.580756 78.202102 
L 109.756774 77.577282 
L 109.932791 77.577282 
L 110.460842 80.190731 
L 110.636859 80.190731 
L 110.812876 80.778658 
L 111.16491 82.874659 
L 111.340927 83.421078 
L 111.516944 83.414874 
L 111.868979 80.264222 
L 112.39703 83.18202 
L 112.573047 83.728439 
L 113.101098 82.652676 
L 114.157201 82.564787 
L 114.509235 81.439806 
L 114.861269 82.581331 
L 115.213303 81.598007 
L 115.565338 80.429525 
L 115.741355 80.544946 
L 115.917372 81.14152 
L 116.093389 81.145906 
L 116.445423 79.722651 
L 116.62144 78.474436 
L 116.797457 78.280029 
L 117.149491 82.064225 
L 117.501526 77.697903 
L 118.029577 80.82459 
L 118.205594 81.421163 
L 118.909662 79.057468 
L 119.437714 82.652676 
L 119.613731 82.652676 
L 119.789748 82.04611 
L 120.141782 80.190731 
L 120.669833 80.190731 
L 120.84585 80.411204 
L 121.197885 82.545635 
L 121.549919 80.262092 
L 121.901953 82.468949 
L 122.07797 82.178075 
L 122.253987 81.615584 
L 122.430004 82.213393 
L 122.606021 83.33861 
L 122.782038 82.894851 
L 122.958055 81.230777 
L 123.134073 80.631677 
L 123.486107 82.652676 
L 123.838141 82.582365 
L 124.190175 81.457384 
L 124.894243 81.439806 
L 125.246278 83.373773 
L 125.422295 83.181883 
L 125.774329 81.439806 
L 126.30238 81.439806 
L 126.478397 81.155797 
L 126.830431 77.617489 
L 127.182466 80.190731 
L 127.5345 78.961429 
L 128.062551 78.903805 
L 128.238568 78.903805 
L 128.766619 80.619518 
L 128.942637 81.216091 
L 129.118654 80.30377 
L 129.294671 78.486111 
L 129.470688 78.528057 
L 129.822722 81.707351 
L 129.998739 82.278113 
L 130.174756 82.260192 
L 130.52679 80.411204 
L 131.054842 83.250322 
L 131.230859 83.796741 
L 131.934927 81.668318 
L 132.110944 55.133461 
L 132.286961 10.828037 
L 132.462978 0.453062 
L 132.815013 81.439806 
L 133.167047 81.528988 
L 133.519081 82.652676 
L 133.871115 82.652676 
L 134.399166 80.190731 
L 134.575184 80.190731 
L 135.279252 81.439806 
L 135.631286 81.439806 
L 135.807303 81.274487 
L 136.159337 80.374458 
L 136.511372 82.544013 
L 136.863406 79.0668 
L 137.21544 82.368671 
L 137.391457 82.178075 
L 137.567474 81.615584 
L 137.743491 81.439806 
L 138.271542 81.439806 
L 138.44756 81.689515 
L 138.623577 82.260277 
L 138.799594 82.295872 
L 139.151628 80.283946 
L 139.503662 81.439806 
L 140.559765 81.439806 
L 140.911799 80.447894 
L 141.087816 80.852149 
L 141.263833 82.028003 
L 141.43985 82.117471 
L 142.143919 77.720138 
L 142.495953 78.658851 
L 142.847987 76.294803 
L 143.376038 78.311972 
L 143.552055 78.284973 
L 143.904089 64.916816 
L 144.080107 52.99137 
L 144.256124 53.522897 
L 144.432141 91.425341 
L 144.608158 92.137324 
L 144.960192 73.340965 
L 145.136209 73.340965 
L 145.312226 73.143574 
L 145.66426 70.587359 
L 146.016295 73.098271 
L 146.192312 72.321651 
L 146.368329 72.13227 
L 146.720363 74.034918 
L 146.89638 75.515352 
L 147.072397 75.8344 
L 147.248414 75.128698 
L 147.424431 75.547892 
L 148.480534 83.154863 
L 148.832568 80.690676 
L 149.184602 84.911411 
L 149.536636 83.879274 
L 149.888671 81.747232 
L 150.064688 82.248556 
L 150.240705 83.373773 
L 150.416722 83.511091 
L 150.768756 82.652676 
L 150.944773 82.652676 
L 151.12079 82.512053 
L 151.472824 81.493315 
L 151.824859 82.63484 
L 152.176893 82.652676 
L 152.528927 80.583215 
L 152.704944 81.331677 
L 152.880961 83.070262 
L 153.056978 83.216042 
L 153.409012 81.653842 
L 153.761047 82.512053 
L 154.113081 81.545295 
L 154.465115 83.795729 
L 154.817149 82.770498 
L 155.169183 80.618896 
L 155.3452 80.92564 
L 155.697235 82.652676 
L 155.873252 82.652676 
L 156.049269 82.857583 
L 156.401303 83.591784 
L 156.753337 81.457642 
L 157.457406 83.694288 
L 157.985457 80.852149 
L 158.337491 82.90881 
L 158.513508 83.455229 
L 158.689525 83.310869 
L 159.041559 80.337713 
L 159.569611 83.216171 
L 159.745628 83.76259 
L 160.097662 83.830892 
L 160.625713 82.002415 
L 160.977747 83.830892 
L 161.153764 83.830892 
L 161.329782 83.518879 
L 161.681816 80.190731 
L 162.03385 82.54244 
L 162.385884 82.652676 
L 162.737918 79.610114 
L 162.913935 79.983026 
L 163.26597 82.652676 
L 163.441987 82.652676 
L 163.618004 82.441742 
L 164.322072 80.300968 
L 164.674106 82.652676 
L 165.378175 80.35605 
L 165.554192 80.619518 
L 166.082243 82.367295 
L 166.25826 81.783373 
L 166.434277 80.044766 
L 166.610294 79.915825 
L 166.962329 84.681424 
L 167.49038 82.05503 
L 168.018431 80.319312 
L 168.546482 83.830892 
L 168.722499 83.830892 
L 168.898517 83.561586 
L 169.250551 82.295872 
L 169.602585 80.630911 
L 169.954619 86.026412 
L 170.306653 84.01908 
L 170.48267 84.256188 
L 171.010722 85.791237 
L 171.186739 85.681401 
L 171.538773 83.992196 
L 171.890807 86.05688 
L 172.242841 84.113174 
L 172.418858 84.207116 
L 172.594875 84.730557 
L 172.770893 84.41965 
L 173.122927 82.823432 
L 173.474961 83.570881 
L 174.003012 77.69554 
L 174.531063 70.496474 
L 174.883098 83.614363 
L 175.235132 69.756483 
L 175.587166 78.903805 
L 175.9392 72.050431 
L 176.115217 71.836263 
L 176.643269 71.934932 
L 176.995303 73.171079 
L 177.17132 72.394459 
L 177.347337 72.683298 
L 177.699371 77.324732 
L 177.875388 76.651267 
L 178.051405 76.893612 
L 178.579457 81.770785 
L 178.755474 82.512053 
L 179.107508 81.545295 
L 179.459542 83.795729 
L 179.811576 82.770498 
L 180.16361 86.385917 
L 180.339628 86.256528 
L 180.691662 83.830892 
L 180.867679 83.830892 
L 181.043696 84.14478 
L 181.39573 88.162544 
L 181.747764 83.481042 
L 181.923781 84.348699 
L 182.099798 86.933114 
L 182.275816 87.522748 
L 182.62785 84.879157 
L 182.979884 83.84702 
L 183.331918 84.861417 
L 183.683952 84.97592 
L 184.035986 84.97592 
L 184.212004 84.234553 
L 184.564038 80.408054 
L 184.916072 83.741555 
L 185.268106 78.023968 
L 185.796157 82.652676 
L 185.972174 82.652676 
L 186.500226 81.439806 
L 186.676243 81.439806 
L 186.85226 82.063826 
L 187.204294 84.714146 
L 187.556328 82.559294 
L 187.908362 76.582834 
L 188.260397 84.428006 
L 188.436414 83.581396 
L 188.612431 81.987655 
L 188.788448 82.531841 
L 188.964465 84.195895 
L 189.140482 83.204415 
L 189.316499 79.869818 
L 189.492516 78.886799 
L 189.84455 85.80686 
L 190.372602 83.275448 
L 190.548619 82.736834 
L 190.900653 82.652676 
L 191.428704 83.544754 
L 192.132773 81.650784 
L 192.484807 83.797229 
L 192.836841 82.720003 
L 193.188875 82.652676 
L 193.892944 82.652676 
L 194.068961 82.874659 
L 194.420995 83.696239 
L 194.773029 82.720016 
L 195.125063 84.874909 
L 195.477097 83.992164 
L 195.829132 82.921983 
L 196.005149 83.191399 
L 196.357183 84.798521 
L 196.709217 83.694259 
L 197.061251 81.508123 
L 197.589303 84.256188 
L 197.76532 84.779629 
L 197.941337 84.653377 
L 198.645405 82.772205 
L 198.997439 83.797229 
L 199.349473 82.720003 
L 199.701508 82.652676 
L 200.053542 83.591834 
L 200.229559 83.527923 
L 200.581593 82.224512 
L 200.933627 80.447949 
L 201.285661 82.582365 
L 201.98973 80.282575 
L 202.341764 81.290663 
L 202.693798 74.770172 
L 202.869815 76.724813 
L 203.045832 82.138969 
L 203.22185 82.282379 
L 203.397867 80.029997 
L 203.573884 79.518594 
L 203.925918 81.439806 
L 204.101935 81.439806 
L 204.277952 80.871788 
L 204.629986 77.933823 
L 204.98202 81.347962 
L 205.334055 80.209374 
L 205.686089 81.40252 
L 206.038123 81.439806 
L 206.390157 85.405415 
L 206.566174 85.39912 
L 206.742191 84.395455 
L 206.918208 84.499086 
L 207.270243 86.931211 
L 207.622277 85.006001 
L 207.974311 87.859192 
L 208.150328 86.800101 
L 208.326345 84.899808 
L 208.502362 84.499086 
L 208.854396 87.28731 
L 209.206431 88.210891 
L 209.558465 86.406681 
L 209.734482 86.404935 
L 210.086516 87.171862 
L 210.43855 87.112535 
L 210.790584 86.1633 
L 211.142619 86.089141 
L 211.494653 85.300609 
L 211.846687 83.568885 
L 212.022704 82.720978 
L 212.374738 83.813817 
L 212.726772 82.770498 
L 213.078807 80.618896 
L 213.254824 81.277346 
L 213.254824 81.277346 
" style="fill:none;stroke:#2ca02c;stroke-linecap:square;stroke-width:1.5;"/>
   </g>
   <g id="patch_3">
    <path d="M 54.56 112.732283 
L 54.56 10.8 
" style="fill:none;stroke:#000000;stroke-linecap:square;stroke-linejoin:miter;stroke-width:0.8;"/>
   </g>
   <g id="patch_4">
    <path d="M 54.56 112.732283 
L 213.137008 112.732283 
" style="fill:none;stroke:#000000;stroke-linecap:square;stroke-linejoin:miter;stroke-width:0.8;"/>
   </g>
   <g id="legend_1">
    <g id="patch_5">
     <path d="M 159.21107 42.020625 
L 208.937008 42.020625 
Q 210.137008 42.020625 210.137008 40.820625 
L 210.137008 15 
Q 210.137008 13.8 208.937008 13.8 
L 159.21107 13.8 
Q 158.01107 13.8 158.01107 15 
L 158.01107 40.820625 
Q 158.01107 42.020625 159.21107 42.020625 
z
" style="fill:#ffffff;opacity:0.8;stroke:#cccccc;stroke-linejoin:miter;"/>
    </g>
    <g id="line2d_13">
     <path d="M 160.41107 18.659062 
L 172.41107 18.659062 
" style="fill:none;stroke:#1f77b4;stroke-linecap:square;stroke-width:1.5;"/>
    </g>
    <g id="line2d_14"/>
    <g id="text_7">
     <!-- Upper IHR -->
     <g transform="translate(177.21107 20.759062)scale(0.06 -0.06)">
      <defs>
       <path d="M 8.6875 72.90625 
L 18.609375 72.90625 
L 18.609375 28.609375 
Q 18.609375 16.890625 22.84375 11.734375 
Q 27.09375 6.59375 36.625 6.59375 
Q 46.09375 6.59375 50.34375 11.734375 
Q 54.59375 16.890625 54.59375 28.609375 
L 54.59375 72.90625 
L 64.5 72.90625 
L 64.5 27.390625 
Q 64.5 13.140625 57.4375 5.859375 
Q 50.390625 -1.421875 36.625 -1.421875 
Q 22.796875 -1.421875 15.734375 5.859375 
Q 8.6875 13.140625 8.6875 27.390625 
z
" id="DejaVuSans-85"/>
       <path d="M 18.109375 8.203125 
L 18.109375 -20.796875 
L 9.078125 -20.796875 
L 9.078125 54.6875 
L 18.109375 54.6875 
L 18.109375 46.390625 
Q 20.953125 51.265625 25.265625 53.625 
Q 29.59375 56 35.59375 56 
Q 45.5625 56 51.78125 48.09375 
Q 58.015625 40.1875 58.015625 27.296875 
Q 58.015625 14.40625 51.78125 6.484375 
Q 45.5625 -1.421875 35.59375 -1.421875 
Q 29.59375 -1.421875 25.265625 0.953125 
Q 20.953125 3.328125 18.109375 8.203125 
z
M 48.6875 27.296875 
Q 48.6875 37.203125 44.609375 42.84375 
Q 40.53125 48.484375 33.40625 48.484375 
Q 26.265625 48.484375 22.1875 42.84375 
Q 18.109375 37.203125 18.109375 27.296875 
Q 18.109375 17.390625 22.1875 11.75 
Q 26.265625 6.109375 33.40625 6.109375 
Q 40.53125 6.109375 44.609375 11.75 
Q 48.6875 17.390625 48.6875 27.296875 
z
" id="DejaVuSans-112"/>
       <path d="M 41.109375 46.296875 
Q 39.59375 47.171875 37.8125 47.578125 
Q 36.03125 48 33.890625 48 
Q 26.265625 48 22.1875 43.046875 
Q 18.109375 38.09375 18.109375 28.8125 
L 18.109375 0 
L 9.078125 0 
L 9.078125 54.6875 
L 18.109375 54.6875 
L 18.109375 46.1875 
Q 20.953125 51.171875 25.484375 53.578125 
Q 30.03125 56 36.53125 56 
Q 37.453125 56 38.578125 55.875 
Q 39.703125 55.765625 41.0625 55.515625 
z
" id="DejaVuSans-114"/>
       <path d="M 9.8125 72.90625 
L 19.671875 72.90625 
L 19.671875 0 
L 9.8125 0 
z
" id="DejaVuSans-73"/>
       <path d="M 9.8125 72.90625 
L 19.671875 72.90625 
L 19.671875 43.015625 
L 55.515625 43.015625 
L 55.515625 72.90625 
L 65.375 72.90625 
L 65.375 0 
L 55.515625 0 
L 55.515625 34.71875 
L 19.671875 34.71875 
L 19.671875 0 
L 9.8125 0 
z
" id="DejaVuSans-72"/>
      </defs>
      <use xlink:href="#DejaVuSans-85"/>
      <use x="73.193359" xlink:href="#DejaVuSans-112"/>
      <use x="136.669922" xlink:href="#DejaVuSans-112"/>
      <use x="200.146484" xlink:href="#DejaVuSans-101"/>
      <use x="261.669922" xlink:href="#DejaVuSans-114"/>
      <use x="302.783203" xlink:href="#DejaVuSans-32"/>
      <use x="334.570312" xlink:href="#DejaVuSans-73"/>
      <use x="364.0625" xlink:href="#DejaVuSans-72"/>
      <use x="439.257812" xlink:href="#DejaVuSans-82"/>
     </g>
    </g>
    <g id="line2d_15">
     <path d="M 160.41107 27.465938 
L 172.41107 27.465938 
" style="fill:none;stroke:#ff7f0e;stroke-linecap:square;stroke-width:1.5;"/>
    </g>
    <g id="line2d_16"/>
    <g id="text_8">
     <!-- Lower IHR -->
     <g transform="translate(177.21107 29.565938)scale(0.06 -0.06)">
      <defs>
       <path d="M 9.8125 72.90625 
L 19.671875 72.90625 
L 19.671875 8.296875 
L 55.171875 8.296875 
L 55.171875 0 
L 9.8125 0 
z
" id="DejaVuSans-76"/>
       <path d="M 4.203125 54.6875 
L 13.1875 54.6875 
L 24.421875 12.015625 
L 35.59375 54.6875 
L 46.1875 54.6875 
L 57.421875 12.015625 
L 68.609375 54.6875 
L 77.59375 54.6875 
L 63.28125 0 
L 52.6875 0 
L 40.921875 44.828125 
L 29.109375 0 
L 18.5 0 
z
" id="DejaVuSans-119"/>
      </defs>
      <use xlink:href="#DejaVuSans-76"/>
      <use x="53.962891" xlink:href="#DejaVuSans-111"/>
      <use x="115.144531" xlink:href="#DejaVuSans-119"/>
      <use x="196.931641" xlink:href="#DejaVuSans-101"/>
      <use x="258.455078" xlink:href="#DejaVuSans-114"/>
      <use x="299.568359" xlink:href="#DejaVuSans-32"/>
      <use x="331.355469" xlink:href="#DejaVuSans-73"/>
      <use x="360.847656" xlink:href="#DejaVuSans-72"/>
      <use x="436.042969" xlink:href="#DejaVuSans-82"/>
     </g>
    </g>
    <g id="line2d_17">
     <path d="M 160.41107 36.272812 
L 172.41107 36.272812 
" style="fill:none;stroke:#2ca02c;stroke-linecap:square;stroke-width:1.5;"/>
    </g>
    <g id="line2d_18"/>
    <g id="text_9">
     <!-- IPR -->
     <g transform="translate(177.21107 38.372812)scale(0.06 -0.06)">
      <use xlink:href="#DejaVuSans-73"/>
      <use x="29.492188" xlink:href="#DejaVuSans-80"/>
      <use x="89.794922" xlink:href="#DejaVuSans-82"/>
     </g>
    </g>
   </g>
  </g>
 </g>
 <defs>
  <clipPath id="pb27ac8f06e">
   <rect height="101.932283" width="158.577008" x="54.56" y="10.8"/>
  </clipPath>
 </defs>
</svg>
