<?xml version="1.0" encoding="utf-8" standalone="no"?>
<!DOCTYPE svg PUBLIC "-//W3C//DTD SVG 1.1//EN"
  "http://www.w3.org/Graphics/SVG/1.1/DTD/svg11.dtd">
<!-- Created with matplotlib (https://matplotlib.org/) -->
<svg height="141.732283pt" version="1.1" viewBox="0 0 223.937008 141.732283" width="223.937008pt" xmlns="http://www.w3.org/2000/svg" xmlns:xlink="http://www.w3.org/1999/xlink">
 <metadata>
  <rdf:RDF xmlns:cc="http://creativecommons.org/ns#" xmlns:dc="http://purl.org/dc/elements/1.1/" xmlns:rdf="http://www.w3.org/1999/02/22-rdf-syntax-ns#">
   <cc:Work>
    <dc:type rdf:resource="http://purl.org/dc/dcmitype/StillImage"/>
    <dc:date>2021-04-12T09:20:49.222593</dc:date>
    <dc:format>image/svg+xml</dc:format>
    <dc:creator>
     <cc:Agent>
      <dc:title>Matplotlib v3.3.2, https://matplotlib.org/</dc:title>
     </cc:Agent>
    </dc:creator>
   </cc:Work>
  </rdf:RDF>
 </metadata>
 <defs>
  <style type="text/css">*{stroke-linecap:butt;stroke-linejoin:round;}</style>
 </defs>
 <g id="figure_1">
  <g id="patch_1">
   <path d="M 0 141.732283 
L 223.937008 141.732283 
L 223.937008 0 
L 0 0 
z
" style="fill:#ffffff;"/>
  </g>
  <g id="axes_1">
   <g id="patch_2">
    <path d="M 54.56 112.732283 
L 213.137008 112.732283 
L 213.137008 10.8 
L 54.56 10.8 
z
" style="fill:#ffffff;"/>
   </g>
   <g id="matplotlib.axis_1">
    <g id="xtick_1">
     <g id="line2d_1">
      <defs>
       <path d="M 0 0 
L 0 3.5 
" id="m9032df7be7" style="stroke:#000000;stroke-width:0.8;"/>
      </defs>
      <g>
       <use style="stroke:#000000;stroke-width:0.8;" x="70.712782" xlink:href="#m9032df7be7" y="112.732283"/>
      </g>
     </g>
    </g>
    <g id="xtick_2">
     <g id="line2d_2">
      <g>
       <use style="stroke:#000000;stroke-width:0.8;" x="108.818855" xlink:href="#m9032df7be7" y="112.732283"/>
      </g>
     </g>
    </g>
    <g id="xtick_3">
     <g id="line2d_3">
      <g>
       <use style="stroke:#000000;stroke-width:0.8;" x="146.924928" xlink:href="#m9032df7be7" y="112.732283"/>
      </g>
     </g>
    </g>
    <g id="xtick_4">
     <g id="line2d_4">
      <g>
       <use style="stroke:#000000;stroke-width:0.8;" x="185.031001" xlink:href="#m9032df7be7" y="112.732283"/>
      </g>
     </g>
    </g>
    <g id="text_1">
     <!-- Time (Seconds) -->
     <g transform="translate(102.863504 129.811033)scale(0.08 -0.08)">
      <defs>
       <path d="M -0.296875 72.90625 
L 61.375 72.90625 
L 61.375 64.59375 
L 35.5 64.59375 
L 35.5 0 
L 25.59375 0 
L 25.59375 64.59375 
L -0.296875 64.59375 
z
" id="DejaVuSans-84"/>
       <path d="M 9.421875 54.6875 
L 18.40625 54.6875 
L 18.40625 0 
L 9.421875 0 
z
M 9.421875 75.984375 
L 18.40625 75.984375 
L 18.40625 64.59375 
L 9.421875 64.59375 
z
" id="DejaVuSans-105"/>
       <path d="M 52 44.1875 
Q 55.375 50.25 60.0625 53.125 
Q 64.75 56 71.09375 56 
Q 79.640625 56 84.28125 50.015625 
Q 88.921875 44.046875 88.921875 33.015625 
L 88.921875 0 
L 79.890625 0 
L 79.890625 32.71875 
Q 79.890625 40.578125 77.09375 44.375 
Q 74.3125 48.1875 68.609375 48.1875 
Q 61.625 48.1875 57.5625 43.546875 
Q 53.515625 38.921875 53.515625 30.90625 
L 53.515625 0 
L 44.484375 0 
L 44.484375 32.71875 
Q 44.484375 40.625 41.703125 44.40625 
Q 38.921875 48.1875 33.109375 48.1875 
Q 26.21875 48.1875 22.15625 43.53125 
Q 18.109375 38.875 18.109375 30.90625 
L 18.109375 0 
L 9.078125 0 
L 9.078125 54.6875 
L 18.109375 54.6875 
L 18.109375 46.1875 
Q 21.1875 51.21875 25.484375 53.609375 
Q 29.78125 56 35.6875 56 
Q 41.65625 56 45.828125 52.96875 
Q 50 49.953125 52 44.1875 
z
" id="DejaVuSans-109"/>
       <path d="M 56.203125 29.59375 
L 56.203125 25.203125 
L 14.890625 25.203125 
Q 15.484375 15.921875 20.484375 11.0625 
Q 25.484375 6.203125 34.421875 6.203125 
Q 39.59375 6.203125 44.453125 7.46875 
Q 49.3125 8.734375 54.109375 11.28125 
L 54.109375 2.78125 
Q 49.265625 0.734375 44.1875 -0.34375 
Q 39.109375 -1.421875 33.890625 -1.421875 
Q 20.796875 -1.421875 13.15625 6.1875 
Q 5.515625 13.8125 5.515625 26.8125 
Q 5.515625 40.234375 12.765625 48.109375 
Q 20.015625 56 32.328125 56 
Q 43.359375 56 49.78125 48.890625 
Q 56.203125 41.796875 56.203125 29.59375 
z
M 47.21875 32.234375 
Q 47.125 39.59375 43.09375 43.984375 
Q 39.0625 48.390625 32.421875 48.390625 
Q 24.90625 48.390625 20.390625 44.140625 
Q 15.875 39.890625 15.1875 32.171875 
z
" id="DejaVuSans-101"/>
       <path id="DejaVuSans-32"/>
       <path d="M 31 75.875 
Q 24.46875 64.65625 21.28125 53.65625 
Q 18.109375 42.671875 18.109375 31.390625 
Q 18.109375 20.125 21.3125 9.0625 
Q 24.515625 -2 31 -13.1875 
L 23.1875 -13.1875 
Q 15.875 -1.703125 12.234375 9.375 
Q 8.59375 20.453125 8.59375 31.390625 
Q 8.59375 42.28125 12.203125 53.3125 
Q 15.828125 64.359375 23.1875 75.875 
z
" id="DejaVuSans-40"/>
       <path d="M 53.515625 70.515625 
L 53.515625 60.890625 
Q 47.90625 63.578125 42.921875 64.890625 
Q 37.9375 66.21875 33.296875 66.21875 
Q 25.25 66.21875 20.875 63.09375 
Q 16.5 59.96875 16.5 54.203125 
Q 16.5 49.359375 19.40625 46.890625 
Q 22.3125 44.4375 30.421875 42.921875 
L 36.375 41.703125 
Q 47.40625 39.59375 52.65625 34.296875 
Q 57.90625 29 57.90625 20.125 
Q 57.90625 9.515625 50.796875 4.046875 
Q 43.703125 -1.421875 29.984375 -1.421875 
Q 24.8125 -1.421875 18.96875 -0.25 
Q 13.140625 0.921875 6.890625 3.21875 
L 6.890625 13.375 
Q 12.890625 10.015625 18.65625 8.296875 
Q 24.421875 6.59375 29.984375 6.59375 
Q 38.421875 6.59375 43.015625 9.90625 
Q 47.609375 13.234375 47.609375 19.390625 
Q 47.609375 24.75 44.3125 27.78125 
Q 41.015625 30.8125 33.5 32.328125 
L 27.484375 33.5 
Q 16.453125 35.6875 11.515625 40.375 
Q 6.59375 45.0625 6.59375 53.421875 
Q 6.59375 63.09375 13.40625 68.65625 
Q 20.21875 74.21875 32.171875 74.21875 
Q 37.3125 74.21875 42.625 73.28125 
Q 47.953125 72.359375 53.515625 70.515625 
z
" id="DejaVuSans-83"/>
       <path d="M 48.78125 52.59375 
L 48.78125 44.1875 
Q 44.96875 46.296875 41.140625 47.34375 
Q 37.3125 48.390625 33.40625 48.390625 
Q 24.65625 48.390625 19.8125 42.84375 
Q 14.984375 37.3125 14.984375 27.296875 
Q 14.984375 17.28125 19.8125 11.734375 
Q 24.65625 6.203125 33.40625 6.203125 
Q 37.3125 6.203125 41.140625 7.25 
Q 44.96875 8.296875 48.78125 10.40625 
L 48.78125 2.09375 
Q 45.015625 0.34375 40.984375 -0.53125 
Q 36.96875 -1.421875 32.421875 -1.421875 
Q 20.0625 -1.421875 12.78125 6.34375 
Q 5.515625 14.109375 5.515625 27.296875 
Q 5.515625 40.671875 12.859375 48.328125 
Q 20.21875 56 33.015625 56 
Q 37.15625 56 41.109375 55.140625 
Q 45.0625 54.296875 48.78125 52.59375 
z
" id="DejaVuSans-99"/>
       <path d="M 30.609375 48.390625 
Q 23.390625 48.390625 19.1875 42.75 
Q 14.984375 37.109375 14.984375 27.296875 
Q 14.984375 17.484375 19.15625 11.84375 
Q 23.34375 6.203125 30.609375 6.203125 
Q 37.796875 6.203125 41.984375 11.859375 
Q 46.1875 17.53125 46.1875 27.296875 
Q 46.1875 37.015625 41.984375 42.703125 
Q 37.796875 48.390625 30.609375 48.390625 
z
M 30.609375 56 
Q 42.328125 56 49.015625 48.375 
Q 55.71875 40.765625 55.71875 27.296875 
Q 55.71875 13.875 49.015625 6.21875 
Q 42.328125 -1.421875 30.609375 -1.421875 
Q 18.84375 -1.421875 12.171875 6.21875 
Q 5.515625 13.875 5.515625 27.296875 
Q 5.515625 40.765625 12.171875 48.375 
Q 18.84375 56 30.609375 56 
z
" id="DejaVuSans-111"/>
       <path d="M 54.890625 33.015625 
L 54.890625 0 
L 45.90625 0 
L 45.90625 32.71875 
Q 45.90625 40.484375 42.875 44.328125 
Q 39.84375 48.1875 33.796875 48.1875 
Q 26.515625 48.1875 22.3125 43.546875 
Q 18.109375 38.921875 18.109375 30.90625 
L 18.109375 0 
L 9.078125 0 
L 9.078125 54.6875 
L 18.109375 54.6875 
L 18.109375 46.1875 
Q 21.34375 51.125 25.703125 53.5625 
Q 30.078125 56 35.796875 56 
Q 45.21875 56 50.046875 50.171875 
Q 54.890625 44.34375 54.890625 33.015625 
z
" id="DejaVuSans-110"/>
       <path d="M 45.40625 46.390625 
L 45.40625 75.984375 
L 54.390625 75.984375 
L 54.390625 0 
L 45.40625 0 
L 45.40625 8.203125 
Q 42.578125 3.328125 38.25 0.953125 
Q 33.9375 -1.421875 27.875 -1.421875 
Q 17.96875 -1.421875 11.734375 6.484375 
Q 5.515625 14.40625 5.515625 27.296875 
Q 5.515625 40.1875 11.734375 48.09375 
Q 17.96875 56 27.875 56 
Q 33.9375 56 38.25 53.625 
Q 42.578125 51.265625 45.40625 46.390625 
z
M 14.796875 27.296875 
Q 14.796875 17.390625 18.875 11.75 
Q 22.953125 6.109375 30.078125 6.109375 
Q 37.203125 6.109375 41.296875 11.75 
Q 45.40625 17.390625 45.40625 27.296875 
Q 45.40625 37.203125 41.296875 42.84375 
Q 37.203125 48.484375 30.078125 48.484375 
Q 22.953125 48.484375 18.875 42.84375 
Q 14.796875 37.203125 14.796875 27.296875 
z
" id="DejaVuSans-100"/>
       <path d="M 44.28125 53.078125 
L 44.28125 44.578125 
Q 40.484375 46.53125 36.375 47.5 
Q 32.28125 48.484375 27.875 48.484375 
Q 21.1875 48.484375 17.84375 46.4375 
Q 14.5 44.390625 14.5 40.28125 
Q 14.5 37.15625 16.890625 35.375 
Q 19.28125 33.59375 26.515625 31.984375 
L 29.59375 31.296875 
Q 39.15625 29.25 43.1875 25.515625 
Q 47.21875 21.78125 47.21875 15.09375 
Q 47.21875 7.46875 41.1875 3.015625 
Q 35.15625 -1.421875 24.609375 -1.421875 
Q 20.21875 -1.421875 15.453125 -0.5625 
Q 10.6875 0.296875 5.421875 2 
L 5.421875 11.28125 
Q 10.40625 8.6875 15.234375 7.390625 
Q 20.0625 6.109375 24.8125 6.109375 
Q 31.15625 6.109375 34.5625 8.28125 
Q 37.984375 10.453125 37.984375 14.40625 
Q 37.984375 18.0625 35.515625 20.015625 
Q 33.0625 21.96875 24.703125 23.78125 
L 21.578125 24.515625 
Q 13.234375 26.265625 9.515625 29.90625 
Q 5.8125 33.546875 5.8125 39.890625 
Q 5.8125 47.609375 11.28125 51.796875 
Q 16.75 56 26.8125 56 
Q 31.78125 56 36.171875 55.265625 
Q 40.578125 54.546875 44.28125 53.078125 
z
" id="DejaVuSans-115"/>
       <path d="M 8.015625 75.875 
L 15.828125 75.875 
Q 23.140625 64.359375 26.78125 53.3125 
Q 30.421875 42.28125 30.421875 31.390625 
Q 30.421875 20.453125 26.78125 9.375 
Q 23.140625 -1.703125 15.828125 -13.1875 
L 8.015625 -13.1875 
Q 14.5 -2 17.703125 9.0625 
Q 20.90625 20.125 20.90625 31.390625 
Q 20.90625 42.671875 17.703125 53.65625 
Q 14.5 64.65625 8.015625 75.875 
z
" id="DejaVuSans-41"/>
      </defs>
      <use xlink:href="#DejaVuSans-84"/>
      <use x="57.958984" xlink:href="#DejaVuSans-105"/>
      <use x="85.742188" xlink:href="#DejaVuSans-109"/>
      <use x="183.154297" xlink:href="#DejaVuSans-101"/>
      <use x="244.677734" xlink:href="#DejaVuSans-32"/>
      <use x="276.464844" xlink:href="#DejaVuSans-40"/>
      <use x="315.478516" xlink:href="#DejaVuSans-83"/>
      <use x="378.955078" xlink:href="#DejaVuSans-101"/>
      <use x="440.478516" xlink:href="#DejaVuSans-99"/>
      <use x="495.458984" xlink:href="#DejaVuSans-111"/>
      <use x="556.640625" xlink:href="#DejaVuSans-110"/>
      <use x="620.019531" xlink:href="#DejaVuSans-100"/>
      <use x="683.496094" xlink:href="#DejaVuSans-115"/>
      <use x="735.595703" xlink:href="#DejaVuSans-41"/>
     </g>
    </g>
   </g>
   <g id="matplotlib.axis_2">
    <g id="ytick_1">
     <g id="line2d_5">
      <defs>
       <path d="M 0 0 
L -3.5 0 
" id="m1cfcc78757" style="stroke:#000000;stroke-width:0.8;"/>
      </defs>
      <g>
       <use style="stroke:#000000;stroke-width:0.8;" x="54.56" xlink:href="#m1cfcc78757" y="98.307109"/>
      </g>
     </g>
     <g id="text_2">
      <!-- 50 -->
      <g transform="translate(34.835 102.106327)scale(0.1 -0.1)">
       <defs>
        <path d="M 10.796875 72.90625 
L 49.515625 72.90625 
L 49.515625 64.59375 
L 19.828125 64.59375 
L 19.828125 46.734375 
Q 21.96875 47.46875 24.109375 47.828125 
Q 26.265625 48.1875 28.421875 48.1875 
Q 40.625 48.1875 47.75 41.5 
Q 54.890625 34.8125 54.890625 23.390625 
Q 54.890625 11.625 47.5625 5.09375 
Q 40.234375 -1.421875 26.90625 -1.421875 
Q 22.3125 -1.421875 17.546875 -0.640625 
Q 12.796875 0.140625 7.71875 1.703125 
L 7.71875 11.625 
Q 12.109375 9.234375 16.796875 8.0625 
Q 21.484375 6.890625 26.703125 6.890625 
Q 35.15625 6.890625 40.078125 11.328125 
Q 45.015625 15.765625 45.015625 23.390625 
Q 45.015625 31 40.078125 35.4375 
Q 35.15625 39.890625 26.703125 39.890625 
Q 22.75 39.890625 18.8125 39.015625 
Q 14.890625 38.140625 10.796875 36.28125 
z
" id="DejaVuSans-53"/>
        <path d="M 31.78125 66.40625 
Q 24.171875 66.40625 20.328125 58.90625 
Q 16.5 51.421875 16.5 36.375 
Q 16.5 21.390625 20.328125 13.890625 
Q 24.171875 6.390625 31.78125 6.390625 
Q 39.453125 6.390625 43.28125 13.890625 
Q 47.125 21.390625 47.125 36.375 
Q 47.125 51.421875 43.28125 58.90625 
Q 39.453125 66.40625 31.78125 66.40625 
z
M 31.78125 74.21875 
Q 44.046875 74.21875 50.515625 64.515625 
Q 56.984375 54.828125 56.984375 36.375 
Q 56.984375 17.96875 50.515625 8.265625 
Q 44.046875 -1.421875 31.78125 -1.421875 
Q 19.53125 -1.421875 13.0625 8.265625 
Q 6.59375 17.96875 6.59375 36.375 
Q 6.59375 54.828125 13.0625 64.515625 
Q 19.53125 74.21875 31.78125 74.21875 
z
" id="DejaVuSans-48"/>
       </defs>
       <use xlink:href="#DejaVuSans-53"/>
       <use x="63.623047" xlink:href="#DejaVuSans-48"/>
      </g>
     </g>
    </g>
    <g id="ytick_2">
     <g id="line2d_6">
      <g>
       <use style="stroke:#000000;stroke-width:0.8;" x="54.56" xlink:href="#m1cfcc78757" y="69.903147"/>
      </g>
     </g>
     <g id="text_3">
      <!-- 100 -->
      <g transform="translate(28.4725 73.702366)scale(0.1 -0.1)">
       <defs>
        <path d="M 12.40625 8.296875 
L 28.515625 8.296875 
L 28.515625 63.921875 
L 10.984375 60.40625 
L 10.984375 69.390625 
L 28.421875 72.90625 
L 38.28125 72.90625 
L 38.28125 8.296875 
L 54.390625 8.296875 
L 54.390625 0 
L 12.40625 0 
z
" id="DejaVuSans-49"/>
       </defs>
       <use xlink:href="#DejaVuSans-49"/>
       <use x="63.623047" xlink:href="#DejaVuSans-48"/>
       <use x="127.246094" xlink:href="#DejaVuSans-48"/>
      </g>
     </g>
    </g>
    <g id="ytick_3">
     <g id="line2d_7">
      <g>
       <use style="stroke:#000000;stroke-width:0.8;" x="54.56" xlink:href="#m1cfcc78757" y="41.499185"/>
      </g>
     </g>
     <g id="text_4">
      <!-- 150 -->
      <g transform="translate(28.4725 45.298404)scale(0.1 -0.1)">
       <use xlink:href="#DejaVuSans-49"/>
       <use x="63.623047" xlink:href="#DejaVuSans-53"/>
       <use x="127.246094" xlink:href="#DejaVuSans-48"/>
      </g>
     </g>
    </g>
    <g id="ytick_4">
     <g id="line2d_8">
      <g>
       <use style="stroke:#000000;stroke-width:0.8;" x="54.56" xlink:href="#m1cfcc78757" y="13.095223"/>
      </g>
     </g>
     <g id="text_5">
      <!-- 200 -->
      <g transform="translate(28.4725 16.894442)scale(0.1 -0.1)">
       <defs>
        <path d="M 19.1875 8.296875 
L 53.609375 8.296875 
L 53.609375 0 
L 7.328125 0 
L 7.328125 8.296875 
Q 12.9375 14.109375 22.625 23.890625 
Q 32.328125 33.6875 34.8125 36.53125 
Q 39.546875 41.84375 41.421875 45.53125 
Q 43.3125 49.21875 43.3125 52.78125 
Q 43.3125 58.59375 39.234375 62.25 
Q 35.15625 65.921875 28.609375 65.921875 
Q 23.96875 65.921875 18.8125 64.3125 
Q 13.671875 62.703125 7.8125 59.421875 
L 7.8125 69.390625 
Q 13.765625 71.78125 18.9375 73 
Q 24.125 74.21875 28.421875 74.21875 
Q 39.75 74.21875 46.484375 68.546875 
Q 53.21875 62.890625 53.21875 53.421875 
Q 53.21875 48.921875 51.53125 44.890625 
Q 49.859375 40.875 45.40625 35.40625 
Q 44.1875 33.984375 37.640625 27.21875 
Q 31.109375 20.453125 19.1875 8.296875 
z
" id="DejaVuSans-50"/>
       </defs>
       <use xlink:href="#DejaVuSans-50"/>
       <use x="63.623047" xlink:href="#DejaVuSans-48"/>
       <use x="127.246094" xlink:href="#DejaVuSans-48"/>
      </g>
     </g>
    </g>
    <g id="text_6">
     <!-- Rate (BPM) -->
     <g transform="translate(22.80875 83.936142)rotate(-90)scale(0.08 -0.08)">
      <defs>
       <path d="M 44.390625 34.1875 
Q 47.5625 33.109375 50.5625 29.59375 
Q 53.5625 26.078125 56.59375 19.921875 
L 66.609375 0 
L 56 0 
L 46.6875 18.703125 
Q 43.0625 26.03125 39.671875 28.421875 
Q 36.28125 30.8125 30.421875 30.8125 
L 19.671875 30.8125 
L 19.671875 0 
L 9.8125 0 
L 9.8125 72.90625 
L 32.078125 72.90625 
Q 44.578125 72.90625 50.734375 67.671875 
Q 56.890625 62.453125 56.890625 51.90625 
Q 56.890625 45.015625 53.6875 40.46875 
Q 50.484375 35.9375 44.390625 34.1875 
z
M 19.671875 64.796875 
L 19.671875 38.921875 
L 32.078125 38.921875 
Q 39.203125 38.921875 42.84375 42.21875 
Q 46.484375 45.515625 46.484375 51.90625 
Q 46.484375 58.296875 42.84375 61.546875 
Q 39.203125 64.796875 32.078125 64.796875 
z
" id="DejaVuSans-82"/>
       <path d="M 34.28125 27.484375 
Q 23.390625 27.484375 19.1875 25 
Q 14.984375 22.515625 14.984375 16.5 
Q 14.984375 11.71875 18.140625 8.90625 
Q 21.296875 6.109375 26.703125 6.109375 
Q 34.1875 6.109375 38.703125 11.40625 
Q 43.21875 16.703125 43.21875 25.484375 
L 43.21875 27.484375 
z
M 52.203125 31.203125 
L 52.203125 0 
L 43.21875 0 
L 43.21875 8.296875 
Q 40.140625 3.328125 35.546875 0.953125 
Q 30.953125 -1.421875 24.3125 -1.421875 
Q 15.921875 -1.421875 10.953125 3.296875 
Q 6 8.015625 6 15.921875 
Q 6 25.140625 12.171875 29.828125 
Q 18.359375 34.515625 30.609375 34.515625 
L 43.21875 34.515625 
L 43.21875 35.40625 
Q 43.21875 41.609375 39.140625 45 
Q 35.0625 48.390625 27.6875 48.390625 
Q 23 48.390625 18.546875 47.265625 
Q 14.109375 46.140625 10.015625 43.890625 
L 10.015625 52.203125 
Q 14.9375 54.109375 19.578125 55.046875 
Q 24.21875 56 28.609375 56 
Q 40.484375 56 46.34375 49.84375 
Q 52.203125 43.703125 52.203125 31.203125 
z
" id="DejaVuSans-97"/>
       <path d="M 18.3125 70.21875 
L 18.3125 54.6875 
L 36.8125 54.6875 
L 36.8125 47.703125 
L 18.3125 47.703125 
L 18.3125 18.015625 
Q 18.3125 11.328125 20.140625 9.421875 
Q 21.96875 7.515625 27.59375 7.515625 
L 36.8125 7.515625 
L 36.8125 0 
L 27.59375 0 
Q 17.1875 0 13.234375 3.875 
Q 9.28125 7.765625 9.28125 18.015625 
L 9.28125 47.703125 
L 2.6875 47.703125 
L 2.6875 54.6875 
L 9.28125 54.6875 
L 9.28125 70.21875 
z
" id="DejaVuSans-116"/>
       <path d="M 19.671875 34.8125 
L 19.671875 8.109375 
L 35.5 8.109375 
Q 43.453125 8.109375 47.28125 11.40625 
Q 51.125 14.703125 51.125 21.484375 
Q 51.125 28.328125 47.28125 31.5625 
Q 43.453125 34.8125 35.5 34.8125 
z
M 19.671875 64.796875 
L 19.671875 42.828125 
L 34.28125 42.828125 
Q 41.5 42.828125 45.03125 45.53125 
Q 48.578125 48.25 48.578125 53.8125 
Q 48.578125 59.328125 45.03125 62.0625 
Q 41.5 64.796875 34.28125 64.796875 
z
M 9.8125 72.90625 
L 35.015625 72.90625 
Q 46.296875 72.90625 52.390625 68.21875 
Q 58.5 63.53125 58.5 54.890625 
Q 58.5 48.1875 55.375 44.234375 
Q 52.25 40.28125 46.1875 39.3125 
Q 53.46875 37.75 57.5 32.78125 
Q 61.53125 27.828125 61.53125 20.40625 
Q 61.53125 10.640625 54.890625 5.3125 
Q 48.25 0 35.984375 0 
L 9.8125 0 
z
" id="DejaVuSans-66"/>
       <path d="M 19.671875 64.796875 
L 19.671875 37.40625 
L 32.078125 37.40625 
Q 38.96875 37.40625 42.71875 40.96875 
Q 46.484375 44.53125 46.484375 51.125 
Q 46.484375 57.671875 42.71875 61.234375 
Q 38.96875 64.796875 32.078125 64.796875 
z
M 9.8125 72.90625 
L 32.078125 72.90625 
Q 44.34375 72.90625 50.609375 67.359375 
Q 56.890625 61.8125 56.890625 51.125 
Q 56.890625 40.328125 50.609375 34.8125 
Q 44.34375 29.296875 32.078125 29.296875 
L 19.671875 29.296875 
L 19.671875 0 
L 9.8125 0 
z
" id="DejaVuSans-80"/>
       <path d="M 9.8125 72.90625 
L 24.515625 72.90625 
L 43.109375 23.296875 
L 61.8125 72.90625 
L 76.515625 72.90625 
L 76.515625 0 
L 66.890625 0 
L 66.890625 64.015625 
L 48.09375 14.015625 
L 38.1875 14.015625 
L 19.390625 64.015625 
L 19.390625 0 
L 9.8125 0 
z
" id="DejaVuSans-77"/>
      </defs>
      <use xlink:href="#DejaVuSans-82"/>
      <use x="67.232422" xlink:href="#DejaVuSans-97"/>
      <use x="128.511719" xlink:href="#DejaVuSans-116"/>
      <use x="167.720703" xlink:href="#DejaVuSans-101"/>
      <use x="229.244141" xlink:href="#DejaVuSans-32"/>
      <use x="261.03125" xlink:href="#DejaVuSans-40"/>
      <use x="300.044922" xlink:href="#DejaVuSans-66"/>
      <use x="368.648438" xlink:href="#DejaVuSans-80"/>
      <use x="428.951172" xlink:href="#DejaVuSans-77"/>
      <use x="515.230469" xlink:href="#DejaVuSans-41"/>
     </g>
    </g>
   </g>
   <g id="line2d_9">
    <path clip-path="url(#p18c6b9c912)" d="M 53.94611 89.78592 
L 56.232475 89.853268 
L 57.756718 89.652254 
L 58.518839 89.652254 
L 59.280961 89.814831 
L 60.043082 90.145144 
L 60.805203 90.213869 
L 63.091568 89.723749 
L 64.615811 89.750276 
L 66.902175 89.856376 
L 69.950661 89.413955 
L 71.474904 89.483858 
L 72.237025 89.415432 
L 72.999147 89.203108 
L 73.761268 88.851315 
L 74.52339 88.76359 
L 75.285511 88.908867 
L 76.809754 88.853506 
L 78.333997 88.467296 
L 79.85824 87.88319 
L 80.620361 87.994692 
L 81.382483 88.228218 
L 82.906726 87.525717 
L 84.430969 87.835968 
L 85.19309 88.069493 
L 85.955212 88.176843 
L 86.717333 87.789196 
L 87.479454 87.605489 
L 88.241576 87.923365 
L 89.003697 88.109621 
L 89.765819 88.109621 
L 90.52794 87.828247 
L 91.290062 87.274157 
L 92.052183 87.348739 
L 92.814305 87.839712 
L 94.338548 88.498498 
L 98.149155 88.32503 
L 98.911276 88.231457 
L 100.435519 87.703252 
L 101.959762 88.109621 
L 102.721884 88.109621 
L 103.484005 87.992371 
L 105.008248 87.437223 
L 105.770369 87.274278 
L 106.532491 87.634666 
L 107.294612 88.353125 
L 108.056734 88.651951 
L 108.818855 88.798995 
L 110.343098 88.696627 
L 111.867341 89.089984 
L 113.391584 88.414436 
L 114.915827 88.26147 
L 116.44007 88.496685 
L 117.202191 88.118442 
L 117.964313 87.990052 
L 118.726434 88.891057 
L 119.488556 89.346001 
L 121.012799 88.351904 
L 124.061284 87.852703 
L 125.585527 87.915438 
L 126.347649 87.837278 
L 127.10977 88.032115 
L 127.871892 88.342217 
L 130.158256 87.962456 
L 130.920377 87.962456 
L 132.44462 89.07316 
L 133.968863 88.400361 
L 135.493106 88.431757 
L 137.017349 88.643735 
L 139.303714 88.092403 
L 140.827956 87.850712 
L 142.352199 87.934251 
L 144.638564 88.255584 
L 145.400685 88.255584 
L 146.924928 87.833898 
L 149.973414 87.653821 
L 154.546143 87.192473 
L 155.308264 86.859655 
L 156.070386 87.00997 
L 156.832507 87.43131 
L 157.594628 87.382483 
L 159.118871 86.974065 
L 159.880993 86.757973 
L 161.405236 87.168918 
L 162.167357 87.001819 
L 162.929479 86.960575 
L 164.453722 87.208082 
L 165.215843 87.208082 
L 167.502207 86.897382 
L 170.550693 86.801382 
L 172.837058 86.4993 
L 173.599179 86.67439 
L 175.885543 86.785104 
L 176.647665 87.043301 
L 179.696151 87.441947 
L 180.458272 87.763807 
L 181.220394 87.932535 
L 182.744637 87.85209 
L 184.268879 88.054134 
L 185.031001 88.208539 
L 189.60373 88.109621 
L 192.652216 87.852388 
L 193.414337 88.085913 
L 194.176458 88.192511 
L 196.462823 87.598033 
L 197.224944 87.588721 
L 197.987066 87.748973 
L 198.749187 87.719712 
L 200.27343 87.456558 
L 201.797673 87.361482 
L 203.321916 87.282535 
L 204.846159 87.025317 
L 206.370402 86.792048 
L 208.656766 86.754163 
L 209.418888 86.495966 
L 211.705252 86.424762 
L 212.467373 86.270996 
L 213.229495 86.448353 
L 213.229495 86.448353 
" style="fill:none;stroke:#1f77b4;stroke-linecap:square;stroke-width:1.5;"/>
   </g>
   <g id="line2d_10">
    <path clip-path="url(#p18c6b9c912)" d="M 53.94611 95.466713 
L 56.232475 95.53406 
L 57.756718 95.333047 
L 58.518839 95.333047 
L 59.280961 95.495623 
L 60.043082 95.825937 
L 60.805203 95.894661 
L 63.091568 95.404541 
L 64.615811 95.431068 
L 66.902175 95.537169 
L 69.950661 95.094747 
L 71.474904 95.16465 
L 72.237025 95.096224 
L 72.999147 94.8839 
L 73.761268 94.532107 
L 74.52339 94.444383 
L 75.285511 94.58966 
L 76.809754 94.534298 
L 78.333997 94.148088 
L 79.85824 93.563982 
L 80.620361 93.675485 
L 81.382483 93.90901 
L 82.906726 93.20651 
L 84.430969 93.51676 
L 85.19309 93.750286 
L 85.955212 93.857636 
L 86.717333 93.469989 
L 87.479454 93.286282 
L 88.241576 93.604158 
L 89.003697 93.790413 
L 89.765819 93.790413 
L 90.52794 93.509039 
L 91.290062 92.95495 
L 92.052183 93.029531 
L 92.814305 93.520505 
L 94.338548 94.17929 
L 98.149155 94.005822 
L 98.911276 93.912249 
L 100.435519 93.384044 
L 101.959762 93.790413 
L 102.721884 93.790413 
L 103.484005 93.673164 
L 105.008248 93.118015 
L 105.770369 92.95507 
L 106.532491 93.315459 
L 107.294612 94.033917 
L 108.056734 94.332743 
L 108.818855 94.479787 
L 110.343098 94.377419 
L 111.867341 94.770777 
L 113.391584 94.095229 
L 114.915827 93.942262 
L 116.44007 94.177478 
L 117.202191 93.799235 
L 117.964313 93.670845 
L 118.726434 94.571849 
L 119.488556 95.026794 
L 121.012799 94.032697 
L 124.061284 93.533495 
L 125.585527 93.59623 
L 126.347649 93.518071 
L 127.10977 93.712908 
L 127.871892 94.023009 
L 130.158256 93.643248 
L 130.920377 93.643248 
L 132.44462 94.753953 
L 133.968863 94.081153 
L 135.493106 94.112549 
L 137.017349 94.324527 
L 139.303714 93.773196 
L 140.827956 93.531505 
L 142.352199 93.615044 
L 144.638564 93.936377 
L 145.400685 93.936377 
L 146.924928 93.51469 
L 149.973414 93.334613 
L 154.546143 92.873265 
L 155.308264 92.540447 
L 156.070386 92.690762 
L 156.832507 93.112102 
L 157.594628 93.063276 
L 159.118871 92.654857 
L 159.880993 92.438766 
L 161.405236 92.84971 
L 162.167357 92.682611 
L 162.929479 92.641367 
L 164.453722 92.888874 
L 165.215843 92.888874 
L 167.502207 92.578174 
L 170.550693 92.482174 
L 172.837058 92.180093 
L 173.599179 92.355182 
L 175.885543 92.465897 
L 176.647665 92.724094 
L 179.696151 93.122739 
L 180.458272 93.4446 
L 181.220394 93.613328 
L 182.744637 93.532882 
L 184.268879 93.734926 
L 185.031001 93.889331 
L 189.60373 93.790413 
L 192.652216 93.53318 
L 193.414337 93.766706 
L 194.176458 93.873304 
L 196.462823 93.278826 
L 197.224944 93.269513 
L 197.987066 93.429765 
L 198.749187 93.400504 
L 200.27343 93.13735 
L 201.797673 93.042274 
L 203.321916 92.963327 
L 204.846159 92.706109 
L 206.370402 92.472841 
L 208.656766 92.434955 
L 209.418888 92.176758 
L 211.705252 92.105554 
L 212.467373 91.951788 
L 213.229495 92.129145 
L 213.229495 92.129145 
" style="fill:none;stroke:#ff7f0e;stroke-linecap:square;stroke-width:1.5;"/>
   </g>
   <g id="line2d_11">
    <path clip-path="url(#p18c6b9c912)" d="M 53.94611 92.626316 
L 56.232475 92.524874 
L 57.756718 92.085288 
L 58.518839 92.085288 
L 59.280961 92.305135 
L 60.043082 92.846295 
L 60.805203 93.150697 
L 62.329446 93.045821 
L 64.615811 92.25436 
L 65.377932 92.188341 
L 66.902175 92.626316 
L 68.426418 92.51642 
L 69.188539 92.245906 
L 69.950661 92.511856 
L 70.712782 93.561868 
L 71.474904 93.483324 
L 72.237025 91.95378 
L 72.999147 90.950017 
L 73.761268 90.950017 
L 74.52339 91.334741 
L 75.285511 92.214112 
L 76.047633 92.334259 
L 76.809754 91.784505 
L 77.571875 89.888588 
L 78.333997 86.804879 
L 79.096118 88.635276 
L 79.85824 93.827957 
L 80.620361 93.226883 
L 81.382483 92.239558 
L 82.906726 87.368587 
L 84.430969 91.848385 
L 85.19309 90.332204 
L 85.955212 89.291657 
L 86.717333 90.312186 
L 87.479454 91.765665 
L 88.241576 93.940725 
L 89.003697 93.021421 
L 89.765819 88.59517 
L 90.52794 85.968149 
L 91.290062 87.299436 
L 92.052183 90.334904 
L 92.814305 94.263039 
L 93.576426 91.991094 
L 94.338548 89.077761 
L 95.100669 90.039074 
L 95.86279 92.085288 
L 97.387033 38.26893 
L 98.149155 87.772618 
L 98.911276 63.386188 
L 99.673398 50.019301 
L 100.122935 -1 
M 101.914653 -1 
L 101.959762 22.603534 
L 102.162653 -1 
M 103.035271 -1 
L 103.484005 92.156829 
L 105.770369 84.569965 
L 107.294612 101.443302 
L 108.818855 88.262874 
L 109.580977 89.399574 
L 110.343098 105.287656 
L 111.10522 104.854169 
L 113.391584 87.232139 
L 114.153705 91.773344 
L 114.915827 97.688819 
L 116.44007 103.531446 
L 117.202191 72.033444 
L 118.67189 -1 
M 118.760558 -1 
L 119.488556 56.825489 
L 119.911704 -1 
M 120.522007 -1 
L 121.012799 82.789609 
L 121.77492 92.348035 
L 122.537041 93.627432 
L 123.299163 87.601805 
L 124.061284 85.588426 
L 124.823406 95.611791 
L 125.585527 101.504935 
L 126.347649 105.520707 
L 127.10977 106.776513 
L 129.396135 85.704251 
L 130.158256 91.120304 
L 130.920377 108.976496 
L 131.741912 -1 
M 134.545936 -1 
L 134.730985 97.95003 
L 135.493106 106.952734 
L 136.255228 107.980508 
L 137.779471 109.521546 
L 138.541592 106.623251 
L 140.827956 85.4544 
L 141.590078 85.589299 
L 142.352199 96.234387 
L 143.114321 93.241512 
L 143.876442 88.837814 
L 144.638564 87.293481 
L 145.400685 87.705556 
L 146.162807 72.049806 
L 146.924928 59.792873 
L 147.68705 82.124887 
L 148.449171 75.995616 
L 149.211292 73.5056 
L 149.973414 80.570826 
L 150.735535 102.226632 
L 152.259778 86.457576 
L 153.0219 82.361256 
L 153.784021 91.794251 
L 154.546143 77.907924 
L 155.308264 56.248491 
L 156.070386 54.457674 
L 156.832507 3.140536 
L 157.594628 75.30618 
L 158.35675 86.35429 
L 159.118871 64.10171 
L 159.880993 58.920984 
L 160.643114 79.560133 
L 161.405236 84.043502 
L 162.167357 72.56987 
L 162.929479 36.659991 
L 163.6916 52.86077 
L 164.453722 61.095213 
L 165.215843 25.0844 
L 165.588002 -1 
M 166.878491 -1 
L 167.502207 99.024843 
L 169.02645 67.261273 
L 169.788572 20.401632 
L 170.550693 67.125871 
L 171.312815 32.537043 
L 172.074936 92.358584 
L 172.837058 83.051007 
L 173.599179 68.82903 
L 174.361301 79.075887 
L 175.123422 91.722027 
L 175.885543 98.399856 
L 176.647665 97.657633 
L 178.171908 93.626719 
L 178.934029 92.097175 
L 179.696151 91.025662 
L 180.458272 91.328241 
L 181.220394 91.318729 
L 181.982515 90.713408 
L 182.744637 90.353999 
L 183.506758 90.353999 
L 184.268879 90.686295 
L 185.031001 91.311793 
L 185.793122 91.331443 
L 186.555244 91.033745 
L 187.317365 90.252585 
L 188.079487 89.282246 
L 188.841608 90.188049 
L 190.365851 92.882004 
L 191.127973 93.822054 
L 192.652216 83.247808 
L 193.414337 88.318003 
L 194.176458 85.451347 
L 194.93858 70.496367 
L 195.700701 66.180466 
L 197.224944 84.830841 
L 197.987066 89.592418 
L 198.749187 90.978557 
L 199.511309 90.055186 
L 200.27343 90.573332 
L 201.035552 91.846559 
L 201.797673 77.334315 
L 202.559794 59.179271 
L 203.321916 47.262736 
L 204.084037 88.389797 
L 204.846159 86.768268 
L 205.60828 86.183919 
L 206.370402 88.711108 
L 207.132523 89.737778 
L 207.894645 89.737778 
L 209.418888 89.132721 
L 210.94313 93.480942 
L 212.467373 89.726973 
L 213.229495 89.381226 
L 213.229495 89.381226 
" style="fill:none;stroke:#2ca02c;stroke-linecap:square;stroke-width:1.5;"/>
   </g>
   <g id="patch_3">
    <path d="M 54.56 112.732283 
L 54.56 10.8 
" style="fill:none;stroke:#000000;stroke-linecap:square;stroke-linejoin:miter;stroke-width:0.8;"/>
   </g>
   <g id="patch_4">
    <path d="M 54.56 112.732283 
L 213.137008 112.732283 
" style="fill:none;stroke:#000000;stroke-linecap:square;stroke-linejoin:miter;stroke-width:0.8;"/>
   </g>
   <g id="legend_1">
    <g id="patch_5">
     <path d="M 159.21107 42.020625 
L 208.937008 42.020625 
Q 210.137008 42.020625 210.137008 40.820625 
L 210.137008 15 
Q 210.137008 13.8 208.937008 13.8 
L 159.21107 13.8 
Q 158.01107 13.8 158.01107 15 
L 158.01107 40.820625 
Q 158.01107 42.020625 159.21107 42.020625 
z
" style="fill:#ffffff;opacity:0.8;stroke:#cccccc;stroke-linejoin:miter;"/>
    </g>
    <g id="line2d_12">
     <path d="M 160.41107 18.659062 
L 172.41107 18.659062 
" style="fill:none;stroke:#1f77b4;stroke-linecap:square;stroke-width:1.5;"/>
    </g>
    <g id="line2d_13"/>
    <g id="text_7">
     <!-- Upper IHR -->
     <g transform="translate(177.21107 20.759062)scale(0.06 -0.06)">
      <defs>
       <path d="M 8.6875 72.90625 
L 18.609375 72.90625 
L 18.609375 28.609375 
Q 18.609375 16.890625 22.84375 11.734375 
Q 27.09375 6.59375 36.625 6.59375 
Q 46.09375 6.59375 50.34375 11.734375 
Q 54.59375 16.890625 54.59375 28.609375 
L 54.59375 72.90625 
L 64.5 72.90625 
L 64.5 27.390625 
Q 64.5 13.140625 57.4375 5.859375 
Q 50.390625 -1.421875 36.625 -1.421875 
Q 22.796875 -1.421875 15.734375 5.859375 
Q 8.6875 13.140625 8.6875 27.390625 
z
" id="DejaVuSans-85"/>
       <path d="M 18.109375 8.203125 
L 18.109375 -20.796875 
L 9.078125 -20.796875 
L 9.078125 54.6875 
L 18.109375 54.6875 
L 18.109375 46.390625 
Q 20.953125 51.265625 25.265625 53.625 
Q 29.59375 56 35.59375 56 
Q 45.5625 56 51.78125 48.09375 
Q 58.015625 40.1875 58.015625 27.296875 
Q 58.015625 14.40625 51.78125 6.484375 
Q 45.5625 -1.421875 35.59375 -1.421875 
Q 29.59375 -1.421875 25.265625 0.953125 
Q 20.953125 3.328125 18.109375 8.203125 
z
M 48.6875 27.296875 
Q 48.6875 37.203125 44.609375 42.84375 
Q 40.53125 48.484375 33.40625 48.484375 
Q 26.265625 48.484375 22.1875 42.84375 
Q 18.109375 37.203125 18.109375 27.296875 
Q 18.109375 17.390625 22.1875 11.75 
Q 26.265625 6.109375 33.40625 6.109375 
Q 40.53125 6.109375 44.609375 11.75 
Q 48.6875 17.390625 48.6875 27.296875 
z
" id="DejaVuSans-112"/>
       <path d="M 41.109375 46.296875 
Q 39.59375 47.171875 37.8125 47.578125 
Q 36.03125 48 33.890625 48 
Q 26.265625 48 22.1875 43.046875 
Q 18.109375 38.09375 18.109375 28.8125 
L 18.109375 0 
L 9.078125 0 
L 9.078125 54.6875 
L 18.109375 54.6875 
L 18.109375 46.1875 
Q 20.953125 51.171875 25.484375 53.578125 
Q 30.03125 56 36.53125 56 
Q 37.453125 56 38.578125 55.875 
Q 39.703125 55.765625 41.0625 55.515625 
z
" id="DejaVuSans-114"/>
       <path d="M 9.8125 72.90625 
L 19.671875 72.90625 
L 19.671875 0 
L 9.8125 0 
z
" id="DejaVuSans-73"/>
       <path d="M 9.8125 72.90625 
L 19.671875 72.90625 
L 19.671875 43.015625 
L 55.515625 43.015625 
L 55.515625 72.90625 
L 65.375 72.90625 
L 65.375 0 
L 55.515625 0 
L 55.515625 34.71875 
L 19.671875 34.71875 
L 19.671875 0 
L 9.8125 0 
z
" id="DejaVuSans-72"/>
      </defs>
      <use xlink:href="#DejaVuSans-85"/>
      <use x="73.193359" xlink:href="#DejaVuSans-112"/>
      <use x="136.669922" xlink:href="#DejaVuSans-112"/>
      <use x="200.146484" xlink:href="#DejaVuSans-101"/>
      <use x="261.669922" xlink:href="#DejaVuSans-114"/>
      <use x="302.783203" xlink:href="#DejaVuSans-32"/>
      <use x="334.570312" xlink:href="#DejaVuSans-73"/>
      <use x="364.0625" xlink:href="#DejaVuSans-72"/>
      <use x="439.257812" xlink:href="#DejaVuSans-82"/>
     </g>
    </g>
    <g id="line2d_14">
     <path d="M 160.41107 27.465938 
L 172.41107 27.465938 
" style="fill:none;stroke:#ff7f0e;stroke-linecap:square;stroke-width:1.5;"/>
    </g>
    <g id="line2d_15"/>
    <g id="text_8">
     <!-- Lower IHR -->
     <g transform="translate(177.21107 29.565938)scale(0.06 -0.06)">
      <defs>
       <path d="M 9.8125 72.90625 
L 19.671875 72.90625 
L 19.671875 8.296875 
L 55.171875 8.296875 
L 55.171875 0 
L 9.8125 0 
z
" id="DejaVuSans-76"/>
       <path d="M 4.203125 54.6875 
L 13.1875 54.6875 
L 24.421875 12.015625 
L 35.59375 54.6875 
L 46.1875 54.6875 
L 57.421875 12.015625 
L 68.609375 54.6875 
L 77.59375 54.6875 
L 63.28125 0 
L 52.6875 0 
L 40.921875 44.828125 
L 29.109375 0 
L 18.5 0 
z
" id="DejaVuSans-119"/>
      </defs>
      <use xlink:href="#DejaVuSans-76"/>
      <use x="53.962891" xlink:href="#DejaVuSans-111"/>
      <use x="115.144531" xlink:href="#DejaVuSans-119"/>
      <use x="196.931641" xlink:href="#DejaVuSans-101"/>
      <use x="258.455078" xlink:href="#DejaVuSans-114"/>
      <use x="299.568359" xlink:href="#DejaVuSans-32"/>
      <use x="331.355469" xlink:href="#DejaVuSans-73"/>
      <use x="360.847656" xlink:href="#DejaVuSans-72"/>
      <use x="436.042969" xlink:href="#DejaVuSans-82"/>
     </g>
    </g>
    <g id="line2d_16">
     <path d="M 160.41107 36.272812 
L 172.41107 36.272812 
" style="fill:none;stroke:#2ca02c;stroke-linecap:square;stroke-width:1.5;"/>
    </g>
    <g id="line2d_17"/>
    <g id="text_9">
     <!-- IPR -->
     <g transform="translate(177.21107 38.372812)scale(0.06 -0.06)">
      <use xlink:href="#DejaVuSans-73"/>
      <use x="29.492188" xlink:href="#DejaVuSans-80"/>
      <use x="89.794922" xlink:href="#DejaVuSans-82"/>
     </g>
    </g>
   </g>
  </g>
 </g>
 <defs>
  <clipPath id="p18c6b9c912">
   <rect height="101.932283" width="158.577008" x="54.56" y="10.8"/>
  </clipPath>
 </defs>
</svg>
