<?xml version="1.0" encoding="utf-8" standalone="no"?>
<!DOCTYPE svg PUBLIC "-//W3C//DTD SVG 1.1//EN"
  "http://www.w3.org/Graphics/SVG/1.1/DTD/svg11.dtd">
<!-- Created with matplotlib (https://matplotlib.org/) -->
<svg height="141.732283pt" version="1.1" viewBox="0 0 223.937008 141.732283" width="223.937008pt" xmlns="http://www.w3.org/2000/svg" xmlns:xlink="http://www.w3.org/1999/xlink">
 <metadata>
  <rdf:RDF xmlns:cc="http://creativecommons.org/ns#" xmlns:dc="http://purl.org/dc/elements/1.1/" xmlns:rdf="http://www.w3.org/1999/02/22-rdf-syntax-ns#">
   <cc:Work>
    <dc:type rdf:resource="http://purl.org/dc/dcmitype/StillImage"/>
    <dc:date>2021-04-12T09:35:15.272139</dc:date>
    <dc:format>image/svg+xml</dc:format>
    <dc:creator>
     <cc:Agent>
      <dc:title>Matplotlib v3.3.2, https://matplotlib.org/</dc:title>
     </cc:Agent>
    </dc:creator>
   </cc:Work>
  </rdf:RDF>
 </metadata>
 <defs>
  <style type="text/css">*{stroke-linecap:butt;stroke-linejoin:round;}</style>
 </defs>
 <g id="figure_1">
  <g id="patch_1">
   <path d="M 0 141.732283 
L 223.937008 141.732283 
L 223.937008 0 
L 0 0 
z
" style="fill:#ffffff;"/>
  </g>
  <g id="axes_1">
   <g id="patch_2">
    <path d="M 54.56 112.732283 
L 213.137008 112.732283 
L 213.137008 10.8 
L 54.56 10.8 
z
" style="fill:#ffffff;"/>
   </g>
   <g id="matplotlib.axis_1">
    <g id="xtick_1">
     <g id="line2d_1">
      <defs>
       <path d="M 0 0 
L 0 3.5 
" id="md9598ea83c" style="stroke:#000000;stroke-width:0.8;"/>
      </defs>
      <g>
       <use style="stroke:#000000;stroke-width:0.8;" x="93.140421" xlink:href="#md9598ea83c" y="112.732283"/>
      </g>
     </g>
    </g>
    <g id="xtick_2">
     <g id="line2d_2">
      <g>
       <use style="stroke:#000000;stroke-width:0.8;" x="135.984667" xlink:href="#md9598ea83c" y="112.732283"/>
      </g>
     </g>
    </g>
    <g id="xtick_3">
     <g id="line2d_3">
      <g>
       <use style="stroke:#000000;stroke-width:0.8;" x="178.828913" xlink:href="#md9598ea83c" y="112.732283"/>
      </g>
     </g>
    </g>
    <g id="text_1">
     <!-- Time (Seconds) -->
     <g transform="translate(102.863504 129.811033)scale(0.08 -0.08)">
      <defs>
       <path d="M -0.296875 72.90625 
L 61.375 72.90625 
L 61.375 64.59375 
L 35.5 64.59375 
L 35.5 0 
L 25.59375 0 
L 25.59375 64.59375 
L -0.296875 64.59375 
z
" id="DejaVuSans-84"/>
       <path d="M 9.421875 54.6875 
L 18.40625 54.6875 
L 18.40625 0 
L 9.421875 0 
z
M 9.421875 75.984375 
L 18.40625 75.984375 
L 18.40625 64.59375 
L 9.421875 64.59375 
z
" id="DejaVuSans-105"/>
       <path d="M 52 44.1875 
Q 55.375 50.25 60.0625 53.125 
Q 64.75 56 71.09375 56 
Q 79.640625 56 84.28125 50.015625 
Q 88.921875 44.046875 88.921875 33.015625 
L 88.921875 0 
L 79.890625 0 
L 79.890625 32.71875 
Q 79.890625 40.578125 77.09375 44.375 
Q 74.3125 48.1875 68.609375 48.1875 
Q 61.625 48.1875 57.5625 43.546875 
Q 53.515625 38.921875 53.515625 30.90625 
L 53.515625 0 
L 44.484375 0 
L 44.484375 32.71875 
Q 44.484375 40.625 41.703125 44.40625 
Q 38.921875 48.1875 33.109375 48.1875 
Q 26.21875 48.1875 22.15625 43.53125 
Q 18.109375 38.875 18.109375 30.90625 
L 18.109375 0 
L 9.078125 0 
L 9.078125 54.6875 
L 18.109375 54.6875 
L 18.109375 46.1875 
Q 21.1875 51.21875 25.484375 53.609375 
Q 29.78125 56 35.6875 56 
Q 41.65625 56 45.828125 52.96875 
Q 50 49.953125 52 44.1875 
z
" id="DejaVuSans-109"/>
       <path d="M 56.203125 29.59375 
L 56.203125 25.203125 
L 14.890625 25.203125 
Q 15.484375 15.921875 20.484375 11.0625 
Q 25.484375 6.203125 34.421875 6.203125 
Q 39.59375 6.203125 44.453125 7.46875 
Q 49.3125 8.734375 54.109375 11.28125 
L 54.109375 2.78125 
Q 49.265625 0.734375 44.1875 -0.34375 
Q 39.109375 -1.421875 33.890625 -1.421875 
Q 20.796875 -1.421875 13.15625 6.1875 
Q 5.515625 13.8125 5.515625 26.8125 
Q 5.515625 40.234375 12.765625 48.109375 
Q 20.015625 56 32.328125 56 
Q 43.359375 56 49.78125 48.890625 
Q 56.203125 41.796875 56.203125 29.59375 
z
M 47.21875 32.234375 
Q 47.125 39.59375 43.09375 43.984375 
Q 39.0625 48.390625 32.421875 48.390625 
Q 24.90625 48.390625 20.390625 44.140625 
Q 15.875 39.890625 15.1875 32.171875 
z
" id="DejaVuSans-101"/>
       <path id="DejaVuSans-32"/>
       <path d="M 31 75.875 
Q 24.46875 64.65625 21.28125 53.65625 
Q 18.109375 42.671875 18.109375 31.390625 
Q 18.109375 20.125 21.3125 9.0625 
Q 24.515625 -2 31 -13.1875 
L 23.1875 -13.1875 
Q 15.875 -1.703125 12.234375 9.375 
Q 8.59375 20.453125 8.59375 31.390625 
Q 8.59375 42.28125 12.203125 53.3125 
Q 15.828125 64.359375 23.1875 75.875 
z
" id="DejaVuSans-40"/>
       <path d="M 53.515625 70.515625 
L 53.515625 60.890625 
Q 47.90625 63.578125 42.921875 64.890625 
Q 37.9375 66.21875 33.296875 66.21875 
Q 25.25 66.21875 20.875 63.09375 
Q 16.5 59.96875 16.5 54.203125 
Q 16.5 49.359375 19.40625 46.890625 
Q 22.3125 44.4375 30.421875 42.921875 
L 36.375 41.703125 
Q 47.40625 39.59375 52.65625 34.296875 
Q 57.90625 29 57.90625 20.125 
Q 57.90625 9.515625 50.796875 4.046875 
Q 43.703125 -1.421875 29.984375 -1.421875 
Q 24.8125 -1.421875 18.96875 -0.25 
Q 13.140625 0.921875 6.890625 3.21875 
L 6.890625 13.375 
Q 12.890625 10.015625 18.65625 8.296875 
Q 24.421875 6.59375 29.984375 6.59375 
Q 38.421875 6.59375 43.015625 9.90625 
Q 47.609375 13.234375 47.609375 19.390625 
Q 47.609375 24.75 44.3125 27.78125 
Q 41.015625 30.8125 33.5 32.328125 
L 27.484375 33.5 
Q 16.453125 35.6875 11.515625 40.375 
Q 6.59375 45.0625 6.59375 53.421875 
Q 6.59375 63.09375 13.40625 68.65625 
Q 20.21875 74.21875 32.171875 74.21875 
Q 37.3125 74.21875 42.625 73.28125 
Q 47.953125 72.359375 53.515625 70.515625 
z
" id="DejaVuSans-83"/>
       <path d="M 48.78125 52.59375 
L 48.78125 44.1875 
Q 44.96875 46.296875 41.140625 47.34375 
Q 37.3125 48.390625 33.40625 48.390625 
Q 24.65625 48.390625 19.8125 42.84375 
Q 14.984375 37.3125 14.984375 27.296875 
Q 14.984375 17.28125 19.8125 11.734375 
Q 24.65625 6.203125 33.40625 6.203125 
Q 37.3125 6.203125 41.140625 7.25 
Q 44.96875 8.296875 48.78125 10.40625 
L 48.78125 2.09375 
Q 45.015625 0.34375 40.984375 -0.53125 
Q 36.96875 -1.421875 32.421875 -1.421875 
Q 20.0625 -1.421875 12.78125 6.34375 
Q 5.515625 14.109375 5.515625 27.296875 
Q 5.515625 40.671875 12.859375 48.328125 
Q 20.21875 56 33.015625 56 
Q 37.15625 56 41.109375 55.140625 
Q 45.0625 54.296875 48.78125 52.59375 
z
" id="DejaVuSans-99"/>
       <path d="M 30.609375 48.390625 
Q 23.390625 48.390625 19.1875 42.75 
Q 14.984375 37.109375 14.984375 27.296875 
Q 14.984375 17.484375 19.15625 11.84375 
Q 23.34375 6.203125 30.609375 6.203125 
Q 37.796875 6.203125 41.984375 11.859375 
Q 46.1875 17.53125 46.1875 27.296875 
Q 46.1875 37.015625 41.984375 42.703125 
Q 37.796875 48.390625 30.609375 48.390625 
z
M 30.609375 56 
Q 42.328125 56 49.015625 48.375 
Q 55.71875 40.765625 55.71875 27.296875 
Q 55.71875 13.875 49.015625 6.21875 
Q 42.328125 -1.421875 30.609375 -1.421875 
Q 18.84375 -1.421875 12.171875 6.21875 
Q 5.515625 13.875 5.515625 27.296875 
Q 5.515625 40.765625 12.171875 48.375 
Q 18.84375 56 30.609375 56 
z
" id="DejaVuSans-111"/>
       <path d="M 54.890625 33.015625 
L 54.890625 0 
L 45.90625 0 
L 45.90625 32.71875 
Q 45.90625 40.484375 42.875 44.328125 
Q 39.84375 48.1875 33.796875 48.1875 
Q 26.515625 48.1875 22.3125 43.546875 
Q 18.109375 38.921875 18.109375 30.90625 
L 18.109375 0 
L 9.078125 0 
L 9.078125 54.6875 
L 18.109375 54.6875 
L 18.109375 46.1875 
Q 21.34375 51.125 25.703125 53.5625 
Q 30.078125 56 35.796875 56 
Q 45.21875 56 50.046875 50.171875 
Q 54.890625 44.34375 54.890625 33.015625 
z
" id="DejaVuSans-110"/>
       <path d="M 45.40625 46.390625 
L 45.40625 75.984375 
L 54.390625 75.984375 
L 54.390625 0 
L 45.40625 0 
L 45.40625 8.203125 
Q 42.578125 3.328125 38.25 0.953125 
Q 33.9375 -1.421875 27.875 -1.421875 
Q 17.96875 -1.421875 11.734375 6.484375 
Q 5.515625 14.40625 5.515625 27.296875 
Q 5.515625 40.1875 11.734375 48.09375 
Q 17.96875 56 27.875 56 
Q 33.9375 56 38.25 53.625 
Q 42.578125 51.265625 45.40625 46.390625 
z
M 14.796875 27.296875 
Q 14.796875 17.390625 18.875 11.75 
Q 22.953125 6.109375 30.078125 6.109375 
Q 37.203125 6.109375 41.296875 11.75 
Q 45.40625 17.390625 45.40625 27.296875 
Q 45.40625 37.203125 41.296875 42.84375 
Q 37.203125 48.484375 30.078125 48.484375 
Q 22.953125 48.484375 18.875 42.84375 
Q 14.796875 37.203125 14.796875 27.296875 
z
" id="DejaVuSans-100"/>
       <path d="M 44.28125 53.078125 
L 44.28125 44.578125 
Q 40.484375 46.53125 36.375 47.5 
Q 32.28125 48.484375 27.875 48.484375 
Q 21.1875 48.484375 17.84375 46.4375 
Q 14.5 44.390625 14.5 40.28125 
Q 14.5 37.15625 16.890625 35.375 
Q 19.28125 33.59375 26.515625 31.984375 
L 29.59375 31.296875 
Q 39.15625 29.25 43.1875 25.515625 
Q 47.21875 21.78125 47.21875 15.09375 
Q 47.21875 7.46875 41.1875 3.015625 
Q 35.15625 -1.421875 24.609375 -1.421875 
Q 20.21875 -1.421875 15.453125 -0.5625 
Q 10.6875 0.296875 5.421875 2 
L 5.421875 11.28125 
Q 10.40625 8.6875 15.234375 7.390625 
Q 20.0625 6.109375 24.8125 6.109375 
Q 31.15625 6.109375 34.5625 8.28125 
Q 37.984375 10.453125 37.984375 14.40625 
Q 37.984375 18.0625 35.515625 20.015625 
Q 33.0625 21.96875 24.703125 23.78125 
L 21.578125 24.515625 
Q 13.234375 26.265625 9.515625 29.90625 
Q 5.8125 33.546875 5.8125 39.890625 
Q 5.8125 47.609375 11.28125 51.796875 
Q 16.75 56 26.8125 56 
Q 31.78125 56 36.171875 55.265625 
Q 40.578125 54.546875 44.28125 53.078125 
z
" id="DejaVuSans-115"/>
       <path d="M 8.015625 75.875 
L 15.828125 75.875 
Q 23.140625 64.359375 26.78125 53.3125 
Q 30.421875 42.28125 30.421875 31.390625 
Q 30.421875 20.453125 26.78125 9.375 
Q 23.140625 -1.703125 15.828125 -13.1875 
L 8.015625 -13.1875 
Q 14.5 -2 17.703125 9.0625 
Q 20.90625 20.125 20.90625 31.390625 
Q 20.90625 42.671875 17.703125 53.65625 
Q 14.5 64.65625 8.015625 75.875 
z
" id="DejaVuSans-41"/>
      </defs>
      <use xlink:href="#DejaVuSans-84"/>
      <use x="57.958984" xlink:href="#DejaVuSans-105"/>
      <use x="85.742188" xlink:href="#DejaVuSans-109"/>
      <use x="183.154297" xlink:href="#DejaVuSans-101"/>
      <use x="244.677734" xlink:href="#DejaVuSans-32"/>
      <use x="276.464844" xlink:href="#DejaVuSans-40"/>
      <use x="315.478516" xlink:href="#DejaVuSans-83"/>
      <use x="378.955078" xlink:href="#DejaVuSans-101"/>
      <use x="440.478516" xlink:href="#DejaVuSans-99"/>
      <use x="495.458984" xlink:href="#DejaVuSans-111"/>
      <use x="556.640625" xlink:href="#DejaVuSans-110"/>
      <use x="620.019531" xlink:href="#DejaVuSans-100"/>
      <use x="683.496094" xlink:href="#DejaVuSans-115"/>
      <use x="735.595703" xlink:href="#DejaVuSans-41"/>
     </g>
    </g>
   </g>
   <g id="matplotlib.axis_2">
    <g id="ytick_1">
     <g id="line2d_4">
      <defs>
       <path d="M 0 0 
L -3.5 0 
" id="m40d8424441" style="stroke:#000000;stroke-width:0.8;"/>
      </defs>
      <g>
       <use style="stroke:#000000;stroke-width:0.8;" x="54.56" xlink:href="#m40d8424441" y="99.387621"/>
      </g>
     </g>
     <g id="text_2">
      <!-- 50 -->
      <g transform="translate(34.835 103.18684)scale(0.1 -0.1)">
       <defs>
        <path d="M 10.796875 72.90625 
L 49.515625 72.90625 
L 49.515625 64.59375 
L 19.828125 64.59375 
L 19.828125 46.734375 
Q 21.96875 47.46875 24.109375 47.828125 
Q 26.265625 48.1875 28.421875 48.1875 
Q 40.625 48.1875 47.75 41.5 
Q 54.890625 34.8125 54.890625 23.390625 
Q 54.890625 11.625 47.5625 5.09375 
Q 40.234375 -1.421875 26.90625 -1.421875 
Q 22.3125 -1.421875 17.546875 -0.640625 
Q 12.796875 0.140625 7.71875 1.703125 
L 7.71875 11.625 
Q 12.109375 9.234375 16.796875 8.0625 
Q 21.484375 6.890625 26.703125 6.890625 
Q 35.15625 6.890625 40.078125 11.328125 
Q 45.015625 15.765625 45.015625 23.390625 
Q 45.015625 31 40.078125 35.4375 
Q 35.15625 39.890625 26.703125 39.890625 
Q 22.75 39.890625 18.8125 39.015625 
Q 14.890625 38.140625 10.796875 36.28125 
z
" id="DejaVuSans-53"/>
        <path d="M 31.78125 66.40625 
Q 24.171875 66.40625 20.328125 58.90625 
Q 16.5 51.421875 16.5 36.375 
Q 16.5 21.390625 20.328125 13.890625 
Q 24.171875 6.390625 31.78125 6.390625 
Q 39.453125 6.390625 43.28125 13.890625 
Q 47.125 21.390625 47.125 36.375 
Q 47.125 51.421875 43.28125 58.90625 
Q 39.453125 66.40625 31.78125 66.40625 
z
M 31.78125 74.21875 
Q 44.046875 74.21875 50.515625 64.515625 
Q 56.984375 54.828125 56.984375 36.375 
Q 56.984375 17.96875 50.515625 8.265625 
Q 44.046875 -1.421875 31.78125 -1.421875 
Q 19.53125 -1.421875 13.0625 8.265625 
Q 6.59375 17.96875 6.59375 36.375 
Q 6.59375 54.828125 13.0625 64.515625 
Q 19.53125 74.21875 31.78125 74.21875 
z
" id="DejaVuSans-48"/>
       </defs>
       <use xlink:href="#DejaVuSans-53"/>
       <use x="63.623047" xlink:href="#DejaVuSans-48"/>
      </g>
     </g>
    </g>
    <g id="ytick_2">
     <g id="line2d_5">
      <g>
       <use style="stroke:#000000;stroke-width:0.8;" x="54.56" xlink:href="#m40d8424441" y="78.344552"/>
      </g>
     </g>
     <g id="text_3">
      <!-- 55 -->
      <g transform="translate(34.835 82.143771)scale(0.1 -0.1)">
       <use xlink:href="#DejaVuSans-53"/>
       <use x="63.623047" xlink:href="#DejaVuSans-53"/>
      </g>
     </g>
    </g>
    <g id="ytick_3">
     <g id="line2d_6">
      <g>
       <use style="stroke:#000000;stroke-width:0.8;" x="54.56" xlink:href="#m40d8424441" y="57.301483"/>
      </g>
     </g>
     <g id="text_4">
      <!-- 60 -->
      <g transform="translate(34.835 61.100702)scale(0.1 -0.1)">
       <defs>
        <path d="M 33.015625 40.375 
Q 26.375 40.375 22.484375 35.828125 
Q 18.609375 31.296875 18.609375 23.390625 
Q 18.609375 15.53125 22.484375 10.953125 
Q 26.375 6.390625 33.015625 6.390625 
Q 39.65625 6.390625 43.53125 10.953125 
Q 47.40625 15.53125 47.40625 23.390625 
Q 47.40625 31.296875 43.53125 35.828125 
Q 39.65625 40.375 33.015625 40.375 
z
M 52.59375 71.296875 
L 52.59375 62.3125 
Q 48.875 64.0625 45.09375 64.984375 
Q 41.3125 65.921875 37.59375 65.921875 
Q 27.828125 65.921875 22.671875 59.328125 
Q 17.53125 52.734375 16.796875 39.40625 
Q 19.671875 43.65625 24.015625 45.921875 
Q 28.375 48.1875 33.59375 48.1875 
Q 44.578125 48.1875 50.953125 41.515625 
Q 57.328125 34.859375 57.328125 23.390625 
Q 57.328125 12.15625 50.6875 5.359375 
Q 44.046875 -1.421875 33.015625 -1.421875 
Q 20.359375 -1.421875 13.671875 8.265625 
Q 6.984375 17.96875 6.984375 36.375 
Q 6.984375 53.65625 15.1875 63.9375 
Q 23.390625 74.21875 37.203125 74.21875 
Q 40.921875 74.21875 44.703125 73.484375 
Q 48.484375 72.75 52.59375 71.296875 
z
" id="DejaVuSans-54"/>
       </defs>
       <use xlink:href="#DejaVuSans-54"/>
       <use x="63.623047" xlink:href="#DejaVuSans-48"/>
      </g>
     </g>
    </g>
    <g id="ytick_4">
     <g id="line2d_7">
      <g>
       <use style="stroke:#000000;stroke-width:0.8;" x="54.56" xlink:href="#m40d8424441" y="36.258414"/>
      </g>
     </g>
     <g id="text_5">
      <!-- 65 -->
      <g transform="translate(34.835 40.057633)scale(0.1 -0.1)">
       <use xlink:href="#DejaVuSans-54"/>
       <use x="63.623047" xlink:href="#DejaVuSans-53"/>
      </g>
     </g>
    </g>
    <g id="ytick_5">
     <g id="line2d_8">
      <g>
       <use style="stroke:#000000;stroke-width:0.8;" x="54.56" xlink:href="#m40d8424441" y="15.215345"/>
      </g>
     </g>
     <g id="text_6">
      <!-- 70 -->
      <g transform="translate(34.835 19.014564)scale(0.1 -0.1)">
       <defs>
        <path d="M 8.203125 72.90625 
L 55.078125 72.90625 
L 55.078125 68.703125 
L 28.609375 0 
L 18.3125 0 
L 43.21875 64.59375 
L 8.203125 64.59375 
z
" id="DejaVuSans-55"/>
       </defs>
       <use xlink:href="#DejaVuSans-55"/>
       <use x="63.623047" xlink:href="#DejaVuSans-48"/>
      </g>
     </g>
    </g>
    <g id="text_7">
     <!-- Rate (BPM) -->
     <g transform="translate(29.17125 83.936142)rotate(-90)scale(0.08 -0.08)">
      <defs>
       <path d="M 44.390625 34.1875 
Q 47.5625 33.109375 50.5625 29.59375 
Q 53.5625 26.078125 56.59375 19.921875 
L 66.609375 0 
L 56 0 
L 46.6875 18.703125 
Q 43.0625 26.03125 39.671875 28.421875 
Q 36.28125 30.8125 30.421875 30.8125 
L 19.671875 30.8125 
L 19.671875 0 
L 9.8125 0 
L 9.8125 72.90625 
L 32.078125 72.90625 
Q 44.578125 72.90625 50.734375 67.671875 
Q 56.890625 62.453125 56.890625 51.90625 
Q 56.890625 45.015625 53.6875 40.46875 
Q 50.484375 35.9375 44.390625 34.1875 
z
M 19.671875 64.796875 
L 19.671875 38.921875 
L 32.078125 38.921875 
Q 39.203125 38.921875 42.84375 42.21875 
Q 46.484375 45.515625 46.484375 51.90625 
Q 46.484375 58.296875 42.84375 61.546875 
Q 39.203125 64.796875 32.078125 64.796875 
z
" id="DejaVuSans-82"/>
       <path d="M 34.28125 27.484375 
Q 23.390625 27.484375 19.1875 25 
Q 14.984375 22.515625 14.984375 16.5 
Q 14.984375 11.71875 18.140625 8.90625 
Q 21.296875 6.109375 26.703125 6.109375 
Q 34.1875 6.109375 38.703125 11.40625 
Q 43.21875 16.703125 43.21875 25.484375 
L 43.21875 27.484375 
z
M 52.203125 31.203125 
L 52.203125 0 
L 43.21875 0 
L 43.21875 8.296875 
Q 40.140625 3.328125 35.546875 0.953125 
Q 30.953125 -1.421875 24.3125 -1.421875 
Q 15.921875 -1.421875 10.953125 3.296875 
Q 6 8.015625 6 15.921875 
Q 6 25.140625 12.171875 29.828125 
Q 18.359375 34.515625 30.609375 34.515625 
L 43.21875 34.515625 
L 43.21875 35.40625 
Q 43.21875 41.609375 39.140625 45 
Q 35.0625 48.390625 27.6875 48.390625 
Q 23 48.390625 18.546875 47.265625 
Q 14.109375 46.140625 10.015625 43.890625 
L 10.015625 52.203125 
Q 14.9375 54.109375 19.578125 55.046875 
Q 24.21875 56 28.609375 56 
Q 40.484375 56 46.34375 49.84375 
Q 52.203125 43.703125 52.203125 31.203125 
z
" id="DejaVuSans-97"/>
       <path d="M 18.3125 70.21875 
L 18.3125 54.6875 
L 36.8125 54.6875 
L 36.8125 47.703125 
L 18.3125 47.703125 
L 18.3125 18.015625 
Q 18.3125 11.328125 20.140625 9.421875 
Q 21.96875 7.515625 27.59375 7.515625 
L 36.8125 7.515625 
L 36.8125 0 
L 27.59375 0 
Q 17.1875 0 13.234375 3.875 
Q 9.28125 7.765625 9.28125 18.015625 
L 9.28125 47.703125 
L 2.6875 47.703125 
L 2.6875 54.6875 
L 9.28125 54.6875 
L 9.28125 70.21875 
z
" id="DejaVuSans-116"/>
       <path d="M 19.671875 34.8125 
L 19.671875 8.109375 
L 35.5 8.109375 
Q 43.453125 8.109375 47.28125 11.40625 
Q 51.125 14.703125 51.125 21.484375 
Q 51.125 28.328125 47.28125 31.5625 
Q 43.453125 34.8125 35.5 34.8125 
z
M 19.671875 64.796875 
L 19.671875 42.828125 
L 34.28125 42.828125 
Q 41.5 42.828125 45.03125 45.53125 
Q 48.578125 48.25 48.578125 53.8125 
Q 48.578125 59.328125 45.03125 62.0625 
Q 41.5 64.796875 34.28125 64.796875 
z
M 9.8125 72.90625 
L 35.015625 72.90625 
Q 46.296875 72.90625 52.390625 68.21875 
Q 58.5 63.53125 58.5 54.890625 
Q 58.5 48.1875 55.375 44.234375 
Q 52.25 40.28125 46.1875 39.3125 
Q 53.46875 37.75 57.5 32.78125 
Q 61.53125 27.828125 61.53125 20.40625 
Q 61.53125 10.640625 54.890625 5.3125 
Q 48.25 0 35.984375 0 
L 9.8125 0 
z
" id="DejaVuSans-66"/>
       <path d="M 19.671875 64.796875 
L 19.671875 37.40625 
L 32.078125 37.40625 
Q 38.96875 37.40625 42.71875 40.96875 
Q 46.484375 44.53125 46.484375 51.125 
Q 46.484375 57.671875 42.71875 61.234375 
Q 38.96875 64.796875 32.078125 64.796875 
z
M 9.8125 72.90625 
L 32.078125 72.90625 
Q 44.34375 72.90625 50.609375 67.359375 
Q 56.890625 61.8125 56.890625 51.125 
Q 56.890625 40.328125 50.609375 34.8125 
Q 44.34375 29.296875 32.078125 29.296875 
L 19.671875 29.296875 
L 19.671875 0 
L 9.8125 0 
z
" id="DejaVuSans-80"/>
       <path d="M 9.8125 72.90625 
L 24.515625 72.90625 
L 43.109375 23.296875 
L 61.8125 72.90625 
L 76.515625 72.90625 
L 76.515625 0 
L 66.890625 0 
L 66.890625 64.015625 
L 48.09375 14.015625 
L 38.1875 14.015625 
L 19.390625 64.015625 
L 19.390625 0 
L 9.8125 0 
z
" id="DejaVuSans-77"/>
      </defs>
      <use xlink:href="#DejaVuSans-82"/>
      <use x="67.232422" xlink:href="#DejaVuSans-97"/>
      <use x="128.511719" xlink:href="#DejaVuSans-116"/>
      <use x="167.720703" xlink:href="#DejaVuSans-101"/>
      <use x="229.244141" xlink:href="#DejaVuSans-32"/>
      <use x="261.03125" xlink:href="#DejaVuSans-40"/>
      <use x="300.044922" xlink:href="#DejaVuSans-66"/>
      <use x="368.648438" xlink:href="#DejaVuSans-80"/>
      <use x="428.951172" xlink:href="#DejaVuSans-77"/>
      <use x="515.230469" xlink:href="#DejaVuSans-41"/>
     </g>
    </g>
   </g>
   <g id="line2d_9">
    <path clip-path="url(#pabb102dcd5)" d="M 54.152157 56.208377 
L 54.5806 57.902714 
L 55.437485 57.902714 
L 56.29437 51.864136 
L 56.722812 54.117834 
L 57.151254 58.08384 
L 57.579697 58.108713 
L 58.008139 55.846757 
L 58.436582 54.725233 
L 58.865024 55.117374 
L 59.293467 55.822041 
L 60.150352 58.724324 
L 61.007237 58.724324 
L 61.864122 52.087545 
L 62.292564 51.406799 
L 62.721006 51.816475 
L 63.149449 51.002679 
L 63.577891 49.351772 
L 64.006334 47.053597 
L 64.434776 43.998447 
L 64.863219 41.875266 
L 65.720104 41.095901 
L 66.148546 41.095901 
L 66.576989 40.180563 
L 67.005431 36.83304 
L 67.433874 34.387974 
L 67.862316 34.890933 
L 68.290758 34.631899 
L 69.147643 30.19801 
L 69.576086 30.19801 
L 70.004528 29.708075 
L 70.432971 28.10008 
L 70.861413 28.003456 
L 71.289856 30.694469 
L 71.718298 32.250211 
L 72.146741 32.250211 
L 72.575183 31.777879 
L 73.86051 28.613182 
L 74.288953 29.247186 
L 75.145838 33.160383 
L 75.57428 34.693306 
L 76.002723 34.955035 
L 76.431165 34.454049 
L 76.859608 35.528404 
L 77.28805 37.516847 
L 78.144935 45.861984 
L 78.573377 47.292093 
L 79.00182 46.860614 
L 79.430262 46.895194 
L 79.858705 47.328289 
L 80.287147 47.951821 
L 80.71559 48.80519 
L 81.144032 50.525711 
L 81.572475 53.792025 
L 82.000917 56.047801 
L 82.857802 54.525876 
L 83.714687 53.73589 
L 84.571572 59.64937 
L 85.000014 60.350126 
L 85.428457 60.350126 
L 85.856899 58.876189 
L 86.285342 56.255857 
L 86.713784 55.102275 
L 87.999112 60.115965 
L 88.427554 61.947484 
L 89.284439 60.507612 
L 90.141324 57.711681 
L 90.569766 57.506701 
L 92.283536 60.561792 
L 93.140421 62.72926 
L 93.997306 60.618217 
L 94.425749 61.958852 
L 94.854191 64.10382 
L 95.282633 65.459562 
L 95.711076 66.140459 
L 96.139518 65.952483 
L 96.996403 61.145883 
L 97.853288 58.955356 
L 98.281731 60.452979 
L 98.710173 62.64375 
L 99.138616 63.946525 
L 99.567058 64.641723 
L 99.9955 64.100929 
L 100.852385 58.828101 
L 101.70927 61.042014 
L 102.994598 56.81532 
L 103.42304 56.432947 
L 103.851483 55.060888 
L 104.708368 50.703074 
L 105.565252 48.111229 
L 107.279022 40.991291 
L 108.135907 34.296245 
L 108.992792 38.223379 
L 109.849677 40.135818 
L 110.706562 36.333123 
L 111.563447 41.928296 
L 113.277217 45.619025 
L 113.705659 45.751528 
L 114.134102 45.751528 
L 114.562544 47.746719 
L 114.990987 50.326361 
L 115.419429 50.53631 
L 115.847871 49.707856 
L 116.704756 47.349212 
L 117.133199 48.028536 
L 117.990084 53.294733 
L 118.418526 54.488393 
L 118.846969 54.937674 
L 119.703854 51.112345 
L 120.560739 51.112345 
L 121.417623 58.080664 
L 121.846066 58.108109 
L 122.274508 57.356912 
L 122.702951 55.615054 
L 123.131393 53.278797 
L 123.559836 53.046135 
L 123.988278 55.433737 
L 124.416721 56.955722 
L 125.273606 56.24176 
L 126.130491 56.24176 
L 126.987375 56.994267 
L 127.415818 56.163506 
L 127.84426 55.008075 
L 128.272703 54.316036 
L 128.701145 53.921043 
L 129.129588 54.240051 
L 129.55803 55.420783 
L 129.986473 55.522166 
L 130.843358 50.890645 
L 132.128685 46.250743 
L 132.557127 44.946538 
L 133.414012 44.834457 
L 134.270897 40.656662 
L 135.127782 35.886919 
L 135.556225 35.268152 
L 135.984667 35.268152 
L 136.41311 32.574339 
L 136.841552 28.982587 
L 137.269994 27.283826 
L 137.698437 26.190042 
L 138.126879 27.78811 
L 138.555322 29.975821 
L 138.983764 29.720317 
L 139.412207 29.188625 
L 140.697534 32.266449 
L 141.125977 33.474545 
L 141.982862 43.993812 
L 142.839746 46.661729 
L 143.696631 47.527919 
L 144.553516 56.25905 
L 144.981959 58.307707 
L 145.410401 59.810176 
L 145.838844 59.640982 
L 146.267286 58.534025 
L 146.695729 59.616973 
L 147.124171 63.606523 
L 147.552614 66.216131 
L 148.409498 62.799577 
L 149.266383 60.634973 
L 149.694826 61.667359 
L 150.123268 63.461039 
L 150.551711 63.950679 
L 150.980153 63.253058 
L 151.408596 62.052192 
L 152.265481 57.104768 
L 153.97925 60.101338 
L 154.407693 59.861811 
L 154.836135 59.126466 
L 155.264578 58.724324 
L 155.69302 58.724324 
L 156.121463 58.915255 
L 156.978348 60.233988 
L 157.835233 56.517587 
L 158.263675 56.892997 
L 158.692117 57.657753 
L 159.549002 59.781977 
L 159.977445 59.435543 
L 160.83433 55.913263 
L 161.262772 54.745273 
L 161.691215 54.043327 
L 162.5481 60.229306 
L 163.404985 58.90816 
L 164.261869 55.402118 
L 164.690312 55.204605 
L 165.118754 56.372595 
L 165.547197 56.302335 
L 166.404082 52.215028 
L 167.260967 46.989091 
L 168.117852 55.369553 
L 169.403179 50.079424 
L 169.831621 48.832122 
L 170.260064 51.06478 
L 170.688506 54.766755 
L 171.116949 56.24176 
L 171.545391 56.24176 
L 171.973834 54.525162 
L 172.402276 50.530171 
L 172.830719 48.736155 
L 173.687604 57.502062 
L 174.544488 62.705541 
L 175.401373 60.618217 
L 176.258258 55.764544 
L 176.686701 56.005083 
L 177.115143 58.691873 
L 177.543586 60.627674 
L 177.972028 61.352698 
L 178.400471 61.766842 
L 179.257356 59.599374 
L 180.11424 63.06641 
L 180.542683 63.533751 
L 180.971125 63.533751 
L 181.399568 62.278049 
L 181.82801 59.766646 
L 182.256453 58.380082 
L 183.113338 62.003024 
L 183.970223 63.422829 
L 184.827108 56.151954 
L 185.25555 54.792632 
L 185.683992 55.184774 
L 186.112435 54.698662 
L 186.96932 51.281212 
L 187.826205 46.916033 
L 189.111532 52.404021 
L 189.539975 54.445113 
L 190.39686 48.249098 
L 190.825302 47.90307 
L 191.253744 48.331341 
L 191.682187 50.196569 
L 192.110629 52.691476 
L 192.539072 54.406091 
L 192.967514 55.586823 
L 193.395957 54.829087 
L 193.824399 51.656768 
L 194.252842 49.804965 
L 195.538169 55.146335 
L 195.966611 57.02975 
L 196.823496 53.150201 
L 197.680381 51.352933 
L 198.108824 52.531812 
L 198.537266 54.550609 
L 198.965709 55.849208 
L 199.394151 56.622256 
L 199.822594 55.942482 
L 200.251036 53.20683 
L 200.679479 52.131218 
L 201.536363 60.269697 
L 202.393248 58.799008 
L 203.250133 56.577481 
L 203.678576 56.779479 
L 204.963903 59.048889 
L 205.392346 58.62967 
L 206.249231 53.420098 
L 207.106115 49.367709 
L 208.391443 53.900889 
L 208.819885 55.094549 
L 209.248328 53.327239 
L 209.67677 50.531382 
L 210.105213 51.01014 
L 210.533655 53.878482 
L 210.962098 55.584124 
L 211.39054 55.972039 
L 211.818982 55.150331 
L 212.247425 51.568205 
L 212.675867 49.058465 
L 213.532752 57.914451 
L 213.532752 57.914451 
" style="fill:none;stroke:#1f77b4;stroke-linecap:square;stroke-width:1.5;"/>
   </g>
   <g id="line2d_10">
    <path clip-path="url(#pabb102dcd5)" d="M 54.152157 98.294515 
L 54.5806 99.988852 
L 55.437485 99.988852 
L 56.29437 93.950274 
L 56.722812 96.203972 
L 57.151254 100.169978 
L 57.579697 100.194851 
L 58.008139 97.932895 
L 58.436582 96.811371 
L 58.865024 97.203512 
L 59.293467 97.908179 
L 60.150352 100.810462 
L 61.007237 100.810462 
L 61.864122 94.173683 
L 62.292564 93.492937 
L 62.721006 93.902613 
L 63.149449 93.088817 
L 63.577891 91.43791 
L 64.006334 89.139735 
L 64.434776 86.084585 
L 64.863219 83.961404 
L 65.720104 83.182039 
L 66.148546 83.182039 
L 66.576989 82.266701 
L 67.005431 78.919178 
L 67.433874 76.474112 
L 67.862316 76.977071 
L 68.290758 76.718037 
L 69.147643 72.284148 
L 69.576086 72.284148 
L 70.004528 71.794213 
L 70.432971 70.186218 
L 70.861413 70.089593 
L 71.289856 72.780607 
L 71.718298 74.336349 
L 72.146741 74.336349 
L 72.575183 73.864017 
L 73.86051 70.69932 
L 74.288953 71.333324 
L 75.145838 75.246521 
L 75.57428 76.779444 
L 76.002723 77.041173 
L 76.431165 76.540187 
L 76.859608 77.614542 
L 77.28805 79.602985 
L 78.144935 87.948122 
L 78.573377 89.378231 
L 79.00182 88.946752 
L 79.430262 88.981332 
L 79.858705 89.414427 
L 80.287147 90.037959 
L 80.71559 90.891328 
L 81.144032 92.611849 
L 81.572475 95.878163 
L 82.000917 98.133939 
L 82.857802 96.612014 
L 83.714687 95.822028 
L 84.571572 101.735508 
L 85.000014 102.436264 
L 85.428457 102.436264 
L 85.856899 100.962327 
L 86.285342 98.341995 
L 86.713784 97.188413 
L 87.999112 102.202103 
L 88.427554 104.033622 
L 89.284439 102.59375 
L 90.141324 99.797819 
L 90.569766 99.592839 
L 92.283536 102.64793 
L 93.140421 104.815398 
L 93.997306 102.704355 
L 94.425749 104.04499 
L 94.854191 106.189958 
L 95.282633 107.5457 
L 95.711076 108.226597 
L 96.139518 108.038621 
L 96.996403 103.232021 
L 97.853288 101.041494 
L 98.281731 102.539117 
L 98.710173 104.729888 
L 99.138616 106.032663 
L 99.567058 106.727861 
L 99.9955 106.187067 
L 100.852385 100.914239 
L 101.70927 103.128152 
L 102.994598 98.901458 
L 103.42304 98.519085 
L 103.851483 97.147026 
L 104.708368 92.789212 
L 105.565252 90.197367 
L 107.279022 83.077429 
L 108.135907 76.382383 
L 108.992792 80.309517 
L 109.849677 82.221956 
L 110.706562 78.419261 
L 111.563447 84.014434 
L 113.277217 87.705163 
L 113.705659 87.837666 
L 114.134102 87.837666 
L 114.562544 89.832857 
L 114.990987 92.412499 
L 115.419429 92.622448 
L 115.847871 91.793994 
L 116.704756 89.43535 
L 117.133199 90.114674 
L 117.990084 95.380871 
L 118.418526 96.574531 
L 118.846969 97.023812 
L 119.703854 93.198483 
L 120.560739 93.198483 
L 121.417623 100.166802 
L 121.846066 100.194246 
L 122.274508 99.44305 
L 122.702951 97.701192 
L 123.131393 95.364935 
L 123.559836 95.132273 
L 123.988278 97.519875 
L 124.416721 99.04186 
L 125.273606 98.327898 
L 126.130491 98.327898 
L 126.987375 99.080405 
L 127.415818 98.249644 
L 127.84426 97.094213 
L 128.272703 96.402174 
L 128.701145 96.007181 
L 129.129588 96.326189 
L 129.55803 97.506921 
L 129.986473 97.608304 
L 130.843358 92.976783 
L 132.128685 88.336881 
L 132.557127 87.032676 
L 133.414012 86.920595 
L 134.270897 82.7428 
L 135.127782 77.973057 
L 135.556225 77.35429 
L 135.984667 77.35429 
L 136.41311 74.660477 
L 136.841552 71.068725 
L 137.269994 69.369964 
L 137.698437 68.27618 
L 138.126879 69.874248 
L 138.555322 72.061959 
L 138.983764 71.806455 
L 139.412207 71.274763 
L 140.697534 74.352587 
L 141.125977 75.560683 
L 141.982862 86.07995 
L 142.839746 88.747867 
L 143.696631 89.614057 
L 144.553516 98.345188 
L 144.981959 100.393845 
L 145.410401 101.896314 
L 145.838844 101.72712 
L 146.267286 100.620163 
L 146.695729 101.703111 
L 147.124171 105.692661 
L 147.552614 108.302269 
L 148.409498 104.885715 
L 149.266383 102.721111 
L 149.694826 103.753497 
L 150.123268 105.547177 
L 150.551711 106.036817 
L 150.980153 105.339196 
L 151.408596 104.13833 
L 152.265481 99.190906 
L 153.97925 102.187476 
L 154.407693 101.947949 
L 154.836135 101.212604 
L 155.264578 100.810462 
L 155.69302 100.810462 
L 156.121463 101.001393 
L 156.978348 102.320126 
L 157.835233 98.603725 
L 158.263675 98.979135 
L 158.692117 99.743891 
L 159.549002 101.868115 
L 159.977445 101.521681 
L 160.83433 97.999401 
L 161.262772 96.831411 
L 161.691215 96.129465 
L 162.5481 102.315444 
L 163.404985 100.994298 
L 164.261869 97.488256 
L 164.690312 97.290743 
L 165.118754 98.458733 
L 165.547197 98.388473 
L 166.404082 94.301166 
L 167.260967 89.075229 
L 168.117852 97.455691 
L 169.403179 92.165562 
L 169.831621 90.91826 
L 170.260064 93.150918 
L 170.688506 96.852893 
L 171.116949 98.327898 
L 171.545391 98.327898 
L 171.973834 96.6113 
L 172.402276 92.616309 
L 172.830719 90.822293 
L 173.687604 99.5882 
L 174.544488 104.791679 
L 175.401373 102.704355 
L 176.258258 97.850682 
L 176.686701 98.091221 
L 177.115143 100.778011 
L 177.543586 102.713812 
L 177.972028 103.438836 
L 178.400471 103.85298 
L 179.257356 101.685512 
L 180.11424 105.152548 
L 180.542683 105.619889 
L 180.971125 105.619889 
L 181.399568 104.364187 
L 181.82801 101.852784 
L 182.256453 100.46622 
L 183.113338 104.089162 
L 183.970223 105.508967 
L 184.827108 98.238092 
L 185.25555 96.87877 
L 185.683992 97.270912 
L 186.112435 96.7848 
L 186.96932 93.36735 
L 187.826205 89.002171 
L 189.111532 94.490159 
L 189.539975 96.531251 
L 190.39686 90.335236 
L 190.825302 89.989208 
L 191.253744 90.417479 
L 191.682187 92.282707 
L 192.110629 94.777614 
L 192.539072 96.492229 
L 192.967514 97.672961 
L 193.395957 96.915225 
L 193.824399 93.742906 
L 194.252842 91.891103 
L 195.538169 97.232473 
L 195.966611 99.115888 
L 196.823496 95.236339 
L 197.680381 93.439071 
L 198.108824 94.61795 
L 198.537266 96.636747 
L 198.965709 97.935346 
L 199.394151 98.708394 
L 199.822594 98.02862 
L 200.251036 95.292967 
L 200.679479 94.217356 
L 201.536363 102.355835 
L 202.393248 100.885146 
L 203.250133 98.663619 
L 203.678576 98.865617 
L 204.963903 101.135027 
L 205.392346 100.715808 
L 206.249231 95.506236 
L 207.106115 91.453847 
L 208.391443 95.987027 
L 208.819885 97.180687 
L 209.248328 95.413377 
L 209.67677 92.61752 
L 210.105213 93.096278 
L 210.533655 95.96462 
L 210.962098 97.670262 
L 211.39054 98.058177 
L 211.818982 97.236469 
L 212.247425 93.654343 
L 212.675867 91.144603 
L 213.532752 100.000589 
L 213.532752 100.000589 
" style="fill:none;stroke:#ff7f0e;stroke-linecap:square;stroke-width:1.5;"/>
   </g>
   <g id="line2d_11">
    <path clip-path="url(#pabb102dcd5)" d="M 54.152157 76.149749 
L 54.5806 78.945783 
L 55.437485 78.945783 
L 56.29437 72.931456 
L 56.722812 75.699683 
L 57.151254 80.425374 
L 57.579697 81.281529 
L 58.008139 79.815963 
L 58.436582 77.684714 
L 58.865024 74.580546 
L 59.293467 72.854423 
L 60.150352 78.945783 
L 61.864122 78.945783 
L 62.292564 77.84639 
L 64.434776 69.860162 
L 64.863219 62.950827 
L 65.720104 22.116169 
L 66.148546 27.802684 
L 66.576989 42.614224 
L 67.005431 70.762337 
L 67.433874 79.510188 
L 68.290758 69.534132 
L 69.147643 56.28327 
L 70.004528 48.604404 
L 70.432971 46.398904 
L 70.861413 46.261419 
L 71.289856 50.673567 
L 71.718298 52.43951 
L 72.146741 50.337922 
L 72.575183 50.090053 
L 73.003626 52.225538 
L 73.432068 51.15724 
L 73.86051 46.88516 
L 74.288953 47.226576 
L 74.717395 51.638724 
L 75.145838 53.29328 
L 75.57428 53.29328 
L 76.002723 51.914113 
L 76.431165 49.812525 
L 76.859608 53.424694 
L 77.28805 59.634025 
L 78.144935 67.580566 
L 79.00182 71.520094 
L 79.430262 72.155414 
L 79.858705 72.155414 
L 80.287147 70.460848 
L 80.71559 67.071716 
L 81.144032 68.663581 
L 81.572475 78.557108 
L 82.000917 84.468197 
L 83.714687 72.543435 
L 84.143129 76.290394 
L 84.571572 81.016086 
L 85.000014 82.197509 
L 85.428457 82.197509 
L 85.856899 79.793063 
L 86.285342 75.267049 
L 86.713784 73.153998 
L 87.570669 78.945783 
L 88.427554 78.945783 
L 89.284439 84.809212 
L 89.712881 83.043058 
L 90.141324 80.192779 
L 90.569766 78.945783 
L 90.998209 78.945783 
L 91.426651 80.045176 
L 92.283536 85.358909 
L 93.140421 85.358909 
L 93.997306 79.836495 
L 94.425749 81.927698 
L 94.854191 86.265029 
L 95.282633 87.759769 
L 96.139518 85.358909 
L 96.996403 85.358909 
L 97.853288 79.747423 
L 98.281731 80.014207 
L 98.710173 81.50071 
L 99.138616 83.69068 
L 99.567058 86.501355 
L 99.9955 86.203793 
L 100.852385 72.349583 
L 101.70927 84.776401 
L 102.137713 82.775844 
L 103.851483 71.372942 
L 104.279925 69.703668 
L 104.708368 70.305421 
L 105.13681 75.24277 
L 105.565252 77.346666 
L 106.422137 64.839352 
L 108.135907 57.361251 
L 108.992792 57.301483 
L 109.849677 64.833945 
L 110.706562 49.873858 
L 111.563447 64.698706 
L 111.991889 64.953508 
L 112.420332 64.953508 
L 113.277217 61.471748 
L 113.705659 65.742735 
L 114.134102 71.142886 
L 114.562544 69.401744 
L 114.990987 66.012612 
L 115.419429 68.502274 
L 115.847871 73.664114 
L 116.276314 73.573254 
L 116.704756 70.330774 
L 117.133199 70.17349 
L 117.561641 73.51276 
L 117.990084 75.599804 
L 118.418526 75.599804 
L 118.846969 75.250373 
L 119.703854 72.155414 
L 120.560739 72.155414 
L 121.417623 84.193894 
L 121.846066 83.043058 
L 123.131393 74.09552 
L 123.559836 72.763248 
L 124.845163 77.539502 
L 125.273606 78.802384 
L 126.130491 75.743203 
L 126.558933 75.599804 
L 126.987375 75.599804 
L 127.415818 76.763623 
L 127.84426 78.315381 
L 128.272703 77.102683 
L 128.701145 73.998514 
L 129.129588 73.453573 
L 129.55803 76.64904 
L 129.986473 78.072735 
L 131.700243 65.059419 
L 132.557127 68.442084 
L 133.414012 65.280795 
L 134.270897 43.435086 
L 134.69934 50.26162 
L 135.127782 63.321076 
L 135.556225 64.953508 
L 135.984667 64.953508 
L 137.269994 51.717089 
L 138.555322 45.227232 
L 138.983764 46.77402 
L 139.412207 49.015676 
L 140.269092 57.301483 
L 141.125977 49.155779 
L 141.982862 68.499111 
L 142.839746 65.008056 
L 143.696631 68.442084 
L 145.410401 81.145701 
L 145.838844 82.197509 
L 146.267286 82.197509 
L 146.695729 82.820883 
L 147.552614 85.358909 
L 148.409498 85.358909 
L 149.266383 79.747423 
L 149.694826 81.052953 
L 150.980153 89.487479 
L 151.408596 90.30307 
L 152.693923 77.812932 
L 153.122365 73.286918 
L 153.550808 75.699683 
L 153.97925 80.425374 
L 154.407693 82.197509 
L 154.836135 82.197509 
L 155.264578 80.989478 
L 155.69302 78.015865 
L 156.121463 76.448422 
L 156.978348 85.223365 
L 157.835233 76.548606 
L 158.263675 76.812115 
L 158.692117 78.363873 
L 159.12056 78.945783 
L 160.405887 78.945783 
L 160.83433 77.764346 
L 161.691215 69.108228 
L 162.5481 85.108898 
L 163.404985 79.747423 
L 163.833427 78.945783 
L 165.118754 78.945783 
L 165.547197 77.878725 
L 167.260967 65.165512 
L 168.117852 78.733779 
L 169.403179 70.851294 
L 169.831621 69.18202 
L 170.260064 70.799603 
L 170.688506 74.138873 
L 171.116949 76.472668 
L 171.545391 78.024426 
L 171.973834 76.347218 
L 172.402276 69.950749 
L 172.830719 66.782417 
L 173.687604 81.968514 
L 174.544488 79.037381 
L 175.401373 81.825883 
L 175.829816 79.967299 
L 176.258258 76.993685 
L 176.686701 77.225325 
L 177.543586 82.73183 
L 177.972028 84.156686 
L 178.400471 84.913553 
L 179.257356 79.212996 
L 180.11424 87.21382 
L 180.542683 87.464927 
L 180.971125 86.117075 
L 181.399568 82.791562 
L 181.82801 76.923343 
L 182.256453 73.591733 
L 183.113338 88.349454 
L 183.970223 85.653751 
L 185.683992 70.634757 
L 186.112435 70.459713 
L 186.540877 75.397063 
L 186.96932 78.072735 
L 188.68309 65.059419 
L 189.539975 78.30977 
L 189.968417 74.663073 
L 190.39686 69.937324 
L 190.825302 68.608207 
L 191.253744 68.608207 
L 191.682187 69.667075 
L 192.110629 71.361263 
L 192.539072 73.853006 
L 192.967514 77.048474 
L 193.395957 77.025947 
L 193.824399 72.300198 
L 194.252842 68.978811 
L 195.109727 72.554848 
L 195.966611 78.945783 
L 196.823496 72.737446 
L 197.251939 73.472387 
L 197.680381 75.093276 
L 198.108824 75.599804 
L 198.537266 75.599804 
L 198.965709 76.424176 
L 199.394151 77.975934 
L 199.822594 77.78172 
L 200.251036 74.677551 
L 200.679479 72.754564 
L 201.536363 78.945783 
L 202.393248 78.945783 
L 203.250133 76.077801 
L 203.678576 77.70342 
L 204.107018 80.763225 
L 204.535461 81.418926 
L 206.249231 75.194494 
L 207.106115 68.709534 
L 207.963 78.328614 
L 208.391443 76.229635 
L 208.819885 73.125467 
L 209.248328 73.269776 
L 209.67677 74.890665 
L 210.105213 75.599804 
L 210.533655 75.599804 
L 210.962098 76.84285 
L 211.39054 79.902655 
L 211.818982 79.830055 
L 212.675867 61.509606 
L 213.532752 82.197509 
L 213.532752 82.197509 
" style="fill:none;stroke:#2ca02c;stroke-linecap:square;stroke-width:1.5;"/>
   </g>
   <g id="patch_3">
    <path d="M 54.56 112.732283 
L 54.56 10.8 
" style="fill:none;stroke:#000000;stroke-linecap:square;stroke-linejoin:miter;stroke-width:0.8;"/>
   </g>
   <g id="patch_4">
    <path d="M 54.56 112.732283 
L 213.137008 112.732283 
" style="fill:none;stroke:#000000;stroke-linecap:square;stroke-linejoin:miter;stroke-width:0.8;"/>
   </g>
   <g id="legend_1">
    <g id="patch_5">
     <path d="M 159.21107 42.020625 
L 208.937008 42.020625 
Q 210.137008 42.020625 210.137008 40.820625 
L 210.137008 15 
Q 210.137008 13.8 208.937008 13.8 
L 159.21107 13.8 
Q 158.01107 13.8 158.01107 15 
L 158.01107 40.820625 
Q 158.01107 42.020625 159.21107 42.020625 
z
" style="fill:#ffffff;opacity:0.8;stroke:#cccccc;stroke-linejoin:miter;"/>
    </g>
    <g id="line2d_12">
     <path d="M 160.41107 18.659062 
L 172.41107 18.659062 
" style="fill:none;stroke:#1f77b4;stroke-linecap:square;stroke-width:1.5;"/>
    </g>
    <g id="line2d_13"/>
    <g id="text_8">
     <!-- Upper IHR -->
     <g transform="translate(177.21107 20.759062)scale(0.06 -0.06)">
      <defs>
       <path d="M 8.6875 72.90625 
L 18.609375 72.90625 
L 18.609375 28.609375 
Q 18.609375 16.890625 22.84375 11.734375 
Q 27.09375 6.59375 36.625 6.59375 
Q 46.09375 6.59375 50.34375 11.734375 
Q 54.59375 16.890625 54.59375 28.609375 
L 54.59375 72.90625 
L 64.5 72.90625 
L 64.5 27.390625 
Q 64.5 13.140625 57.4375 5.859375 
Q 50.390625 -1.421875 36.625 -1.421875 
Q 22.796875 -1.421875 15.734375 5.859375 
Q 8.6875 13.140625 8.6875 27.390625 
z
" id="DejaVuSans-85"/>
       <path d="M 18.109375 8.203125 
L 18.109375 -20.796875 
L 9.078125 -20.796875 
L 9.078125 54.6875 
L 18.109375 54.6875 
L 18.109375 46.390625 
Q 20.953125 51.265625 25.265625 53.625 
Q 29.59375 56 35.59375 56 
Q 45.5625 56 51.78125 48.09375 
Q 58.015625 40.1875 58.015625 27.296875 
Q 58.015625 14.40625 51.78125 6.484375 
Q 45.5625 -1.421875 35.59375 -1.421875 
Q 29.59375 -1.421875 25.265625 0.953125 
Q 20.953125 3.328125 18.109375 8.203125 
z
M 48.6875 27.296875 
Q 48.6875 37.203125 44.609375 42.84375 
Q 40.53125 48.484375 33.40625 48.484375 
Q 26.265625 48.484375 22.1875 42.84375 
Q 18.109375 37.203125 18.109375 27.296875 
Q 18.109375 17.390625 22.1875 11.75 
Q 26.265625 6.109375 33.40625 6.109375 
Q 40.53125 6.109375 44.609375 11.75 
Q 48.6875 17.390625 48.6875 27.296875 
z
" id="DejaVuSans-112"/>
       <path d="M 41.109375 46.296875 
Q 39.59375 47.171875 37.8125 47.578125 
Q 36.03125 48 33.890625 48 
Q 26.265625 48 22.1875 43.046875 
Q 18.109375 38.09375 18.109375 28.8125 
L 18.109375 0 
L 9.078125 0 
L 9.078125 54.6875 
L 18.109375 54.6875 
L 18.109375 46.1875 
Q 20.953125 51.171875 25.484375 53.578125 
Q 30.03125 56 36.53125 56 
Q 37.453125 56 38.578125 55.875 
Q 39.703125 55.765625 41.0625 55.515625 
z
" id="DejaVuSans-114"/>
       <path d="M 9.8125 72.90625 
L 19.671875 72.90625 
L 19.671875 0 
L 9.8125 0 
z
" id="DejaVuSans-73"/>
       <path d="M 9.8125 72.90625 
L 19.671875 72.90625 
L 19.671875 43.015625 
L 55.515625 43.015625 
L 55.515625 72.90625 
L 65.375 72.90625 
L 65.375 0 
L 55.515625 0 
L 55.515625 34.71875 
L 19.671875 34.71875 
L 19.671875 0 
L 9.8125 0 
z
" id="DejaVuSans-72"/>
      </defs>
      <use xlink:href="#DejaVuSans-85"/>
      <use x="73.193359" xlink:href="#DejaVuSans-112"/>
      <use x="136.669922" xlink:href="#DejaVuSans-112"/>
      <use x="200.146484" xlink:href="#DejaVuSans-101"/>
      <use x="261.669922" xlink:href="#DejaVuSans-114"/>
      <use x="302.783203" xlink:href="#DejaVuSans-32"/>
      <use x="334.570312" xlink:href="#DejaVuSans-73"/>
      <use x="364.0625" xlink:href="#DejaVuSans-72"/>
      <use x="439.257812" xlink:href="#DejaVuSans-82"/>
     </g>
    </g>
    <g id="line2d_14">
     <path d="M 160.41107 27.465938 
L 172.41107 27.465938 
" style="fill:none;stroke:#ff7f0e;stroke-linecap:square;stroke-width:1.5;"/>
    </g>
    <g id="line2d_15"/>
    <g id="text_9">
     <!-- Lower IHR -->
     <g transform="translate(177.21107 29.565938)scale(0.06 -0.06)">
      <defs>
       <path d="M 9.8125 72.90625 
L 19.671875 72.90625 
L 19.671875 8.296875 
L 55.171875 8.296875 
L 55.171875 0 
L 9.8125 0 
z
" id="DejaVuSans-76"/>
       <path d="M 4.203125 54.6875 
L 13.1875 54.6875 
L 24.421875 12.015625 
L 35.59375 54.6875 
L 46.1875 54.6875 
L 57.421875 12.015625 
L 68.609375 54.6875 
L 77.59375 54.6875 
L 63.28125 0 
L 52.6875 0 
L 40.921875 44.828125 
L 29.109375 0 
L 18.5 0 
z
" id="DejaVuSans-119"/>
      </defs>
      <use xlink:href="#DejaVuSans-76"/>
      <use x="53.962891" xlink:href="#DejaVuSans-111"/>
      <use x="115.144531" xlink:href="#DejaVuSans-119"/>
      <use x="196.931641" xlink:href="#DejaVuSans-101"/>
      <use x="258.455078" xlink:href="#DejaVuSans-114"/>
      <use x="299.568359" xlink:href="#DejaVuSans-32"/>
      <use x="331.355469" xlink:href="#DejaVuSans-73"/>
      <use x="360.847656" xlink:href="#DejaVuSans-72"/>
      <use x="436.042969" xlink:href="#DejaVuSans-82"/>
     </g>
    </g>
    <g id="line2d_16">
     <path d="M 160.41107 36.272812 
L 172.41107 36.272812 
" style="fill:none;stroke:#2ca02c;stroke-linecap:square;stroke-width:1.5;"/>
    </g>
    <g id="line2d_17"/>
    <g id="text_10">
     <!-- IPR -->
     <g transform="translate(177.21107 38.372812)scale(0.06 -0.06)">
      <use xlink:href="#DejaVuSans-73"/>
      <use x="29.492188" xlink:href="#DejaVuSans-80"/>
      <use x="89.794922" xlink:href="#DejaVuSans-82"/>
     </g>
    </g>
   </g>
  </g>
 </g>
 <defs>
  <clipPath id="pabb102dcd5">
   <rect height="101.932283" width="158.577008" x="54.56" y="10.8"/>
  </clipPath>
 </defs>
</svg>
