<?xml version="1.0" encoding="utf-8" standalone="no"?>
<!DOCTYPE svg PUBLIC "-//W3C//DTD SVG 1.1//EN"
  "http://www.w3.org/Graphics/SVG/1.1/DTD/svg11.dtd">
<!-- Created with matplotlib (https://matplotlib.org/) -->
<svg height="141.732283pt" version="1.1" viewBox="0 0 223.937008 141.732283" width="223.937008pt" xmlns="http://www.w3.org/2000/svg" xmlns:xlink="http://www.w3.org/1999/xlink">
 <metadata>
  <rdf:RDF xmlns:cc="http://creativecommons.org/ns#" xmlns:dc="http://purl.org/dc/elements/1.1/" xmlns:rdf="http://www.w3.org/1999/02/22-rdf-syntax-ns#">
   <cc:Work>
    <dc:type rdf:resource="http://purl.org/dc/dcmitype/StillImage"/>
    <dc:date>2021-04-12T09:52:13.600164</dc:date>
    <dc:format>image/svg+xml</dc:format>
    <dc:creator>
     <cc:Agent>
      <dc:title>Matplotlib v3.3.2, https://matplotlib.org/</dc:title>
     </cc:Agent>
    </dc:creator>
   </cc:Work>
  </rdf:RDF>
 </metadata>
 <defs>
  <style type="text/css">*{stroke-linecap:butt;stroke-linejoin:round;}</style>
 </defs>
 <g id="figure_1">
  <g id="patch_1">
   <path d="M 0 141.732283 
L 223.937008 141.732283 
L 223.937008 0 
L 0 0 
z
" style="fill:#ffffff;"/>
  </g>
  <g id="axes_1">
   <g id="patch_2">
    <path d="M 29 54.616142 
L 213.137008 54.616142 
L 213.137008 10.8 
L 29 10.8 
z
" style="fill:#ffffff;"/>
   </g>
   <g id="matplotlib.axis_1">
    <g id="xtick_1">
     <g id="line2d_1">
      <defs>
       <path d="M 0 0 
L 0 3.5 
" id="mc0d8b96b2a" style="stroke:#000000;stroke-width:0.8;"/>
      </defs>
      <g>
       <use style="stroke:#000000;stroke-width:0.8;" x="39.549629" xlink:href="#mc0d8b96b2a" y="54.616142"/>
      </g>
     </g>
    </g>
    <g id="xtick_2">
     <g id="line2d_2">
      <g>
       <use style="stroke:#000000;stroke-width:0.8;" x="75.863927" xlink:href="#mc0d8b96b2a" y="54.616142"/>
      </g>
     </g>
    </g>
    <g id="xtick_3">
     <g id="line2d_3">
      <g>
       <use style="stroke:#000000;stroke-width:0.8;" x="112.178225" xlink:href="#mc0d8b96b2a" y="54.616142"/>
      </g>
     </g>
    </g>
    <g id="xtick_4">
     <g id="line2d_4">
      <g>
       <use style="stroke:#000000;stroke-width:0.8;" x="148.492522" xlink:href="#mc0d8b96b2a" y="54.616142"/>
      </g>
     </g>
    </g>
    <g id="xtick_5">
     <g id="line2d_5">
      <g>
       <use style="stroke:#000000;stroke-width:0.8;" x="184.80682" xlink:href="#mc0d8b96b2a" y="54.616142"/>
      </g>
     </g>
    </g>
   </g>
   <g id="matplotlib.axis_2">
    <g id="ytick_1">
     <g id="line2d_6">
      <defs>
       <path d="M 0 0 
L -3.5 0 
" id="mf0823b730b" style="stroke:#000000;stroke-width:0.8;"/>
      </defs>
      <g>
       <use style="stroke:#000000;stroke-width:0.8;" x="29" xlink:href="#mf0823b730b" y="47.010212"/>
      </g>
     </g>
    </g>
    <g id="ytick_2">
     <g id="line2d_7">
      <g>
       <use style="stroke:#000000;stroke-width:0.8;" x="29" xlink:href="#mf0823b730b" y="12.860361"/>
      </g>
     </g>
    </g>
    <g id="text_1">
     <!-- ECG (mV) -->
     <g transform="translate(16.33625 52.153071)rotate(-90)scale(0.08 -0.08)">
      <defs>
       <path d="M 9.8125 72.90625 
L 55.90625 72.90625 
L 55.90625 64.59375 
L 19.671875 64.59375 
L 19.671875 43.015625 
L 54.390625 43.015625 
L 54.390625 34.71875 
L 19.671875 34.71875 
L 19.671875 8.296875 
L 56.78125 8.296875 
L 56.78125 0 
L 9.8125 0 
z
" id="DejaVuSans-69"/>
       <path d="M 64.40625 67.28125 
L 64.40625 56.890625 
Q 59.421875 61.53125 53.78125 63.8125 
Q 48.140625 66.109375 41.796875 66.109375 
Q 29.296875 66.109375 22.65625 58.46875 
Q 16.015625 50.828125 16.015625 36.375 
Q 16.015625 21.96875 22.65625 14.328125 
Q 29.296875 6.6875 41.796875 6.6875 
Q 48.140625 6.6875 53.78125 8.984375 
Q 59.421875 11.28125 64.40625 15.921875 
L 64.40625 5.609375 
Q 59.234375 2.09375 53.4375 0.328125 
Q 47.65625 -1.421875 41.21875 -1.421875 
Q 24.65625 -1.421875 15.125 8.703125 
Q 5.609375 18.84375 5.609375 36.375 
Q 5.609375 53.953125 15.125 64.078125 
Q 24.65625 74.21875 41.21875 74.21875 
Q 47.75 74.21875 53.53125 72.484375 
Q 59.328125 70.75 64.40625 67.28125 
z
" id="DejaVuSans-67"/>
       <path d="M 59.515625 10.40625 
L 59.515625 29.984375 
L 43.40625 29.984375 
L 43.40625 38.09375 
L 69.28125 38.09375 
L 69.28125 6.78125 
Q 63.578125 2.734375 56.6875 0.65625 
Q 49.8125 -1.421875 42 -1.421875 
Q 24.90625 -1.421875 15.25 8.5625 
Q 5.609375 18.5625 5.609375 36.375 
Q 5.609375 54.25 15.25 64.234375 
Q 24.90625 74.21875 42 74.21875 
Q 49.125 74.21875 55.546875 72.453125 
Q 61.96875 70.703125 67.390625 67.28125 
L 67.390625 56.78125 
Q 61.921875 61.421875 55.765625 63.765625 
Q 49.609375 66.109375 42.828125 66.109375 
Q 29.4375 66.109375 22.71875 58.640625 
Q 16.015625 51.171875 16.015625 36.375 
Q 16.015625 21.625 22.71875 14.15625 
Q 29.4375 6.6875 42.828125 6.6875 
Q 48.046875 6.6875 52.140625 7.59375 
Q 56.25 8.5 59.515625 10.40625 
z
" id="DejaVuSans-71"/>
       <path id="DejaVuSans-32"/>
       <path d="M 31 75.875 
Q 24.46875 64.65625 21.28125 53.65625 
Q 18.109375 42.671875 18.109375 31.390625 
Q 18.109375 20.125 21.3125 9.0625 
Q 24.515625 -2 31 -13.1875 
L 23.1875 -13.1875 
Q 15.875 -1.703125 12.234375 9.375 
Q 8.59375 20.453125 8.59375 31.390625 
Q 8.59375 42.28125 12.203125 53.3125 
Q 15.828125 64.359375 23.1875 75.875 
z
" id="DejaVuSans-40"/>
       <path d="M 52 44.1875 
Q 55.375 50.25 60.0625 53.125 
Q 64.75 56 71.09375 56 
Q 79.640625 56 84.28125 50.015625 
Q 88.921875 44.046875 88.921875 33.015625 
L 88.921875 0 
L 79.890625 0 
L 79.890625 32.71875 
Q 79.890625 40.578125 77.09375 44.375 
Q 74.3125 48.1875 68.609375 48.1875 
Q 61.625 48.1875 57.5625 43.546875 
Q 53.515625 38.921875 53.515625 30.90625 
L 53.515625 0 
L 44.484375 0 
L 44.484375 32.71875 
Q 44.484375 40.625 41.703125 44.40625 
Q 38.921875 48.1875 33.109375 48.1875 
Q 26.21875 48.1875 22.15625 43.53125 
Q 18.109375 38.875 18.109375 30.90625 
L 18.109375 0 
L 9.078125 0 
L 9.078125 54.6875 
L 18.109375 54.6875 
L 18.109375 46.1875 
Q 21.1875 51.21875 25.484375 53.609375 
Q 29.78125 56 35.6875 56 
Q 41.65625 56 45.828125 52.96875 
Q 50 49.953125 52 44.1875 
z
" id="DejaVuSans-109"/>
       <path d="M 28.609375 0 
L 0.78125 72.90625 
L 11.078125 72.90625 
L 34.1875 11.53125 
L 57.328125 72.90625 
L 67.578125 72.90625 
L 39.796875 0 
z
" id="DejaVuSans-86"/>
       <path d="M 8.015625 75.875 
L 15.828125 75.875 
Q 23.140625 64.359375 26.78125 53.3125 
Q 30.421875 42.28125 30.421875 31.390625 
Q 30.421875 20.453125 26.78125 9.375 
Q 23.140625 -1.703125 15.828125 -13.1875 
L 8.015625 -13.1875 
Q 14.5 -2 17.703125 9.0625 
Q 20.90625 20.125 20.90625 31.390625 
Q 20.90625 42.671875 17.703125 53.65625 
Q 14.5 64.65625 8.015625 75.875 
z
" id="DejaVuSans-41"/>
      </defs>
      <use xlink:href="#DejaVuSans-69"/>
      <use x="63.183594" xlink:href="#DejaVuSans-67"/>
      <use x="133.007812" xlink:href="#DejaVuSans-71"/>
      <use x="210.498047" xlink:href="#DejaVuSans-32"/>
      <use x="242.285156" xlink:href="#DejaVuSans-40"/>
      <use x="281.298828" xlink:href="#DejaVuSans-109"/>
      <use x="378.710938" xlink:href="#DejaVuSans-86"/>
      <use x="447.119141" xlink:href="#DejaVuSans-41"/>
     </g>
    </g>
   </g>
   <g id="line2d_8">
    <path clip-path="url(#p404c849855)" d="M 28.655339 48.71833 
L 30.107911 49.0883 
L 30.471054 49.307156 
L 31.923626 49.473903 
L 32.286769 49.190433 
L 32.649912 49.15083 
L 33.013055 49.434301 
L 33.376198 49.54894 
L 33.739341 49.398867 
L 37.007628 49.213361 
L 42.454772 48.4161 
L 43.181058 48.277491 
L 44.996773 48.160768 
L 47.175631 48.11387 
L 51.89649 48.530739 
L 52.985919 48.616197 
L 54.438491 48.754805 
L 60.611921 48.911131 
L 67.148495 48.934059 
L 69.690496 48.926764 
L 70.779925 48.824631 
L 71.506211 48.736046 
L 71.869354 48.770438 
L 74.048212 48.303546 
L 75.137641 48.126377 
L 75.863927 47.908042 
L 76.22707 47.939307 
L 76.953356 48.423395 
L 79.132213 49.027854 
L 79.858499 48.96324 
L 80.584785 49.077878 
L 80.947928 49.046613 
L 81.674214 49.24671 
L 82.4005 49.311325 
L 83.489929 48.683938 
L 84.579358 48.595353 
L 85.305644 49.124776 
L 86.03193 49.465566 
L 87.484502 49.234204 
L 88.937074 49.137282 
L 89.300217 49.205023 
L 90.026503 49.142493 
L 90.389646 49.15083 
L 90.752789 49.036192 
L 91.115932 49.15083 
L 91.479075 49.038276 
L 91.842218 49.503084 
L 92.931647 53.625912 
L 93.29479 53.292417 
L 93.657933 52.521211 
L 94.021076 46.818713 
L 95.110504 16.095259 
L 95.473647 11.793178 
L 96.563076 33.211871 
L 96.926219 38.789569 
L 97.289362 42.328781 
L 97.652505 44.346423 
L 98.378791 45.539709 
L 98.741934 45.395889 
L 99.105077 45.039467 
L 99.831363 46.876032 
L 100.194506 47.180867 
L 100.557649 46.873427 
L 100.920792 46.92293 
L 101.283935 47.657921 
L 101.647078 47.77256 
L 102.010221 47.417961 
L 102.373364 47.235581 
L 103.09965 47.918463 
L 103.825936 47.279873 
L 104.552222 47.733478 
L 104.915365 47.587574 
L 105.278508 47.222554 
L 105.641651 47.2929 
L 106.004794 47.556309 
L 106.367937 47.501335 
L 106.73108 47.209527 
L 107.094223 47.10531 
L 107.457366 47.277268 
L 107.820509 47.313744 
L 108.546795 46.920324 
L 109.273081 47.058412 
L 109.999367 46.701469 
L 110.725653 46.784842 
L 111.815082 46.359897 
L 112.541367 46.268707 
L 113.267653 45.873203 
L 113.993939 45.737721 
L 115.083368 45.096786 
L 115.446511 44.97381 
L 117.988512 42.74148 
L 118.714798 42.020298 
L 119.804227 40.786368 
L 121.256799 39.431546 
L 122.709371 38.610316 
L 123.435657 38.556123 
L 123.7988 38.576966 
L 124.161943 38.743713 
L 124.888229 39.585787 
L 125.614515 40.807211 
L 127.43023 44.381857 
L 128.519659 46.01077 
L 129.609088 47.16784 
L 130.698516 47.871566 
L 132.151088 48.348359 
L 133.240517 48.553667 
L 135.056232 48.744384 
L 138.324519 48.749595 
L 140.140234 48.520317 
L 141.592806 48.334811 
L 144.134807 47.921069 
L 147.039951 47.584969 
L 150.67138 47.564125 
L 153.576524 47.796008 
L 162.291956 48.317094 
L 172.459959 48.480715 
L 173.549388 48.428606 
L 174.275674 48.303546 
L 175.00196 48.306672 
L 177.543961 47.842906 
L 178.270247 47.694397 
L 178.63339 47.537811 
L 178.996533 47.50394 
L 181.175391 48.522401 
L 182.264819 48.683938 
L 182.627962 48.57451 
L 185.533106 48.958029 
L 186.622535 48.369202 
L 187.711964 48.45466 
L 188.43825 48.944481 
L 188.801393 49.103933 
L 189.527679 49.077878 
L 190.617108 48.994505 
L 193.159109 48.902794 
L 193.522252 48.812125 
L 193.885395 48.928848 
L 194.248538 48.853812 
L 194.611681 49.12165 
L 194.974824 50.297218 
L 195.70111 53.404971 
L 196.427396 53.013115 
L 196.790539 48.683938 
L 198.243111 11.859877 
L 198.606254 17.662684 
L 199.33254 31.619434 
L 199.695682 37.197132 
L 200.058825 40.986465 
L 200.421968 42.989517 
L 201.148254 44.909195 
L 201.511397 45.083238 
L 201.87454 44.746617 
L 202.963969 47.063623 
L 203.690255 46.771815 
L 204.053398 47.410145 
L 204.416541 47.697002 
L 205.142827 47.308533 
L 205.869113 47.754322 
L 206.595399 47.087072 
L 206.958542 47.28769 
L 207.321685 47.717846 
L 207.684828 47.723056 
L 208.047971 47.347614 
L 208.411114 47.154813 
L 209.1374 47.524783 
L 209.863686 47.157418 
L 210.226829 47.371063 
L 210.589972 47.389301 
L 211.316258 46.964617 
L 212.405687 46.8604 
L 212.76883 46.67802 
L 213.131973 46.625911 
L 213.495116 46.758788 
L 213.495116 46.758788 
" style="fill:none;stroke:#1f77b4;stroke-linecap:square;stroke-width:1.5;"/>
   </g>
   <g id="patch_3">
    <path d="M 29 54.616142 
L 29 10.8 
" style="fill:none;stroke:#000000;stroke-linecap:square;stroke-linejoin:miter;stroke-width:0.8;"/>
   </g>
   <g id="patch_4">
    <path d="M 29 54.616142 
L 213.137008 54.616142 
" style="fill:none;stroke:#000000;stroke-linecap:square;stroke-linejoin:miter;stroke-width:0.8;"/>
   </g>
  </g>
  <g id="axes_2">
   <g id="patch_5">
    <path d="M 29 112.732283 
L 213.137008 112.732283 
L 213.137008 68.916142 
L 29 68.916142 
z
" style="fill:#ffffff;"/>
   </g>
   <g id="matplotlib.axis_3">
    <g id="xtick_6">
     <g id="line2d_9">
      <g>
       <use style="stroke:#000000;stroke-width:0.8;" x="39.549629" xlink:href="#mc0d8b96b2a" y="112.732283"/>
      </g>
     </g>
    </g>
    <g id="xtick_7">
     <g id="line2d_10">
      <g>
       <use style="stroke:#000000;stroke-width:0.8;" x="75.863927" xlink:href="#mc0d8b96b2a" y="112.732283"/>
      </g>
     </g>
    </g>
    <g id="xtick_8">
     <g id="line2d_11">
      <g>
       <use style="stroke:#000000;stroke-width:0.8;" x="112.178225" xlink:href="#mc0d8b96b2a" y="112.732283"/>
      </g>
     </g>
    </g>
    <g id="xtick_9">
     <g id="line2d_12">
      <g>
       <use style="stroke:#000000;stroke-width:0.8;" x="148.492522" xlink:href="#mc0d8b96b2a" y="112.732283"/>
      </g>
     </g>
    </g>
    <g id="xtick_10">
     <g id="line2d_13">
      <g>
       <use style="stroke:#000000;stroke-width:0.8;" x="184.80682" xlink:href="#mc0d8b96b2a" y="112.732283"/>
      </g>
     </g>
    </g>
    <g id="text_2">
     <!-- Time (Seconds) -->
     <g transform="translate(90.083504 129.811033)scale(0.08 -0.08)">
      <defs>
       <path d="M -0.296875 72.90625 
L 61.375 72.90625 
L 61.375 64.59375 
L 35.5 64.59375 
L 35.5 0 
L 25.59375 0 
L 25.59375 64.59375 
L -0.296875 64.59375 
z
" id="DejaVuSans-84"/>
       <path d="M 9.421875 54.6875 
L 18.40625 54.6875 
L 18.40625 0 
L 9.421875 0 
z
M 9.421875 75.984375 
L 18.40625 75.984375 
L 18.40625 64.59375 
L 9.421875 64.59375 
z
" id="DejaVuSans-105"/>
       <path d="M 56.203125 29.59375 
L 56.203125 25.203125 
L 14.890625 25.203125 
Q 15.484375 15.921875 20.484375 11.0625 
Q 25.484375 6.203125 34.421875 6.203125 
Q 39.59375 6.203125 44.453125 7.46875 
Q 49.3125 8.734375 54.109375 11.28125 
L 54.109375 2.78125 
Q 49.265625 0.734375 44.1875 -0.34375 
Q 39.109375 -1.421875 33.890625 -1.421875 
Q 20.796875 -1.421875 13.15625 6.1875 
Q 5.515625 13.8125 5.515625 26.8125 
Q 5.515625 40.234375 12.765625 48.109375 
Q 20.015625 56 32.328125 56 
Q 43.359375 56 49.78125 48.890625 
Q 56.203125 41.796875 56.203125 29.59375 
z
M 47.21875 32.234375 
Q 47.125 39.59375 43.09375 43.984375 
Q 39.0625 48.390625 32.421875 48.390625 
Q 24.90625 48.390625 20.390625 44.140625 
Q 15.875 39.890625 15.1875 32.171875 
z
" id="DejaVuSans-101"/>
       <path d="M 53.515625 70.515625 
L 53.515625 60.890625 
Q 47.90625 63.578125 42.921875 64.890625 
Q 37.9375 66.21875 33.296875 66.21875 
Q 25.25 66.21875 20.875 63.09375 
Q 16.5 59.96875 16.5 54.203125 
Q 16.5 49.359375 19.40625 46.890625 
Q 22.3125 44.4375 30.421875 42.921875 
L 36.375 41.703125 
Q 47.40625 39.59375 52.65625 34.296875 
Q 57.90625 29 57.90625 20.125 
Q 57.90625 9.515625 50.796875 4.046875 
Q 43.703125 -1.421875 29.984375 -1.421875 
Q 24.8125 -1.421875 18.96875 -0.25 
Q 13.140625 0.921875 6.890625 3.21875 
L 6.890625 13.375 
Q 12.890625 10.015625 18.65625 8.296875 
Q 24.421875 6.59375 29.984375 6.59375 
Q 38.421875 6.59375 43.015625 9.90625 
Q 47.609375 13.234375 47.609375 19.390625 
Q 47.609375 24.75 44.3125 27.78125 
Q 41.015625 30.8125 33.5 32.328125 
L 27.484375 33.5 
Q 16.453125 35.6875 11.515625 40.375 
Q 6.59375 45.0625 6.59375 53.421875 
Q 6.59375 63.09375 13.40625 68.65625 
Q 20.21875 74.21875 32.171875 74.21875 
Q 37.3125 74.21875 42.625 73.28125 
Q 47.953125 72.359375 53.515625 70.515625 
z
" id="DejaVuSans-83"/>
       <path d="M 48.78125 52.59375 
L 48.78125 44.1875 
Q 44.96875 46.296875 41.140625 47.34375 
Q 37.3125 48.390625 33.40625 48.390625 
Q 24.65625 48.390625 19.8125 42.84375 
Q 14.984375 37.3125 14.984375 27.296875 
Q 14.984375 17.28125 19.8125 11.734375 
Q 24.65625 6.203125 33.40625 6.203125 
Q 37.3125 6.203125 41.140625 7.25 
Q 44.96875 8.296875 48.78125 10.40625 
L 48.78125 2.09375 
Q 45.015625 0.34375 40.984375 -0.53125 
Q 36.96875 -1.421875 32.421875 -1.421875 
Q 20.0625 -1.421875 12.78125 6.34375 
Q 5.515625 14.109375 5.515625 27.296875 
Q 5.515625 40.671875 12.859375 48.328125 
Q 20.21875 56 33.015625 56 
Q 37.15625 56 41.109375 55.140625 
Q 45.0625 54.296875 48.78125 52.59375 
z
" id="DejaVuSans-99"/>
       <path d="M 30.609375 48.390625 
Q 23.390625 48.390625 19.1875 42.75 
Q 14.984375 37.109375 14.984375 27.296875 
Q 14.984375 17.484375 19.15625 11.84375 
Q 23.34375 6.203125 30.609375 6.203125 
Q 37.796875 6.203125 41.984375 11.859375 
Q 46.1875 17.53125 46.1875 27.296875 
Q 46.1875 37.015625 41.984375 42.703125 
Q 37.796875 48.390625 30.609375 48.390625 
z
M 30.609375 56 
Q 42.328125 56 49.015625 48.375 
Q 55.71875 40.765625 55.71875 27.296875 
Q 55.71875 13.875 49.015625 6.21875 
Q 42.328125 -1.421875 30.609375 -1.421875 
Q 18.84375 -1.421875 12.171875 6.21875 
Q 5.515625 13.875 5.515625 27.296875 
Q 5.515625 40.765625 12.171875 48.375 
Q 18.84375 56 30.609375 56 
z
" id="DejaVuSans-111"/>
       <path d="M 54.890625 33.015625 
L 54.890625 0 
L 45.90625 0 
L 45.90625 32.71875 
Q 45.90625 40.484375 42.875 44.328125 
Q 39.84375 48.1875 33.796875 48.1875 
Q 26.515625 48.1875 22.3125 43.546875 
Q 18.109375 38.921875 18.109375 30.90625 
L 18.109375 0 
L 9.078125 0 
L 9.078125 54.6875 
L 18.109375 54.6875 
L 18.109375 46.1875 
Q 21.34375 51.125 25.703125 53.5625 
Q 30.078125 56 35.796875 56 
Q 45.21875 56 50.046875 50.171875 
Q 54.890625 44.34375 54.890625 33.015625 
z
" id="DejaVuSans-110"/>
       <path d="M 45.40625 46.390625 
L 45.40625 75.984375 
L 54.390625 75.984375 
L 54.390625 0 
L 45.40625 0 
L 45.40625 8.203125 
Q 42.578125 3.328125 38.25 0.953125 
Q 33.9375 -1.421875 27.875 -1.421875 
Q 17.96875 -1.421875 11.734375 6.484375 
Q 5.515625 14.40625 5.515625 27.296875 
Q 5.515625 40.1875 11.734375 48.09375 
Q 17.96875 56 27.875 56 
Q 33.9375 56 38.25 53.625 
Q 42.578125 51.265625 45.40625 46.390625 
z
M 14.796875 27.296875 
Q 14.796875 17.390625 18.875 11.75 
Q 22.953125 6.109375 30.078125 6.109375 
Q 37.203125 6.109375 41.296875 11.75 
Q 45.40625 17.390625 45.40625 27.296875 
Q 45.40625 37.203125 41.296875 42.84375 
Q 37.203125 48.484375 30.078125 48.484375 
Q 22.953125 48.484375 18.875 42.84375 
Q 14.796875 37.203125 14.796875 27.296875 
z
" id="DejaVuSans-100"/>
       <path d="M 44.28125 53.078125 
L 44.28125 44.578125 
Q 40.484375 46.53125 36.375 47.5 
Q 32.28125 48.484375 27.875 48.484375 
Q 21.1875 48.484375 17.84375 46.4375 
Q 14.5 44.390625 14.5 40.28125 
Q 14.5 37.15625 16.890625 35.375 
Q 19.28125 33.59375 26.515625 31.984375 
L 29.59375 31.296875 
Q 39.15625 29.25 43.1875 25.515625 
Q 47.21875 21.78125 47.21875 15.09375 
Q 47.21875 7.46875 41.1875 3.015625 
Q 35.15625 -1.421875 24.609375 -1.421875 
Q 20.21875 -1.421875 15.453125 -0.5625 
Q 10.6875 0.296875 5.421875 2 
L 5.421875 11.28125 
Q 10.40625 8.6875 15.234375 7.390625 
Q 20.0625 6.109375 24.8125 6.109375 
Q 31.15625 6.109375 34.5625 8.28125 
Q 37.984375 10.453125 37.984375 14.40625 
Q 37.984375 18.0625 35.515625 20.015625 
Q 33.0625 21.96875 24.703125 23.78125 
L 21.578125 24.515625 
Q 13.234375 26.265625 9.515625 29.90625 
Q 5.8125 33.546875 5.8125 39.890625 
Q 5.8125 47.609375 11.28125 51.796875 
Q 16.75 56 26.8125 56 
Q 31.78125 56 36.171875 55.265625 
Q 40.578125 54.546875 44.28125 53.078125 
z
" id="DejaVuSans-115"/>
      </defs>
      <use xlink:href="#DejaVuSans-84"/>
      <use x="57.958984" xlink:href="#DejaVuSans-105"/>
      <use x="85.742188" xlink:href="#DejaVuSans-109"/>
      <use x="183.154297" xlink:href="#DejaVuSans-101"/>
      <use x="244.677734" xlink:href="#DejaVuSans-32"/>
      <use x="276.464844" xlink:href="#DejaVuSans-40"/>
      <use x="315.478516" xlink:href="#DejaVuSans-83"/>
      <use x="378.955078" xlink:href="#DejaVuSans-101"/>
      <use x="440.478516" xlink:href="#DejaVuSans-99"/>
      <use x="495.458984" xlink:href="#DejaVuSans-111"/>
      <use x="556.640625" xlink:href="#DejaVuSans-110"/>
      <use x="620.019531" xlink:href="#DejaVuSans-100"/>
      <use x="683.496094" xlink:href="#DejaVuSans-115"/>
      <use x="735.595703" xlink:href="#DejaVuSans-41"/>
     </g>
    </g>
   </g>
   <g id="matplotlib.axis_4">
    <g id="ytick_3">
     <g id="line2d_14">
      <g>
       <use style="stroke:#000000;stroke-width:0.8;" x="29" xlink:href="#mf0823b730b" y="96.759223"/>
      </g>
     </g>
    </g>
    <g id="ytick_4">
     <g id="line2d_15">
      <g>
       <use style="stroke:#000000;stroke-width:0.8;" x="29" xlink:href="#mf0823b730b" y="72.150361"/>
      </g>
     </g>
    </g>
    <g id="text_3">
     <!-- PPG (mV) -->
     <g transform="translate(16.33625 109.772338)rotate(-90)scale(0.08 -0.08)">
      <defs>
       <path d="M 19.671875 64.796875 
L 19.671875 37.40625 
L 32.078125 37.40625 
Q 38.96875 37.40625 42.71875 40.96875 
Q 46.484375 44.53125 46.484375 51.125 
Q 46.484375 57.671875 42.71875 61.234375 
Q 38.96875 64.796875 32.078125 64.796875 
z
M 9.8125 72.90625 
L 32.078125 72.90625 
Q 44.34375 72.90625 50.609375 67.359375 
Q 56.890625 61.8125 56.890625 51.125 
Q 56.890625 40.328125 50.609375 34.8125 
Q 44.34375 29.296875 32.078125 29.296875 
L 19.671875 29.296875 
L 19.671875 0 
L 9.8125 0 
z
" id="DejaVuSans-80"/>
      </defs>
      <use xlink:href="#DejaVuSans-80"/>
      <use x="60.302734" xlink:href="#DejaVuSans-80"/>
      <use x="120.605469" xlink:href="#DejaVuSans-71"/>
      <use x="198.095703" xlink:href="#DejaVuSans-32"/>
      <use x="229.882812" xlink:href="#DejaVuSans-40"/>
      <use x="268.896484" xlink:href="#DejaVuSans-109"/>
      <use x="366.308594" xlink:href="#DejaVuSans-86"/>
      <use x="434.716797" xlink:href="#DejaVuSans-41"/>
     </g>
    </g>
   </g>
   <g id="line2d_16">
    <path clip-path="url(#p4777a3cee0)" d="M 28.655339 82.182257 
L 29.381625 81.769205 
L 30.107911 81.634025 
L 33.376198 81.348644 
L 35.555056 81.859326 
L 36.644485 82.032056 
L 38.097057 82.572778 
L 39.549629 83.248681 
L 40.639058 84.022214 
L 42.817915 86.049922 
L 43.544201 86.951125 
L 46.086202 90.683609 
L 48.26506 92.786417 
L 49.717632 93.971124 
L 52.622776 95.735981 
L 55.164777 96.355559 
L 56.617349 96.881261 
L 58.069921 97.294312 
L 59.15935 98.007765 
L 60.248778 98.664892 
L 63.880208 100.091798 
L 65.695923 101.032429 
L 67.148495 101.783432 
L 71.506211 103.510738 
L 72.59564 103.679714 
L 73.685069 104.07399 
L 76.953356 105.651096 
L 77.679641 105.591016 
L 79.495356 104.877563 
L 80.221642 105.087844 
L 81.311071 105.801297 
L 82.4005 106.402099 
L 84.942501 107.093022 
L 86.03193 107.130572 
L 88.573931 106.942821 
L 94.021076 107.205672 
L 96.926219 106.980371 
L 98.741934 107.190652 
L 99.46822 107.205672 
L 100.557649 106.890251 
L 101.647078 106.66495 
L 103.09965 106.67997 
L 104.552222 106.815151 
L 106.73108 106.755071 
L 108.183652 106.60487 
L 109.273081 106.927801 
L 109.999367 107.190652 
L 110.725653 107.265753 
L 111.815082 107.002902 
L 112.90451 106.792621 
L 113.630796 106.852701 
L 114.720225 107.055472 
L 115.446511 107.017922 
L 116.172797 106.66495 
L 116.899083 105.876397 
L 117.625369 104.637243 
L 118.714798 102.158933 
L 120.16737 98.120415 
L 123.072514 88.993853 
L 123.7988 87.476827 
L 124.888229 85.802091 
L 126.703944 83.496512 
L 130.698516 79.471137 
L 131.787945 78.780214 
L 132.877374 78.374672 
L 133.966803 78.089291 
L 134.693089 78.029211 
L 136.508804 78.179412 
L 138.687662 78.014191 
L 139.413948 78.239492 
L 140.503377 78.840294 
L 141.592806 79.396036 
L 142.682235 79.966799 
L 143.408521 80.552581 
L 144.134807 81.318604 
L 145.587379 83.271211 
L 149.218808 88.040079 
L 150.308237 89.053933 
L 152.850238 90.739935 
L 153.939667 91.359512 
L 155.029096 91.716238 
L 159.749955 92.692542 
L 160.839384 93.407872 
L 161.928813 94.083775 
L 162.655099 94.327851 
L 164.107671 94.647027 
L 165.197099 95.191504 
L 166.649671 95.904957 
L 171.007387 97.181662 
L 173.549388 97.500838 
L 177.180818 98.721218 
L 180.449105 99.997922 
L 181.538534 100.204448 
L 184.080534 100.523624 
L 186.622535 101.29528 
L 187.711964 101.595681 
L 189.164536 101.652006 
L 190.253965 101.670781 
L 191.706537 102.140158 
L 192.795966 102.421784 
L 193.522252 102.459334 
L 195.337967 102.365459 
L 197.516825 102.440559 
L 198.606254 102.62831 
L 200.058825 103.003811 
L 201.148254 102.966261 
L 202.600826 102.759735 
L 205.142827 102.966261 
L 206.595399 102.928711 
L 209.863686 103.360538 
L 212.405687 102.891161 
L 213.131973 102.947486 
L 213.495116 103.041361 
L 213.495116 103.041361 
" style="fill:none;stroke:#1f77b4;stroke-linecap:square;stroke-width:1.5;"/>
   </g>
   <g id="patch_6">
    <path d="M 29 112.732283 
L 29 68.916142 
" style="fill:none;stroke:#000000;stroke-linecap:square;stroke-linejoin:miter;stroke-width:0.8;"/>
   </g>
   <g id="patch_7">
    <path d="M 29 112.732283 
L 213.137008 112.732283 
" style="fill:none;stroke:#000000;stroke-linecap:square;stroke-linejoin:miter;stroke-width:0.8;"/>
   </g>
  </g>
 </g>
 <defs>
  <clipPath id="p404c849855">
   <rect height="43.816142" width="184.137008" x="29" y="10.8"/>
  </clipPath>
  <clipPath id="p4777a3cee0">
   <rect height="43.816142" width="184.137008" x="29" y="68.916142"/>
  </clipPath>
 </defs>
</svg>
