<?xml version="1.0" encoding="utf-8" standalone="no"?>
<!DOCTYPE svg PUBLIC "-//W3C//DTD SVG 1.1//EN"
  "http://www.w3.org/Graphics/SVG/1.1/DTD/svg11.dtd">
<!-- Created with matplotlib (https://matplotlib.org/) -->
<svg height="141.732283pt" version="1.1" viewBox="0 0 223.937008 141.732283" width="223.937008pt" xmlns="http://www.w3.org/2000/svg" xmlns:xlink="http://www.w3.org/1999/xlink">
 <metadata>
  <rdf:RDF xmlns:cc="http://creativecommons.org/ns#" xmlns:dc="http://purl.org/dc/elements/1.1/" xmlns:rdf="http://www.w3.org/1999/02/22-rdf-syntax-ns#">
   <cc:Work>
    <dc:type rdf:resource="http://purl.org/dc/dcmitype/StillImage"/>
    <dc:date>2021-04-12T09:25:51.956313</dc:date>
    <dc:format>image/svg+xml</dc:format>
    <dc:creator>
     <cc:Agent>
      <dc:title>Matplotlib v3.3.2, https://matplotlib.org/</dc:title>
     </cc:Agent>
    </dc:creator>
   </cc:Work>
  </rdf:RDF>
 </metadata>
 <defs>
  <style type="text/css">*{stroke-linecap:butt;stroke-linejoin:round;}</style>
 </defs>
 <g id="figure_1">
  <g id="patch_1">
   <path d="M 0 141.732283 
L 223.937008 141.732283 
L 223.937008 0 
L 0 0 
z
" style="fill:#ffffff;"/>
  </g>
  <g id="axes_1">
   <g id="patch_2">
    <path d="M 46.91 105.532283 
L 213.137008 105.532283 
L 213.137008 10.8 
L 46.91 10.8 
z
" style="fill:#ffffff;"/>
   </g>
   <g id="matplotlib.axis_1">
    <g id="xtick_1">
     <g id="line2d_1">
      <defs>
       <path d="M 0 0 
L 0 3.5 
" id="mf1088cf2c5" style="stroke:#000000;stroke-width:0.8;"/>
      </defs>
      <g>
       <use style="stroke:#000000;stroke-width:0.8;" x="54.435556" xlink:href="#mf1088cf2c5" y="105.532283"/>
      </g>
     </g>
     <g id="text_1">
      <!-- 0.0 -->
      <g transform="translate(48.074306 118.611033)scale(0.08 -0.08)">
       <defs>
        <path d="M 31.78125 66.40625 
Q 24.171875 66.40625 20.328125 58.90625 
Q 16.5 51.421875 16.5 36.375 
Q 16.5 21.390625 20.328125 13.890625 
Q 24.171875 6.390625 31.78125 6.390625 
Q 39.453125 6.390625 43.28125 13.890625 
Q 47.125 21.390625 47.125 36.375 
Q 47.125 51.421875 43.28125 58.90625 
Q 39.453125 66.40625 31.78125 66.40625 
z
M 31.78125 74.21875 
Q 44.046875 74.21875 50.515625 64.515625 
Q 56.984375 54.828125 56.984375 36.375 
Q 56.984375 17.96875 50.515625 8.265625 
Q 44.046875 -1.421875 31.78125 -1.421875 
Q 19.53125 -1.421875 13.0625 8.265625 
Q 6.59375 17.96875 6.59375 36.375 
Q 6.59375 54.828125 13.0625 64.515625 
Q 19.53125 74.21875 31.78125 74.21875 
z
" id="DejaVuSans-48"/>
        <path d="M 10.6875 12.40625 
L 21 12.40625 
L 21 0 
L 10.6875 0 
z
" id="DejaVuSans-46"/>
       </defs>
       <use xlink:href="#DejaVuSans-48"/>
       <use x="63.623047" xlink:href="#DejaVuSans-46"/>
       <use x="95.410156" xlink:href="#DejaVuSans-48"/>
      </g>
     </g>
    </g>
    <g id="xtick_2">
     <g id="line2d_2">
      <g>
       <use style="stroke:#000000;stroke-width:0.8;" x="89.508129" xlink:href="#mf1088cf2c5" y="105.532283"/>
      </g>
     </g>
     <g id="text_2">
      <!-- 2.5 -->
      <g transform="translate(83.146879 118.611033)scale(0.08 -0.08)">
       <defs>
        <path d="M 19.1875 8.296875 
L 53.609375 8.296875 
L 53.609375 0 
L 7.328125 0 
L 7.328125 8.296875 
Q 12.9375 14.109375 22.625 23.890625 
Q 32.328125 33.6875 34.8125 36.53125 
Q 39.546875 41.84375 41.421875 45.53125 
Q 43.3125 49.21875 43.3125 52.78125 
Q 43.3125 58.59375 39.234375 62.25 
Q 35.15625 65.921875 28.609375 65.921875 
Q 23.96875 65.921875 18.8125 64.3125 
Q 13.671875 62.703125 7.8125 59.421875 
L 7.8125 69.390625 
Q 13.765625 71.78125 18.9375 73 
Q 24.125 74.21875 28.421875 74.21875 
Q 39.75 74.21875 46.484375 68.546875 
Q 53.21875 62.890625 53.21875 53.421875 
Q 53.21875 48.921875 51.53125 44.890625 
Q 49.859375 40.875 45.40625 35.40625 
Q 44.1875 33.984375 37.640625 27.21875 
Q 31.109375 20.453125 19.1875 8.296875 
z
" id="DejaVuSans-50"/>
        <path d="M 10.796875 72.90625 
L 49.515625 72.90625 
L 49.515625 64.59375 
L 19.828125 64.59375 
L 19.828125 46.734375 
Q 21.96875 47.46875 24.109375 47.828125 
Q 26.265625 48.1875 28.421875 48.1875 
Q 40.625 48.1875 47.75 41.5 
Q 54.890625 34.8125 54.890625 23.390625 
Q 54.890625 11.625 47.5625 5.09375 
Q 40.234375 -1.421875 26.90625 -1.421875 
Q 22.3125 -1.421875 17.546875 -0.640625 
Q 12.796875 0.140625 7.71875 1.703125 
L 7.71875 11.625 
Q 12.109375 9.234375 16.796875 8.0625 
Q 21.484375 6.890625 26.703125 6.890625 
Q 35.15625 6.890625 40.078125 11.328125 
Q 45.015625 15.765625 45.015625 23.390625 
Q 45.015625 31 40.078125 35.4375 
Q 35.15625 39.890625 26.703125 39.890625 
Q 22.75 39.890625 18.8125 39.015625 
Q 14.890625 38.140625 10.796875 36.28125 
z
" id="DejaVuSans-53"/>
       </defs>
       <use xlink:href="#DejaVuSans-50"/>
       <use x="63.623047" xlink:href="#DejaVuSans-46"/>
       <use x="95.410156" xlink:href="#DejaVuSans-53"/>
      </g>
     </g>
    </g>
    <g id="xtick_3">
     <g id="line2d_3">
      <g>
       <use style="stroke:#000000;stroke-width:0.8;" x="124.580702" xlink:href="#mf1088cf2c5" y="105.532283"/>
      </g>
     </g>
     <g id="text_3">
      <!-- 5.0 -->
      <g transform="translate(118.219452 118.611033)scale(0.08 -0.08)">
       <use xlink:href="#DejaVuSans-53"/>
       <use x="63.623047" xlink:href="#DejaVuSans-46"/>
       <use x="95.410156" xlink:href="#DejaVuSans-48"/>
      </g>
     </g>
    </g>
    <g id="xtick_4">
     <g id="line2d_4">
      <g>
       <use style="stroke:#000000;stroke-width:0.8;" x="159.653275" xlink:href="#mf1088cf2c5" y="105.532283"/>
      </g>
     </g>
     <g id="text_4">
      <!-- 7.5 -->
      <g transform="translate(153.292025 118.611033)scale(0.08 -0.08)">
       <defs>
        <path d="M 8.203125 72.90625 
L 55.078125 72.90625 
L 55.078125 68.703125 
L 28.609375 0 
L 18.3125 0 
L 43.21875 64.59375 
L 8.203125 64.59375 
z
" id="DejaVuSans-55"/>
       </defs>
       <use xlink:href="#DejaVuSans-55"/>
       <use x="63.623047" xlink:href="#DejaVuSans-46"/>
       <use x="95.410156" xlink:href="#DejaVuSans-53"/>
      </g>
     </g>
    </g>
    <g id="xtick_5">
     <g id="line2d_5">
      <g>
       <use style="stroke:#000000;stroke-width:0.8;" x="194.725847" xlink:href="#mf1088cf2c5" y="105.532283"/>
      </g>
     </g>
     <g id="text_5">
      <!-- 10.0 -->
      <g transform="translate(185.819597 118.611033)scale(0.08 -0.08)">
       <defs>
        <path d="M 12.40625 8.296875 
L 28.515625 8.296875 
L 28.515625 63.921875 
L 10.984375 60.40625 
L 10.984375 69.390625 
L 28.421875 72.90625 
L 38.28125 72.90625 
L 38.28125 8.296875 
L 54.390625 8.296875 
L 54.390625 0 
L 12.40625 0 
z
" id="DejaVuSans-49"/>
       </defs>
       <use xlink:href="#DejaVuSans-49"/>
       <use x="63.623047" xlink:href="#DejaVuSans-48"/>
       <use x="127.246094" xlink:href="#DejaVuSans-46"/>
       <use x="159.033203" xlink:href="#DejaVuSans-48"/>
      </g>
     </g>
    </g>
    <g id="text_6">
     <!-- Time (Hours) -->
     <g transform="translate(104.125379 130.353533)scale(0.08 -0.08)">
      <defs>
       <path d="M -0.296875 72.90625 
L 61.375 72.90625 
L 61.375 64.59375 
L 35.5 64.59375 
L 35.5 0 
L 25.59375 0 
L 25.59375 64.59375 
L -0.296875 64.59375 
z
" id="DejaVuSans-84"/>
       <path d="M 9.421875 54.6875 
L 18.40625 54.6875 
L 18.40625 0 
L 9.421875 0 
z
M 9.421875 75.984375 
L 18.40625 75.984375 
L 18.40625 64.59375 
L 9.421875 64.59375 
z
" id="DejaVuSans-105"/>
       <path d="M 52 44.1875 
Q 55.375 50.25 60.0625 53.125 
Q 64.75 56 71.09375 56 
Q 79.640625 56 84.28125 50.015625 
Q 88.921875 44.046875 88.921875 33.015625 
L 88.921875 0 
L 79.890625 0 
L 79.890625 32.71875 
Q 79.890625 40.578125 77.09375 44.375 
Q 74.3125 48.1875 68.609375 48.1875 
Q 61.625 48.1875 57.5625 43.546875 
Q 53.515625 38.921875 53.515625 30.90625 
L 53.515625 0 
L 44.484375 0 
L 44.484375 32.71875 
Q 44.484375 40.625 41.703125 44.40625 
Q 38.921875 48.1875 33.109375 48.1875 
Q 26.21875 48.1875 22.15625 43.53125 
Q 18.109375 38.875 18.109375 30.90625 
L 18.109375 0 
L 9.078125 0 
L 9.078125 54.6875 
L 18.109375 54.6875 
L 18.109375 46.1875 
Q 21.1875 51.21875 25.484375 53.609375 
Q 29.78125 56 35.6875 56 
Q 41.65625 56 45.828125 52.96875 
Q 50 49.953125 52 44.1875 
z
" id="DejaVuSans-109"/>
       <path d="M 56.203125 29.59375 
L 56.203125 25.203125 
L 14.890625 25.203125 
Q 15.484375 15.921875 20.484375 11.0625 
Q 25.484375 6.203125 34.421875 6.203125 
Q 39.59375 6.203125 44.453125 7.46875 
Q 49.3125 8.734375 54.109375 11.28125 
L 54.109375 2.78125 
Q 49.265625 0.734375 44.1875 -0.34375 
Q 39.109375 -1.421875 33.890625 -1.421875 
Q 20.796875 -1.421875 13.15625 6.1875 
Q 5.515625 13.8125 5.515625 26.8125 
Q 5.515625 40.234375 12.765625 48.109375 
Q 20.015625 56 32.328125 56 
Q 43.359375 56 49.78125 48.890625 
Q 56.203125 41.796875 56.203125 29.59375 
z
M 47.21875 32.234375 
Q 47.125 39.59375 43.09375 43.984375 
Q 39.0625 48.390625 32.421875 48.390625 
Q 24.90625 48.390625 20.390625 44.140625 
Q 15.875 39.890625 15.1875 32.171875 
z
" id="DejaVuSans-101"/>
       <path id="DejaVuSans-32"/>
       <path d="M 31 75.875 
Q 24.46875 64.65625 21.28125 53.65625 
Q 18.109375 42.671875 18.109375 31.390625 
Q 18.109375 20.125 21.3125 9.0625 
Q 24.515625 -2 31 -13.1875 
L 23.1875 -13.1875 
Q 15.875 -1.703125 12.234375 9.375 
Q 8.59375 20.453125 8.59375 31.390625 
Q 8.59375 42.28125 12.203125 53.3125 
Q 15.828125 64.359375 23.1875 75.875 
z
" id="DejaVuSans-40"/>
       <path d="M 9.8125 72.90625 
L 19.671875 72.90625 
L 19.671875 43.015625 
L 55.515625 43.015625 
L 55.515625 72.90625 
L 65.375 72.90625 
L 65.375 0 
L 55.515625 0 
L 55.515625 34.71875 
L 19.671875 34.71875 
L 19.671875 0 
L 9.8125 0 
z
" id="DejaVuSans-72"/>
       <path d="M 30.609375 48.390625 
Q 23.390625 48.390625 19.1875 42.75 
Q 14.984375 37.109375 14.984375 27.296875 
Q 14.984375 17.484375 19.15625 11.84375 
Q 23.34375 6.203125 30.609375 6.203125 
Q 37.796875 6.203125 41.984375 11.859375 
Q 46.1875 17.53125 46.1875 27.296875 
Q 46.1875 37.015625 41.984375 42.703125 
Q 37.796875 48.390625 30.609375 48.390625 
z
M 30.609375 56 
Q 42.328125 56 49.015625 48.375 
Q 55.71875 40.765625 55.71875 27.296875 
Q 55.71875 13.875 49.015625 6.21875 
Q 42.328125 -1.421875 30.609375 -1.421875 
Q 18.84375 -1.421875 12.171875 6.21875 
Q 5.515625 13.875 5.515625 27.296875 
Q 5.515625 40.765625 12.171875 48.375 
Q 18.84375 56 30.609375 56 
z
" id="DejaVuSans-111"/>
       <path d="M 8.5 21.578125 
L 8.5 54.6875 
L 17.484375 54.6875 
L 17.484375 21.921875 
Q 17.484375 14.15625 20.5 10.265625 
Q 23.53125 6.390625 29.59375 6.390625 
Q 36.859375 6.390625 41.078125 11.03125 
Q 45.3125 15.671875 45.3125 23.6875 
L 45.3125 54.6875 
L 54.296875 54.6875 
L 54.296875 0 
L 45.3125 0 
L 45.3125 8.40625 
Q 42.046875 3.421875 37.71875 1 
Q 33.40625 -1.421875 27.6875 -1.421875 
Q 18.265625 -1.421875 13.375 4.4375 
Q 8.5 10.296875 8.5 21.578125 
z
M 31.109375 56 
z
" id="DejaVuSans-117"/>
       <path d="M 41.109375 46.296875 
Q 39.59375 47.171875 37.8125 47.578125 
Q 36.03125 48 33.890625 48 
Q 26.265625 48 22.1875 43.046875 
Q 18.109375 38.09375 18.109375 28.8125 
L 18.109375 0 
L 9.078125 0 
L 9.078125 54.6875 
L 18.109375 54.6875 
L 18.109375 46.1875 
Q 20.953125 51.171875 25.484375 53.578125 
Q 30.03125 56 36.53125 56 
Q 37.453125 56 38.578125 55.875 
Q 39.703125 55.765625 41.0625 55.515625 
z
" id="DejaVuSans-114"/>
       <path d="M 44.28125 53.078125 
L 44.28125 44.578125 
Q 40.484375 46.53125 36.375 47.5 
Q 32.28125 48.484375 27.875 48.484375 
Q 21.1875 48.484375 17.84375 46.4375 
Q 14.5 44.390625 14.5 40.28125 
Q 14.5 37.15625 16.890625 35.375 
Q 19.28125 33.59375 26.515625 31.984375 
L 29.59375 31.296875 
Q 39.15625 29.25 43.1875 25.515625 
Q 47.21875 21.78125 47.21875 15.09375 
Q 47.21875 7.46875 41.1875 3.015625 
Q 35.15625 -1.421875 24.609375 -1.421875 
Q 20.21875 -1.421875 15.453125 -0.5625 
Q 10.6875 0.296875 5.421875 2 
L 5.421875 11.28125 
Q 10.40625 8.6875 15.234375 7.390625 
Q 20.0625 6.109375 24.8125 6.109375 
Q 31.15625 6.109375 34.5625 8.28125 
Q 37.984375 10.453125 37.984375 14.40625 
Q 37.984375 18.0625 35.515625 20.015625 
Q 33.0625 21.96875 24.703125 23.78125 
L 21.578125 24.515625 
Q 13.234375 26.265625 9.515625 29.90625 
Q 5.8125 33.546875 5.8125 39.890625 
Q 5.8125 47.609375 11.28125 51.796875 
Q 16.75 56 26.8125 56 
Q 31.78125 56 36.171875 55.265625 
Q 40.578125 54.546875 44.28125 53.078125 
z
" id="DejaVuSans-115"/>
       <path d="M 8.015625 75.875 
L 15.828125 75.875 
Q 23.140625 64.359375 26.78125 53.3125 
Q 30.421875 42.28125 30.421875 31.390625 
Q 30.421875 20.453125 26.78125 9.375 
Q 23.140625 -1.703125 15.828125 -13.1875 
L 8.015625 -13.1875 
Q 14.5 -2 17.703125 9.0625 
Q 20.90625 20.125 20.90625 31.390625 
Q 20.90625 42.671875 17.703125 53.65625 
Q 14.5 64.65625 8.015625 75.875 
z
" id="DejaVuSans-41"/>
      </defs>
      <use xlink:href="#DejaVuSans-84"/>
      <use x="57.958984" xlink:href="#DejaVuSans-105"/>
      <use x="85.742188" xlink:href="#DejaVuSans-109"/>
      <use x="183.154297" xlink:href="#DejaVuSans-101"/>
      <use x="244.677734" xlink:href="#DejaVuSans-32"/>
      <use x="276.464844" xlink:href="#DejaVuSans-40"/>
      <use x="315.478516" xlink:href="#DejaVuSans-72"/>
      <use x="390.673828" xlink:href="#DejaVuSans-111"/>
      <use x="451.855469" xlink:href="#DejaVuSans-117"/>
      <use x="515.234375" xlink:href="#DejaVuSans-114"/>
      <use x="556.347656" xlink:href="#DejaVuSans-115"/>
      <use x="608.447266" xlink:href="#DejaVuSans-41"/>
     </g>
    </g>
   </g>
   <g id="matplotlib.axis_2">
    <g id="ytick_1">
     <g id="line2d_6">
      <defs>
       <path d="M 0 0 
L -3.5 0 
" id="m7b1655429b" style="stroke:#000000;stroke-width:0.8;"/>
      </defs>
      <g>
       <use style="stroke:#000000;stroke-width:0.8;" x="46.91" xlink:href="#m7b1655429b" y="94.558896"/>
      </g>
     </g>
     <g id="text_7">
      <!-- 0.40 -->
      <g transform="translate(22.0975 97.598271)scale(0.08 -0.08)">
       <defs>
        <path d="M 37.796875 64.3125 
L 12.890625 25.390625 
L 37.796875 25.390625 
z
M 35.203125 72.90625 
L 47.609375 72.90625 
L 47.609375 25.390625 
L 58.015625 25.390625 
L 58.015625 17.1875 
L 47.609375 17.1875 
L 47.609375 0 
L 37.796875 0 
L 37.796875 17.1875 
L 4.890625 17.1875 
L 4.890625 26.703125 
z
" id="DejaVuSans-52"/>
       </defs>
       <use xlink:href="#DejaVuSans-48"/>
       <use x="63.623047" xlink:href="#DejaVuSans-46"/>
       <use x="95.410156" xlink:href="#DejaVuSans-52"/>
       <use x="159.033203" xlink:href="#DejaVuSans-48"/>
      </g>
     </g>
    </g>
    <g id="ytick_2">
     <g id="line2d_7">
      <g>
       <use style="stroke:#000000;stroke-width:0.8;" x="46.91" xlink:href="#m7b1655429b" y="58.999564"/>
      </g>
     </g>
     <g id="text_8">
      <!-- 0.45 -->
      <g transform="translate(22.0975 62.038939)scale(0.08 -0.08)">
       <use xlink:href="#DejaVuSans-48"/>
       <use x="63.623047" xlink:href="#DejaVuSans-46"/>
       <use x="95.410156" xlink:href="#DejaVuSans-52"/>
       <use x="159.033203" xlink:href="#DejaVuSans-53"/>
      </g>
     </g>
    </g>
    <g id="ytick_3">
     <g id="line2d_8">
      <g>
       <use style="stroke:#000000;stroke-width:0.8;" x="46.91" xlink:href="#m7b1655429b" y="23.440231"/>
      </g>
     </g>
     <g id="text_9">
      <!-- 0.50 -->
      <g transform="translate(22.0975 26.479606)scale(0.08 -0.08)">
       <use xlink:href="#DejaVuSans-48"/>
       <use x="63.623047" xlink:href="#DejaVuSans-46"/>
       <use x="95.410156" xlink:href="#DejaVuSans-53"/>
       <use x="159.033203" xlink:href="#DejaVuSans-48"/>
      </g>
     </g>
    </g>
    <g id="text_10">
     <!-- Pulse Arrival Time (Seconds) -->
     <g transform="translate(16.43375 115.223017)rotate(-90)scale(0.08 -0.08)">
      <defs>
       <path d="M 19.671875 64.796875 
L 19.671875 37.40625 
L 32.078125 37.40625 
Q 38.96875 37.40625 42.71875 40.96875 
Q 46.484375 44.53125 46.484375 51.125 
Q 46.484375 57.671875 42.71875 61.234375 
Q 38.96875 64.796875 32.078125 64.796875 
z
M 9.8125 72.90625 
L 32.078125 72.90625 
Q 44.34375 72.90625 50.609375 67.359375 
Q 56.890625 61.8125 56.890625 51.125 
Q 56.890625 40.328125 50.609375 34.8125 
Q 44.34375 29.296875 32.078125 29.296875 
L 19.671875 29.296875 
L 19.671875 0 
L 9.8125 0 
z
" id="DejaVuSans-80"/>
       <path d="M 9.421875 75.984375 
L 18.40625 75.984375 
L 18.40625 0 
L 9.421875 0 
z
" id="DejaVuSans-108"/>
       <path d="M 34.1875 63.1875 
L 20.796875 26.90625 
L 47.609375 26.90625 
z
M 28.609375 72.90625 
L 39.796875 72.90625 
L 67.578125 0 
L 57.328125 0 
L 50.6875 18.703125 
L 17.828125 18.703125 
L 11.1875 0 
L 0.78125 0 
z
" id="DejaVuSans-65"/>
       <path d="M 2.984375 54.6875 
L 12.5 54.6875 
L 29.59375 8.796875 
L 46.6875 54.6875 
L 56.203125 54.6875 
L 35.6875 0 
L 23.484375 0 
z
" id="DejaVuSans-118"/>
       <path d="M 34.28125 27.484375 
Q 23.390625 27.484375 19.1875 25 
Q 14.984375 22.515625 14.984375 16.5 
Q 14.984375 11.71875 18.140625 8.90625 
Q 21.296875 6.109375 26.703125 6.109375 
Q 34.1875 6.109375 38.703125 11.40625 
Q 43.21875 16.703125 43.21875 25.484375 
L 43.21875 27.484375 
z
M 52.203125 31.203125 
L 52.203125 0 
L 43.21875 0 
L 43.21875 8.296875 
Q 40.140625 3.328125 35.546875 0.953125 
Q 30.953125 -1.421875 24.3125 -1.421875 
Q 15.921875 -1.421875 10.953125 3.296875 
Q 6 8.015625 6 15.921875 
Q 6 25.140625 12.171875 29.828125 
Q 18.359375 34.515625 30.609375 34.515625 
L 43.21875 34.515625 
L 43.21875 35.40625 
Q 43.21875 41.609375 39.140625 45 
Q 35.0625 48.390625 27.6875 48.390625 
Q 23 48.390625 18.546875 47.265625 
Q 14.109375 46.140625 10.015625 43.890625 
L 10.015625 52.203125 
Q 14.9375 54.109375 19.578125 55.046875 
Q 24.21875 56 28.609375 56 
Q 40.484375 56 46.34375 49.84375 
Q 52.203125 43.703125 52.203125 31.203125 
z
" id="DejaVuSans-97"/>
       <path d="M 53.515625 70.515625 
L 53.515625 60.890625 
Q 47.90625 63.578125 42.921875 64.890625 
Q 37.9375 66.21875 33.296875 66.21875 
Q 25.25 66.21875 20.875 63.09375 
Q 16.5 59.96875 16.5 54.203125 
Q 16.5 49.359375 19.40625 46.890625 
Q 22.3125 44.4375 30.421875 42.921875 
L 36.375 41.703125 
Q 47.40625 39.59375 52.65625 34.296875 
Q 57.90625 29 57.90625 20.125 
Q 57.90625 9.515625 50.796875 4.046875 
Q 43.703125 -1.421875 29.984375 -1.421875 
Q 24.8125 -1.421875 18.96875 -0.25 
Q 13.140625 0.921875 6.890625 3.21875 
L 6.890625 13.375 
Q 12.890625 10.015625 18.65625 8.296875 
Q 24.421875 6.59375 29.984375 6.59375 
Q 38.421875 6.59375 43.015625 9.90625 
Q 47.609375 13.234375 47.609375 19.390625 
Q 47.609375 24.75 44.3125 27.78125 
Q 41.015625 30.8125 33.5 32.328125 
L 27.484375 33.5 
Q 16.453125 35.6875 11.515625 40.375 
Q 6.59375 45.0625 6.59375 53.421875 
Q 6.59375 63.09375 13.40625 68.65625 
Q 20.21875 74.21875 32.171875 74.21875 
Q 37.3125 74.21875 42.625 73.28125 
Q 47.953125 72.359375 53.515625 70.515625 
z
" id="DejaVuSans-83"/>
       <path d="M 48.78125 52.59375 
L 48.78125 44.1875 
Q 44.96875 46.296875 41.140625 47.34375 
Q 37.3125 48.390625 33.40625 48.390625 
Q 24.65625 48.390625 19.8125 42.84375 
Q 14.984375 37.3125 14.984375 27.296875 
Q 14.984375 17.28125 19.8125 11.734375 
Q 24.65625 6.203125 33.40625 6.203125 
Q 37.3125 6.203125 41.140625 7.25 
Q 44.96875 8.296875 48.78125 10.40625 
L 48.78125 2.09375 
Q 45.015625 0.34375 40.984375 -0.53125 
Q 36.96875 -1.421875 32.421875 -1.421875 
Q 20.0625 -1.421875 12.78125 6.34375 
Q 5.515625 14.109375 5.515625 27.296875 
Q 5.515625 40.671875 12.859375 48.328125 
Q 20.21875 56 33.015625 56 
Q 37.15625 56 41.109375 55.140625 
Q 45.0625 54.296875 48.78125 52.59375 
z
" id="DejaVuSans-99"/>
       <path d="M 54.890625 33.015625 
L 54.890625 0 
L 45.90625 0 
L 45.90625 32.71875 
Q 45.90625 40.484375 42.875 44.328125 
Q 39.84375 48.1875 33.796875 48.1875 
Q 26.515625 48.1875 22.3125 43.546875 
Q 18.109375 38.921875 18.109375 30.90625 
L 18.109375 0 
L 9.078125 0 
L 9.078125 54.6875 
L 18.109375 54.6875 
L 18.109375 46.1875 
Q 21.34375 51.125 25.703125 53.5625 
Q 30.078125 56 35.796875 56 
Q 45.21875 56 50.046875 50.171875 
Q 54.890625 44.34375 54.890625 33.015625 
z
" id="DejaVuSans-110"/>
       <path d="M 45.40625 46.390625 
L 45.40625 75.984375 
L 54.390625 75.984375 
L 54.390625 0 
L 45.40625 0 
L 45.40625 8.203125 
Q 42.578125 3.328125 38.25 0.953125 
Q 33.9375 -1.421875 27.875 -1.421875 
Q 17.96875 -1.421875 11.734375 6.484375 
Q 5.515625 14.40625 5.515625 27.296875 
Q 5.515625 40.1875 11.734375 48.09375 
Q 17.96875 56 27.875 56 
Q 33.9375 56 38.25 53.625 
Q 42.578125 51.265625 45.40625 46.390625 
z
M 14.796875 27.296875 
Q 14.796875 17.390625 18.875 11.75 
Q 22.953125 6.109375 30.078125 6.109375 
Q 37.203125 6.109375 41.296875 11.75 
Q 45.40625 17.390625 45.40625 27.296875 
Q 45.40625 37.203125 41.296875 42.84375 
Q 37.203125 48.484375 30.078125 48.484375 
Q 22.953125 48.484375 18.875 42.84375 
Q 14.796875 37.203125 14.796875 27.296875 
z
" id="DejaVuSans-100"/>
      </defs>
      <use xlink:href="#DejaVuSans-80"/>
      <use x="58.552734" xlink:href="#DejaVuSans-117"/>
      <use x="121.931641" xlink:href="#DejaVuSans-108"/>
      <use x="149.714844" xlink:href="#DejaVuSans-115"/>
      <use x="201.814453" xlink:href="#DejaVuSans-101"/>
      <use x="263.337891" xlink:href="#DejaVuSans-32"/>
      <use x="295.125" xlink:href="#DejaVuSans-65"/>
      <use x="363.533203" xlink:href="#DejaVuSans-114"/>
      <use x="402.896484" xlink:href="#DejaVuSans-114"/>
      <use x="444.009766" xlink:href="#DejaVuSans-105"/>
      <use x="471.792969" xlink:href="#DejaVuSans-118"/>
      <use x="530.972656" xlink:href="#DejaVuSans-97"/>
      <use x="592.251953" xlink:href="#DejaVuSans-108"/>
      <use x="620.035156" xlink:href="#DejaVuSans-32"/>
      <use x="651.822266" xlink:href="#DejaVuSans-84"/>
      <use x="709.78125" xlink:href="#DejaVuSans-105"/>
      <use x="737.564453" xlink:href="#DejaVuSans-109"/>
      <use x="834.976562" xlink:href="#DejaVuSans-101"/>
      <use x="896.5" xlink:href="#DejaVuSans-32"/>
      <use x="928.287109" xlink:href="#DejaVuSans-40"/>
      <use x="967.300781" xlink:href="#DejaVuSans-83"/>
      <use x="1030.777344" xlink:href="#DejaVuSans-101"/>
      <use x="1092.300781" xlink:href="#DejaVuSans-99"/>
      <use x="1147.28125" xlink:href="#DejaVuSans-111"/>
      <use x="1208.462891" xlink:href="#DejaVuSans-110"/>
      <use x="1271.841797" xlink:href="#DejaVuSans-100"/>
      <use x="1335.318359" xlink:href="#DejaVuSans-115"/>
      <use x="1387.417969" xlink:href="#DejaVuSans-41"/>
     </g>
    </g>
   </g>
   <g id="line2d_9">
    <path clip-path="url(#pe80934dac4)" d="M 54.465773 101.226271 
L 54.544823 101.226271 
L 54.65989 95.670125 
L 54.720704 95.670125 
L 54.837445 90.113979 
L 54.920742 90.113979 
L 55.034195 87.335906 
L 55.037529 87.335906 
L 55.149643 84.557834 
L 55.179403 84.557834 
L 55.29313 81.779761 
L 55.361159 81.779761 
L 55.474612 79.001688 
L 55.596392 79.001688 
L 55.709662 76.223615 
L 56.81935 76.223615 
L 56.930596 73.445542 
L 57.671519 73.445542 
L 57.783739 70.667469 
L 58.467395 70.667469 
L 58.581884 67.889397 
L 58.816127 67.889397 
L 58.928423 65.111324 
L 59.09963 65.111324 
L 59.212276 62.333251 
L 59.451498 62.333251 
L 59.565986 59.555178 
L 59.813397 59.555178 
L 59.925693 56.777105 
L 60.402506 56.777105 
L 60.516386 53.999032 
L 61.035152 53.999032 
L 61.149884 56.777105 
L 61.332554 56.777105 
L 61.444956 53.999032 
L 62.591893 53.999032 
L 62.704174 51.22096 
L 63.132321 51.22096 
L 63.244176 48.442887 
L 63.860778 48.442887 
L 63.97385 45.664814 
L 65.268141 45.664814 
L 65.380878 42.886741 
L 66.02281 42.886741 
L 66.136826 40.108668 
L 66.578415 40.108668 
L 66.689569 37.330596 
L 67.642861 37.330596 
L 67.756071 40.108668 
L 68.047033 40.108668 
L 68.16143 42.886741 
L 68.351437 42.886741 
L 68.463794 45.664814 
L 68.609823 45.664814 
L 68.723687 48.442887 
L 68.874983 48.442887 
L 68.988421 51.22096 
L 70.019835 51.22096 
L 70.132862 48.442887 
L 70.625263 48.442887 
L 70.73899 45.664814 
L 71.467979 45.664814 
L 71.580549 48.442887 
L 71.947182 48.442887 
L 72.058657 51.22096 
L 72.328734 51.22096 
L 72.443146 53.999032 
L 72.601581 53.999032 
L 72.716694 56.777105 
L 72.858719 56.777105 
L 72.972462 59.555178 
L 73.2252 59.555178 
L 73.337116 62.333251 
L 73.740313 62.333251 
L 73.85264 65.111324 
L 74.088451 65.111324 
L 74.202102 67.889397 
L 75.069874 67.889397 
L 75.182795 70.667469 
L 75.659365 70.667469 
L 75.774644 73.445542 
L 77.03983 73.445542 
L 77.153861 76.223615 
L 77.91092 76.223615 
L 78.023856 79.001688 
L 78.349799 79.001688 
L 78.461776 81.779761 
L 79.934048 81.779761 
L 80.046587 79.001688 
L 80.404589 79.001688 
L 80.516992 76.223615 
L 80.708064 76.223615 
L 80.81998 73.445542 
L 80.931165 73.445542 
L 81.044831 70.667469 
L 81.179976 70.667469 
L 81.29282 67.889397 
L 81.39131 67.889397 
L 81.503819 65.111324 
L 81.568469 65.111324 
L 81.681526 62.333251 
L 81.708668 62.333251 
L 81.820492 59.555178 
L 81.834269 59.555178 
L 81.945712 56.777105 
L 81.952684 56.777105 
L 82.070384 51.22096 
L 82.186258 51.22096 
L 82.298295 48.442887 
L 82.324539 48.442887 
L 82.439407 45.664814 
L 82.466899 45.664814 
L 82.580931 42.886741 
L 82.625213 42.886741 
L 82.738651 40.108668 
L 82.791503 40.108668 
L 82.90386 37.330596 
L 82.966288 37.330596 
L 83.078279 34.552523 
L 83.165352 34.552523 
L 83.27987 31.77445 
L 83.403233 31.77445 
L 83.517767 28.996377 
L 83.786611 28.996377 
L 83.899684 26.218304 
L 86.889971 26.218304 
L 87.004413 23.440231 
L 88.235455 23.440231 
L 88.350536 20.662159 
L 89.446037 20.662159 
L 89.559916 17.884086 
L 90.636053 17.884086 
L 90.7494 20.662159 
L 95.662544 20.662159 
L 95.776956 23.440231 
L 98.861044 23.440231 
L 98.973933 26.218304 
L 99.630007 26.218304 
L 99.744312 28.996377 
L 101.305955 28.996377 
L 101.419545 31.77445 
L 101.982883 31.77445 
L 102.097874 34.552523 
L 102.474873 34.552523 
L 102.586256 37.330596 
L 102.797133 37.330596 
L 102.908181 40.108668 
L 103.123701 40.108668 
L 103.236819 42.886741 
L 103.513152 42.886741 
L 103.627077 45.664814 
L 103.792211 45.664814 
L 103.905725 48.442887 
L 104.022557 48.442887 
L 104.135432 51.22096 
L 104.243344 51.22096 
L 104.355884 53.999032 
L 104.464024 53.999032 
L 104.578832 56.777105 
L 104.698633 56.777105 
L 104.813699 59.555178 
L 105.88119 59.555178 
L 105.995511 56.777105 
L 106.108431 56.777105 
L 106.22126 53.999032 
L 106.285971 53.999032 
L 106.400794 51.22096 
L 106.444437 51.22096 
L 106.559534 48.442887 
L 106.603055 48.442887 
L 106.718624 45.664814 
L 106.758857 45.664814 
L 106.872569 42.886741 
L 106.92119 42.886741 
L 107.034414 40.108668 
L 107.100191 40.108668 
L 107.213339 37.330596 
L 107.305268 37.330596 
L 107.418249 34.552523 
L 107.561279 34.552523 
L 107.674215 31.77445 
L 107.9024 31.77445 
L 108.015061 28.996377 
L 110.367146 28.996377 
L 110.479838 26.218304 
L 111.109637 26.218304 
L 111.221492 23.440231 
L 111.465721 23.440231 
L 111.577302 20.662159 
L 111.804771 20.662159 
L 111.91926 17.884086 
L 112.239632 17.884086 
L 112.353328 15.106013 
L 114.4647 15.106013 
L 114.577179 17.884086 
L 116.440881 17.884086 
L 116.552706 20.662159 
L 122.361555 20.662159 
L 122.473105 23.440231 
L 124.514454 23.440231 
L 124.626004 26.218304 
L 125.008469 26.218304 
L 125.119958 28.996377 
L 125.313329 28.996377 
L 125.425458 31.77445 
L 125.561714 31.77445 
L 125.675091 34.552523 
L 125.799793 34.552523 
L 125.911192 37.330596 
L 126.017871 37.330596 
L 126.129756 40.108668 
L 126.224759 40.108668 
L 126.33873 42.886741 
L 126.420779 42.886741 
L 126.534308 45.664814 
L 126.742658 45.664814 
L 126.856248 48.442887 
L 127.612912 48.442887 
L 127.725345 45.664814 
L 128.165487 45.664814 
L 128.277251 42.886741 
L 128.844607 42.886741 
L 128.958761 40.108668 
L 130.775517 40.108668 
L 130.88658 42.886741 
L 131.410614 42.886741 
L 131.522027 45.664814 
L 131.905861 45.664814 
L 132.0207 48.442887 
L 132.361546 48.442887 
L 132.47436 51.22096 
L 133.777875 51.22096 
L 133.892105 48.442887 
L 134.389499 48.442887 
L 134.501414 45.664814 
L 134.949823 45.664814 
L 135.061647 42.886741 
L 135.588969 42.886741 
L 135.700428 40.108668 
L 139.087336 40.108668 
L 139.202174 37.330596 
L 142.955929 37.330596 
L 143.067662 40.108668 
L 143.632583 40.108668 
L 143.746082 42.886741 
L 144.126507 42.886741 
L 144.238788 45.664814 
L 144.48731 45.664814 
L 144.601661 48.442887 
L 144.972983 48.442887 
L 145.086025 51.22096 
L 145.623865 51.22096 
L 145.73846 53.999032 
L 146.765078 53.999032 
L 146.877268 51.22096 
L 154.767349 51.22096 
L 154.882035 53.999032 
L 156.637201 53.999032 
L 156.752085 56.777105 
L 157.959516 56.777105 
L 158.074141 53.999032 
L 161.575188 53.999032 
L 161.689097 51.22096 
L 162.164982 51.22096 
L 162.277507 53.999032 
L 162.858381 53.999032 
L 162.970007 56.777105 
L 164.051792 56.777105 
L 164.163769 53.999032 
L 164.251618 53.999032 
L 164.36402 51.22096 
L 164.409246 51.22096 
L 164.523324 48.442887 
L 164.546142 48.442887 
L 164.658864 45.664814 
L 164.691425 45.664814 
L 164.804452 42.886741 
L 164.847106 42.886741 
L 164.959995 40.108668 
L 165.018374 40.108668 
L 165.131035 37.330596 
L 165.20354 37.330596 
L 165.315212 34.552523 
L 165.412422 34.552523 
L 165.524247 31.77445 
L 165.679014 31.77445 
L 165.790564 28.996377 
L 168.241854 28.996377 
L 168.355535 31.77445 
L 168.659908 31.77445 
L 168.774944 34.552523 
L 168.995488 34.552523 
L 169.107571 37.330596 
L 169.287515 37.330596 
L 169.402141 40.108668 
L 169.570775 40.108668 
L 169.685522 42.886741 
L 169.923921 42.886741 
L 170.035137 45.664814 
L 170.449964 45.664814 
L 170.564605 48.442887 
L 171.258612 48.442887 
L 171.371152 45.664814 
L 172.127526 45.664814 
L 172.239685 42.886741 
L 173.264188 42.886741 
L 173.377824 40.108668 
L 174.231607 40.108668 
L 174.344024 42.886741 
L 175.611737 42.886741 
L 175.72455 45.664814 
L 177.318754 45.664814 
L 177.431065 42.886741 
L 179.869523 42.886741 
L 179.984878 40.108668 
L 180.260923 40.108668 
L 180.376126 37.330596 
L 180.5375 37.330596 
L 180.649294 34.552523 
L 180.780511 34.552523 
L 180.892244 31.77445 
L 181.04625 31.77445 
L 181.161149 28.996377 
L 181.341155 28.996377 
L 181.456465 26.218304 
L 181.682793 26.218304 
L 181.79518 23.440231 
L 182.106541 23.440231 
L 182.217558 20.662159 
L 183.506871 20.662159 
L 183.618467 17.884086 
L 184.417555 17.884086 
L 184.532226 20.662159 
L 187.446523 20.662159 
L 187.557982 23.440231 
L 190.950918 23.440231 
L 191.065437 26.218304 
L 191.396084 26.218304 
L 191.511242 28.996377 
L 191.747906 28.996377 
L 191.861557 31.77445 
L 192.055415 31.77445 
L 192.169797 34.552523 
L 192.360412 34.552523 
L 192.471673 37.330596 
L 192.856452 37.330596 
L 192.97126 40.108668 
L 194.454476 40.108668 
L 194.566392 42.886741 
L 194.788412 42.886741 
L 194.902748 45.664814 
L 195.016825 45.664814 
L 195.129395 48.442887 
L 195.201869 48.442887 
L 195.314789 51.22096 
L 195.353972 51.22096 
L 195.466086 53.999032 
L 195.494597 53.999032 
L 195.606193 56.777105 
L 195.618219 56.777105 
L 195.73458 62.333251 
L 195.831562 62.333251 
L 195.948729 67.889397 
L 196.033488 67.889397 
L 196.151751 73.445542 
L 196.252372 73.445542 
L 196.363831 76.223615 
L 196.367408 76.223615 
L 196.479933 79.001688 
L 196.487087 79.001688 
L 196.598851 81.779761 
L 196.623952 81.779761 
L 196.737466 84.557834 
L 196.776832 84.557834 
L 196.888062 87.335906 
L 196.953899 87.335906 
L 197.065161 90.113979 
L 197.188554 90.113979 
L 197.302464 92.892052 
L 197.679539 92.892052 
L 197.790572 95.670125 
L 203.475176 95.670125 
L 203.586437 98.448198 
L 204.924431 98.448198 
L 205.026711 101.226271 
L 205.581235 101.226271 
L 205.581235 101.226271 
" style="fill:none;stroke:#0000ff;stroke-linecap:square;stroke-width:1.5;"/>
   </g>
   <g id="patch_3">
    <path d="M 46.91 105.532283 
L 46.91 10.8 
" style="fill:none;stroke:#000000;stroke-linecap:square;stroke-linejoin:miter;stroke-width:0.8;"/>
   </g>
   <g id="patch_4">
    <path d="M 46.91 105.532283 
L 213.137008 105.532283 
" style="fill:none;stroke:#000000;stroke-linecap:square;stroke-linejoin:miter;stroke-width:0.8;"/>
   </g>
  </g>
 </g>
 <defs>
  <clipPath id="pe80934dac4">
   <rect height="94.732283" width="166.227008" x="46.91" y="10.8"/>
  </clipPath>
 </defs>
</svg>
